<mxfile host="65bd71144e">
    <diagram id="jH45BeDnrhwu6pfupkt5" name="Page-1">
        <mxGraphModel dx="1899" dy="799" grid="1" gridSize="10" guides="1" tooltips="1" connect="1" arrows="1" fold="1" page="1" pageScale="1" pageWidth="10000000" pageHeight="10000000" math="0" shadow="0">
            <root>
                <mxCell id="0"/>
                <mxCell id="1" parent="0"/>
                <mxCell id="nRsKjZRIM3umE5f9DIXY-8" style="edgeStyle=none;html=1;fontSize=12;" parent="1" source="2" target="3" edge="1">
                    <mxGeometry relative="1" as="geometry"/>
                </mxCell>
                <mxCell id="2" value="&lt;font style=&quot;font-size: 12px&quot;&gt;BEGIN&lt;/font&gt;" style="ellipse;whiteSpace=wrap;html=1;" parent="1" vertex="1">
                    <mxGeometry x="192.5" y="80" width="145" height="20" as="geometry"/>
                </mxCell>
                <mxCell id="nRsKjZRIM3umE5f9DIXY-9" style="edgeStyle=none;html=1;fontSize=12;" parent="1" source="3" target="nRsKjZRIM3umE5f9DIXY-5" edge="1">
                    <mxGeometry relative="1" as="geometry"/>
                </mxCell>
                <mxCell id="3" value="&lt;font style=&quot;font-size: 12px&quot;&gt;DECLARE session_status, acc_name, menu, acc_name, acc_password, admin_confirmation, payment_card, confirmation, acc_info, option, events, acc_info_name, acc_info_password, event_info, event_id, event_category, event_name, even_price, event_info, event_info_id, event_info_category, event_info_name, even_info_price, name_availability, event_list, categoryid, choice_id, new_category, new_name, new_price, list_data_temp, list_data, event_menu, event_choice, add aother_event, view_cart_menu, account_data, account_data_temp, accounts, account_name, amount_spent, new_total_price as an array of STRING&lt;br&gt;&lt;br&gt;&lt;/font&gt;DECLARE TF, status as a BOOLEAN&lt;br&gt;&lt;font style=&quot;font-size: 12px&quot;&gt;&lt;br&gt;&lt;/font&gt;DECLARE answer, admin_code, log_in_retry, amount_spent, choice, event_price, listid, option_input, total_price as INTERGER&lt;br&gt;&lt;font style=&quot;font-size: 12px&quot;&gt;&lt;br&gt;&lt;/font&gt;IMPORT os and time module&lt;span style=&quot;color: rgb(173 , 186 , 199) ; font-family: , , &amp;#34;sf mono&amp;#34; , &amp;#34;menlo&amp;#34; , &amp;#34;consolas&amp;#34; , &amp;#34;liberation mono&amp;#34; , monospace ; background-color: rgb(34 , 39 , 46)&quot;&gt;&lt;font style=&quot;font-size: 12px&quot;&gt;&lt;br&gt;&lt;/font&gt;&lt;/span&gt;" style="rounded=0;whiteSpace=wrap;html=1;" parent="1" vertex="1">
                    <mxGeometry x="40" y="120" width="450" height="260" as="geometry"/>
                </mxCell>
                <mxCell id="nRsKjZRIM3umE5f9DIXY-3" value="&lt;u style=&quot;font-size: 12px&quot;&gt;PROGRAM OEMS&lt;/u&gt;" style="text;html=1;align=center;verticalAlign=middle;resizable=0;points=[];autosize=1;strokeColor=none;fillColor=none;fontSize=8;" parent="1" vertex="1">
                    <mxGeometry x="205" y="50" width="120" height="20" as="geometry"/>
                </mxCell>
                <mxCell id="nRsKjZRIM3umE5f9DIXY-10" style="edgeStyle=none;html=1;fontSize=12;" parent="1" source="nRsKjZRIM3umE5f9DIXY-5" target="nRsKjZRIM3umE5f9DIXY-6" edge="1">
                    <mxGeometry relative="1" as="geometry"/>
                </mxCell>
                <mxCell id="nRsKjZRIM3umE5f9DIXY-5" value="session_status = 'guest'&lt;br&gt;&lt;br&gt;acc_name = None&lt;span style=&quot;color: rgb(173 , 186 , 199) ; font-family: , , &amp;#34;sf mono&amp;#34; , &amp;#34;menlo&amp;#34; , &amp;#34;consolas&amp;#34; , &amp;#34;liberation mono&amp;#34; , monospace ; background-color: rgb(34 , 39 , 46)&quot;&gt;&lt;br&gt;&lt;/span&gt;" style="rounded=0;whiteSpace=wrap;html=1;fontSize=12;" parent="1" vertex="1">
                    <mxGeometry x="188.75" y="410" width="152.5" height="80" as="geometry"/>
                </mxCell>
                <mxCell id="nRsKjZRIM3umE5f9DIXY-11" style="edgeStyle=none;html=1;fontSize=12;" parent="1" source="nRsKjZRIM3umE5f9DIXY-6" edge="1">
                    <mxGeometry relative="1" as="geometry">
                        <mxPoint x="265" y="600" as="targetPoint"/>
                    </mxGeometry>
                </mxCell>
                <mxCell id="nRsKjZRIM3umE5f9DIXY-6" value="CALL FUNCTION start()" style="shape=process;whiteSpace=wrap;html=1;backgroundOutline=1;labelBackgroundColor=none;fontSize=12;" parent="1" vertex="1">
                    <mxGeometry x="197.5" y="520" width="135" height="60" as="geometry"/>
                </mxCell>
                <mxCell id="nRsKjZRIM3umE5f9DIXY-7" value="&lt;font style=&quot;font-size: 12px&quot;&gt;END&lt;/font&gt;" style="ellipse;whiteSpace=wrap;html=1;" parent="1" vertex="1">
                    <mxGeometry x="192.5" y="600" width="145" height="20" as="geometry"/>
                </mxCell>
                <mxCell id="383D4JDCLkwi9Y8iznMF-3" value="&lt;font style=&quot;font-size: 13px&quot;&gt;&lt;u&gt;FUNCTION start&lt;/u&gt;&lt;/font&gt;" style="text;html=1;align=center;verticalAlign=middle;resizable=0;points=[];autosize=1;strokeColor=none;fillColor=none;fontSize=8;" parent="1" vertex="1">
                    <mxGeometry x="610" y="40" width="110" height="20" as="geometry"/>
                </mxCell>
                <mxCell id="383D4JDCLkwi9Y8iznMF-14" style="edgeStyle=none;html=1;fontSize=13;" parent="1" source="383D4JDCLkwi9Y8iznMF-5" target="383D4JDCLkwi9Y8iznMF-6" edge="1">
                    <mxGeometry relative="1" as="geometry"/>
                </mxCell>
                <mxCell id="383D4JDCLkwi9Y8iznMF-5" value="BEGIN" style="ellipse;whiteSpace=wrap;html=1;fontSize=13;" parent="1" vertex="1">
                    <mxGeometry x="615" y="70" width="95" height="30" as="geometry"/>
                </mxCell>
                <mxCell id="nRsKjZRIM3umE5f9DIXY-12" value="&lt;u style=&quot;font-size: 12px&quot;&gt;FUNCTION clear&lt;/u&gt;" style="text;html=1;align=center;verticalAlign=middle;resizable=0;points=[];autosize=1;strokeColor=none;fillColor=none;fontSize=8;" parent="1" vertex="1">
                    <mxGeometry x="997.5" y="45" width="110" height="20" as="geometry"/>
                </mxCell>
                <mxCell id="nRsKjZRIM3umE5f9DIXY-16" style="edgeStyle=none;html=1;fontSize=12;" parent="1" source="nRsKjZRIM3umE5f9DIXY-13" target="nRsKjZRIM3umE5f9DIXY-14" edge="1">
                    <mxGeometry relative="1" as="geometry"/>
                </mxCell>
                <mxCell id="nRsKjZRIM3umE5f9DIXY-13" value="&lt;font style=&quot;font-size: 12px&quot;&gt;BEGIN&lt;/font&gt;" style="ellipse;whiteSpace=wrap;html=1;" parent="1" vertex="1">
                    <mxGeometry x="980" y="75" width="145" height="20" as="geometry"/>
                </mxCell>
                <mxCell id="383D4JDCLkwi9Y8iznMF-16" style="edgeStyle=none;html=1;entryX=0.5;entryY=0;entryDx=0;entryDy=0;fontSize=13;" parent="1" source="383D4JDCLkwi9Y8iznMF-6" target="383D4JDCLkwi9Y8iznMF-7" edge="1">
                    <mxGeometry relative="1" as="geometry"/>
                </mxCell>
                <mxCell id="383D4JDCLkwi9Y8iznMF-6" value="CALL FUNCTION clear" style="shape=process;whiteSpace=wrap;html=1;backgroundOutline=1;fontSize=13;" parent="1" vertex="1">
                    <mxGeometry x="605" y="120" width="120" height="60" as="geometry"/>
                </mxCell>
                <mxCell id="383D4JDCLkwi9Y8iznMF-17" style="edgeStyle=none;html=1;entryX=0.5;entryY=0;entryDx=0;entryDy=0;fontSize=13;" parent="1" source="383D4JDCLkwi9Y8iznMF-7" target="383D4JDCLkwi9Y8iznMF-8" edge="1">
                    <mxGeometry relative="1" as="geometry"/>
                </mxCell>
                <mxCell id="383D4JDCLkwi9Y8iznMF-7" value="PRINT ('OEMS is loading...')" style="shape=parallelogram;perimeter=parallelogramPerimeter;whiteSpace=wrap;html=1;fixedSize=1;fontSize=13;" parent="1" vertex="1">
                    <mxGeometry x="558.75" y="210" width="207.5" height="30" as="geometry"/>
                </mxCell>
                <mxCell id="nRsKjZRIM3umE5f9DIXY-17" style="edgeStyle=none;html=1;fontSize=12;" parent="1" source="nRsKjZRIM3umE5f9DIXY-14" target="nRsKjZRIM3umE5f9DIXY-15" edge="1">
                    <mxGeometry relative="1" as="geometry"/>
                </mxCell>
                <mxCell id="nRsKjZRIM3umE5f9DIXY-14" value="Using os module:&lt;br&gt;Clear terminal screen" style="rounded=0;whiteSpace=wrap;html=1;labelBackgroundColor=none;fontSize=12;" parent="1" vertex="1">
                    <mxGeometry x="992.5" y="115" width="120" height="60" as="geometry"/>
                </mxCell>
                <mxCell id="nRsKjZRIM3umE5f9DIXY-15" value="&lt;font style=&quot;font-size: 12px&quot;&gt;END&lt;/font&gt;" style="ellipse;whiteSpace=wrap;html=1;" parent="1" vertex="1">
                    <mxGeometry x="980" y="195" width="145" height="20" as="geometry"/>
                </mxCell>
                <mxCell id="383D4JDCLkwi9Y8iznMF-19" style="edgeStyle=none;html=1;entryX=0.5;entryY=0;entryDx=0;entryDy=0;fontSize=13;" parent="1" source="383D4JDCLkwi9Y8iznMF-8" target="383D4JDCLkwi9Y8iznMF-18" edge="1">
                    <mxGeometry relative="1" as="geometry"/>
                </mxCell>
                <mxCell id="383D4JDCLkwi9Y8iznMF-8" value="OPEN cart.txt in WRITE mode with buffering set to 1 as cartfile" style="rounded=0;whiteSpace=wrap;html=1;fontSize=13;" parent="1" vertex="1">
                    <mxGeometry x="555" y="270" width="211.25" height="50" as="geometry"/>
                </mxCell>
                <mxCell id="nRsKjZRIM3umE5f9DIXY-18" value="&lt;u style=&quot;font-size: 12px&quot;&gt;FUNCTION main_menu&lt;/u&gt;" style="text;html=1;align=center;verticalAlign=middle;resizable=0;points=[];autosize=1;strokeColor=none;fillColor=none;fontSize=8;" parent="1" vertex="1">
                    <mxGeometry x="1980" y="50" width="140" height="20" as="geometry"/>
                </mxCell>
                <mxCell id="23" style="edgeStyle=none;html=1;fontColor=#F0F0F0;" parent="1" source="nRsKjZRIM3umE5f9DIXY-19" target="nRsKjZRIM3umE5f9DIXY-21" edge="1">
                    <mxGeometry relative="1" as="geometry"/>
                </mxCell>
                <mxCell id="nRsKjZRIM3umE5f9DIXY-19" value="&lt;font style=&quot;font-size: 12px&quot;&gt;BEGIN&lt;/font&gt;" style="ellipse;whiteSpace=wrap;html=1;" parent="1" vertex="1">
                    <mxGeometry x="1977.5" y="80" width="145" height="20" as="geometry"/>
                </mxCell>
                <mxCell id="24" style="edgeStyle=none;html=1;fontColor=#F0F0F0;" parent="1" source="nRsKjZRIM3umE5f9DIXY-21" target="nRsKjZRIM3umE5f9DIXY-22" edge="1">
                    <mxGeometry relative="1" as="geometry"/>
                </mxCell>
                <mxCell id="nRsKjZRIM3umE5f9DIXY-21" value="CALL FUNCTION&lt;br&gt;clear" style="shape=process;whiteSpace=wrap;html=1;backgroundOutline=1;labelBackgroundColor=none;fontSize=12;" parent="1" vertex="1">
                    <mxGeometry x="1977.5" y="120" width="145" height="60" as="geometry"/>
                </mxCell>
                <mxCell id="25" style="edgeStyle=none;html=1;fontColor=#F0F0F0;" parent="1" source="nRsKjZRIM3umE5f9DIXY-22" target="nRsKjZRIM3umE5f9DIXY-23" edge="1">
                    <mxGeometry relative="1" as="geometry"/>
                </mxCell>
                <mxCell id="nRsKjZRIM3umE5f9DIXY-22" value="sleeps for 0.75 seconds&lt;br&gt;&lt;br&gt;TF = True" style="rounded=0;whiteSpace=wrap;html=1;labelBackgroundColor=none;fontSize=12;" parent="1" vertex="1">
                    <mxGeometry x="1967.5" y="200" width="165" height="60" as="geometry"/>
                </mxCell>
                <mxCell id="383D4JDCLkwi9Y8iznMF-11" style="edgeStyle=none;html=1;entryX=0;entryY=0.5;entryDx=0;entryDy=0;fontSize=13;entryPerimeter=0;exitX=1;exitY=0.5;exitDx=0;exitDy=0;" parent="1" source="383D4JDCLkwi9Y8iznMF-8" target="383D4JDCLkwi9Y8iznMF-10" edge="1">
                    <mxGeometry relative="1" as="geometry">
                        <mxPoint x="810" y="250" as="sourcePoint"/>
                    </mxGeometry>
                </mxCell>
                <mxCell id="383D4JDCLkwi9Y8iznMF-10" value="" style="shape=cylinder3;whiteSpace=wrap;html=1;boundedLbl=1;backgroundOutline=1;size=15;fontSize=13;" parent="1" vertex="1">
                    <mxGeometry x="840" y="267.5" width="60" height="55" as="geometry"/>
                </mxCell>
                <mxCell id="383D4JDCLkwi9Y8iznMF-21" style="edgeStyle=none;html=1;entryX=0.5;entryY=0;entryDx=0;entryDy=0;fontSize=13;" parent="1" source="383D4JDCLkwi9Y8iznMF-18" target="383D4JDCLkwi9Y8iznMF-20" edge="1">
                    <mxGeometry relative="1" as="geometry"/>
                </mxCell>
                <mxCell id="383D4JDCLkwi9Y8iznMF-18" value="CLOSE cartfile" style="rounded=0;whiteSpace=wrap;html=1;fontSize=13;" parent="1" vertex="1">
                    <mxGeometry x="580.63" y="350" width="160" height="50" as="geometry"/>
                </mxCell>
                <mxCell id="383D4JDCLkwi9Y8iznMF-23" style="edgeStyle=none;html=1;entryX=0.5;entryY=0;entryDx=0;entryDy=0;fontSize=13;" parent="1" source="383D4JDCLkwi9Y8iznMF-20" target="383D4JDCLkwi9Y8iznMF-22" edge="1">
                    <mxGeometry relative="1" as="geometry"/>
                </mxCell>
                <mxCell id="383D4JDCLkwi9Y8iznMF-20" value="sleeps for 3 seconds&lt;br&gt;&lt;div&gt;PRINT ('Done!')&lt;/div&gt;&lt;div&gt;sleep for 1 second&lt;/div&gt;" style="shape=parallelogram;perimeter=parallelogramPerimeter;whiteSpace=wrap;html=1;fixedSize=1;fontSize=13;" parent="1" vertex="1">
                    <mxGeometry x="545.95" y="420" width="229.37" height="60" as="geometry"/>
                </mxCell>
                <mxCell id="383D4JDCLkwi9Y8iznMF-25" style="edgeStyle=none;html=1;entryX=0.5;entryY=0;entryDx=0;entryDy=0;fontSize=13;" parent="1" source="383D4JDCLkwi9Y8iznMF-22" target="383D4JDCLkwi9Y8iznMF-24" edge="1">
                    <mxGeometry relative="1" as="geometry"/>
                </mxCell>
                <mxCell id="383D4JDCLkwi9Y8iznMF-22" value="CALL FUNCTION main_menu" style="shape=process;whiteSpace=wrap;html=1;backgroundOutline=1;fontSize=13;" parent="1" vertex="1">
                    <mxGeometry x="600" y="510" width="120" height="60" as="geometry"/>
                </mxCell>
                <mxCell id="22" style="edgeStyle=none;html=1;entryX=0.5;entryY=0;entryDx=0;entryDy=0;fontColor=#F0F0F0;" parent="1" source="nRsKjZRIM3umE5f9DIXY-23" target="nRsKjZRIM3umE5f9DIXY-24" edge="1">
                    <mxGeometry relative="1" as="geometry"/>
                </mxCell>
                <mxCell id="73" style="edgeStyle=none;html=1;fontColor=#F0F0F0;" parent="1" source="nRsKjZRIM3umE5f9DIXY-23" target="72" edge="1">
                    <mxGeometry relative="1" as="geometry"/>
                </mxCell>
                <mxCell id="nRsKjZRIM3umE5f9DIXY-23" value="IF session status == 'guest' ?" style="rhombus;whiteSpace=wrap;html=1;labelBackgroundColor=none;fontSize=12;" parent="1" vertex="1">
                    <mxGeometry x="1930" y="280" width="240" height="80" as="geometry"/>
                </mxCell>
                <mxCell id="6" style="edgeStyle=none;html=1;entryX=0.5;entryY=0;entryDx=0;entryDy=0;" parent="1" source="nRsKjZRIM3umE5f9DIXY-24" target="4" edge="1">
                    <mxGeometry relative="1" as="geometry"/>
                </mxCell>
                <mxCell id="nRsKjZRIM3umE5f9DIXY-24" value="menu = '''Welcome to OEMS, The Online Event Management System!&lt;br&gt;What would you like to do?&lt;br&gt;&lt;br&gt;1. Log In&lt;br&gt;2. Register An Account&lt;br&gt;3. Event Information&lt;br&gt;4. Exit&lt;br&gt;&lt;br&gt;Choice: '''" style="rounded=0;whiteSpace=wrap;html=1;labelBackgroundColor=none;fontSize=12;align=left;" parent="1" vertex="1">
                    <mxGeometry x="1360" y="400" width="400" height="160" as="geometry"/>
                </mxCell>
                <mxCell id="383D4JDCLkwi9Y8iznMF-24" value="RETURN" style="ellipse;whiteSpace=wrap;html=1;fontSize=13;" parent="1" vertex="1">
                    <mxGeometry x="590.01" y="600" width="141.25" height="30" as="geometry"/>
                </mxCell>
                <mxCell id="14" style="edgeStyle=none;html=1;entryX=0.5;entryY=0;entryDx=0;entryDy=0;fontColor=#F0F0F0;" parent="1" source="4" target="8" edge="1">
                    <mxGeometry relative="1" as="geometry"/>
                </mxCell>
                <mxCell id="4" value="DOWHILE TF == True" style="rhombus;whiteSpace=wrap;html=1;labelBackgroundColor=none;" parent="1" vertex="1">
                    <mxGeometry x="1465" y="620" width="190" height="80" as="geometry"/>
                </mxCell>
                <mxCell id="7" value="TRUE" style="text;html=1;align=center;verticalAlign=middle;resizable=0;points=[];autosize=1;strokeColor=none;fillColor=none;" parent="1" vertex="1">
                    <mxGeometry x="1835" y="330" width="50" height="20" as="geometry"/>
                </mxCell>
                <mxCell id="15" style="edgeStyle=none;html=1;fontColor=#F0F0F0;" parent="1" source="8" target="9" edge="1">
                    <mxGeometry relative="1" as="geometry"/>
                </mxCell>
                <mxCell id="8" value="Execute try clause" style="rounded=0;whiteSpace=wrap;html=1;labelBackgroundColor=none;fontColor=#F0F0F0;" parent="1" vertex="1">
                    <mxGeometry x="1310" y="700" width="120" height="60" as="geometry"/>
                </mxCell>
                <mxCell id="16" style="edgeStyle=none;html=1;fontColor=#F0F0F0;" parent="1" source="9" target="10" edge="1">
                    <mxGeometry relative="1" as="geometry"/>
                </mxCell>
                <mxCell id="9" value="PRINT (menu)&lt;br&gt;&lt;br&gt;Get answer" style="shape=parallelogram;perimeter=parallelogramPerimeter;whiteSpace=wrap;html=1;fixedSize=1;labelBackgroundColor=none;fontColor=#F0F0F0;" parent="1" vertex="1">
                    <mxGeometry x="1290" y="790" width="160" height="60" as="geometry"/>
                </mxCell>
                <mxCell id="17" style="edgeStyle=none;html=1;fontColor=#F0F0F0;" parent="1" source="10" target="11" edge="1">
                    <mxGeometry relative="1" as="geometry"/>
                </mxCell>
                <mxCell id="28" style="edgeStyle=none;html=1;fontColor=#F0F0F0;" parent="1" source="10" target="26" edge="1">
                    <mxGeometry relative="1" as="geometry"/>
                </mxCell>
                <mxCell id="10" value="exception occurs" style="rhombus;whiteSpace=wrap;html=1;labelBackgroundColor=none;fontColor=#F0F0F0;" parent="1" vertex="1">
                    <mxGeometry x="1295" y="880" width="150" height="80" as="geometry"/>
                </mxCell>
                <mxCell id="18" style="edgeStyle=none;html=1;entryX=0.5;entryY=1;entryDx=0;entryDy=0;fontColor=#F0F0F0;" parent="1" source="11" target="13" edge="1">
                    <mxGeometry relative="1" as="geometry"/>
                </mxCell>
                <mxCell id="11" value="PRINT ('Invalid option, please try again.')" style="shape=parallelogram;perimeter=parallelogramPerimeter;whiteSpace=wrap;html=1;fixedSize=1;labelBackgroundColor=none;fontColor=#F0F0F0;" parent="1" vertex="1">
                    <mxGeometry x="1417.5" y="980" width="252.5" height="60" as="geometry"/>
                </mxCell>
                <mxCell id="156" style="edgeStyle=none;html=1;entryX=0.5;entryY=1;entryDx=0;entryDy=0;" edge="1" parent="1" source="12" target="155">
                    <mxGeometry relative="1" as="geometry"/>
                </mxCell>
                <mxCell id="12" value="CALL FUNCTION&lt;br&gt;clear" style="shape=process;whiteSpace=wrap;html=1;backgroundOutline=1;labelBackgroundColor=none;fontColor=#F0F0F0;" parent="1" vertex="1">
                    <mxGeometry x="1495" y="780" width="150" height="60" as="geometry"/>
                </mxCell>
                <mxCell id="19" style="edgeStyle=none;html=1;entryX=0.553;entryY=1.05;entryDx=0;entryDy=0;entryPerimeter=0;fontColor=#F0F0F0;" parent="1" source="13" target="12" edge="1">
                    <mxGeometry relative="1" as="geometry"/>
                </mxCell>
                <mxCell id="13" value="sleeps for 0.75 seconds" style="rounded=0;whiteSpace=wrap;html=1;labelBackgroundColor=none;fontColor=#F0F0F0;" parent="1" vertex="1">
                    <mxGeometry x="1510" y="860" width="120" height="60" as="geometry"/>
                </mxCell>
                <mxCell id="383D4JDCLkwi9Y8iznMF-26" value="&lt;u&gt;FUNCTION log_in&amp;nbsp;&lt;/u&gt;" style="text;html=1;align=center;verticalAlign=middle;resizable=0;points=[];autosize=1;strokeColor=none;fillColor=none;fontSize=13;" parent="1" vertex="1">
                    <mxGeometry x="3560" y="40" width="120" height="20" as="geometry"/>
                </mxCell>
                <mxCell id="383D4JDCLkwi9Y8iznMF-29" style="edgeStyle=none;html=1;fontSize=13;entryX=0.5;entryY=0;entryDx=0;entryDy=0;" parent="1" source="383D4JDCLkwi9Y8iznMF-27" target="383D4JDCLkwi9Y8iznMF-28" edge="1">
                    <mxGeometry relative="1" as="geometry">
                        <mxPoint x="3620" y="120" as="targetPoint"/>
                    </mxGeometry>
                </mxCell>
                <mxCell id="383D4JDCLkwi9Y8iznMF-27" value="BEGIN" style="ellipse;whiteSpace=wrap;html=1;fontSize=13;" parent="1" vertex="1">
                    <mxGeometry x="3565" y="75" width="110" height="20" as="geometry"/>
                </mxCell>
                <mxCell id="383D4JDCLkwi9Y8iznMF-31" style="edgeStyle=none;html=1;entryX=0.5;entryY=0;entryDx=0;entryDy=0;fontSize=13;" parent="1" source="383D4JDCLkwi9Y8iznMF-28" target="383D4JDCLkwi9Y8iznMF-30" edge="1">
                    <mxGeometry relative="1" as="geometry"/>
                </mxCell>
                <mxCell id="383D4JDCLkwi9Y8iznMF-28" value="CALL FUNCTION clear" style="shape=process;whiteSpace=wrap;html=1;backgroundOutline=1;fontSize=13;" parent="1" vertex="1">
                    <mxGeometry x="3555" y="115" width="130" height="50" as="geometry"/>
                </mxCell>
                <mxCell id="383D4JDCLkwi9Y8iznMF-33" style="edgeStyle=none;html=1;fontSize=13;entryX=0.5;entryY=0;entryDx=0;entryDy=0;" parent="1" source="383D4JDCLkwi9Y8iznMF-30" target="383D4JDCLkwi9Y8iznMF-32" edge="1">
                    <mxGeometry relative="1" as="geometry">
                        <mxPoint x="3620" y="230" as="targetPoint"/>
                    </mxGeometry>
                </mxCell>
                <mxCell id="383D4JDCLkwi9Y8iznMF-30" value="sleeps for 0.75 seconds" style="shape=parallelogram;perimeter=parallelogramPerimeter;whiteSpace=wrap;html=1;fixedSize=1;fontSize=13;" parent="1" vertex="1">
                    <mxGeometry x="3535" y="185" width="170" height="30" as="geometry"/>
                </mxCell>
                <mxCell id="29" style="edgeStyle=none;html=1;entryX=0.5;entryY=0;entryDx=0;entryDy=0;fontColor=#F0F0F0;" parent="1" source="26" target="27" edge="1">
                    <mxGeometry relative="1" as="geometry"/>
                </mxCell>
                <mxCell id="35" style="edgeStyle=none;html=1;fontColor=#F0F0F0;" parent="1" source="26" target="31" edge="1">
                    <mxGeometry relative="1" as="geometry"/>
                </mxCell>
                <mxCell id="26" value="IF answer == 1 ?" style="rhombus;whiteSpace=wrap;html=1;labelBackgroundColor=none;fontColor=#F0F0F0;" parent="1" vertex="1">
                    <mxGeometry x="1140" y="970" width="170" height="80" as="geometry"/>
                </mxCell>
                <mxCell id="383D4JDCLkwi9Y8iznMF-36" style="edgeStyle=none;html=1;entryX=0.5;entryY=0;entryDx=0;entryDy=0;fontSize=13;" parent="1" source="383D4JDCLkwi9Y8iznMF-32" target="383D4JDCLkwi9Y8iznMF-35" edge="1">
                    <mxGeometry relative="1" as="geometry"/>
                </mxCell>
                <mxCell id="383D4JDCLkwi9Y8iznMF-32" value="&lt;div&gt;DECLARE session_status, acc_name as Global variable&lt;/div&gt;&lt;div&gt;&lt;br&gt;&lt;/div&gt;&lt;div&gt;&amp;nbsp; &amp;nbsp; TF = True&lt;/div&gt;" style="rounded=0;whiteSpace=wrap;html=1;fontSize=13;" parent="1" vertex="1">
                    <mxGeometry x="3525" y="240" width="190" height="60" as="geometry"/>
                </mxCell>
                <mxCell id="34" style="edgeStyle=none;html=1;entryX=0;entryY=0.5;entryDx=0;entryDy=0;fontColor=#F0F0F0;" parent="1" source="27" target="33" edge="1">
                    <mxGeometry relative="1" as="geometry"/>
                </mxCell>
                <mxCell id="27" value="CALL FUNCTION&lt;br&gt;log_in" style="shape=process;whiteSpace=wrap;html=1;backgroundOutline=1;labelBackgroundColor=none;fontColor=#F0F0F0;" parent="1" vertex="1">
                    <mxGeometry x="1250" y="1070" width="140" height="60" as="geometry"/>
                </mxCell>
                <mxCell id="383D4JDCLkwi9Y8iznMF-35" value="DOWHILE TF == True" style="rhombus;whiteSpace=wrap;html=1;fontSize=13;" parent="1" vertex="1">
                    <mxGeometry x="3545" y="320" width="150" height="90" as="geometry"/>
                </mxCell>
                <mxCell id="30" value="TRUE" style="text;html=1;align=center;verticalAlign=middle;resizable=0;points=[];autosize=1;strokeColor=none;fillColor=none;fontColor=#F0F0F0;" parent="1" vertex="1">
                    <mxGeometry x="1295" y="1030" width="50" height="20" as="geometry"/>
                </mxCell>
                <mxCell id="36" style="edgeStyle=none;html=1;entryX=0.5;entryY=0;entryDx=0;entryDy=0;fontColor=#F0F0F0;" parent="1" source="31" target="32" edge="1">
                    <mxGeometry relative="1" as="geometry"/>
                </mxCell>
                <mxCell id="44" style="edgeStyle=none;html=1;fontColor=#F0F0F0;" parent="1" source="31" target="41" edge="1">
                    <mxGeometry relative="1" as="geometry"/>
                </mxCell>
                <mxCell id="31" value="ELIF answer == 2 ?" style="rhombus;whiteSpace=wrap;html=1;labelBackgroundColor=none;fontColor=#F0F0F0;" parent="1" vertex="1">
                    <mxGeometry x="1010" y="1060" width="170" height="80" as="geometry"/>
                </mxCell>
                <mxCell id="40" style="edgeStyle=none;html=1;entryX=0;entryY=0.5;entryDx=0;entryDy=0;fontColor=#F0F0F0;" parent="1" source="32" target="39" edge="1">
                    <mxGeometry relative="1" as="geometry"/>
                </mxCell>
                <mxCell id="32" value="CALL FUNCTION&lt;br&gt;acc_register" style="shape=process;whiteSpace=wrap;html=1;backgroundOutline=1;labelBackgroundColor=none;fontColor=#F0F0F0;" parent="1" vertex="1">
                    <mxGeometry x="1150" y="1160" width="140" height="60" as="geometry"/>
                </mxCell>
                <mxCell id="33" value="RETURN" style="ellipse;whiteSpace=wrap;html=1;labelBackgroundColor=none;fontColor=#F0F0F0;" parent="1" vertex="1">
                    <mxGeometry x="1430" y="1075" width="120" height="50" as="geometry"/>
                </mxCell>
                <mxCell id="37" value="TRUE" style="text;html=1;align=center;verticalAlign=middle;resizable=0;points=[];autosize=1;strokeColor=none;fillColor=none;fontColor=#F0F0F0;" parent="1" vertex="1">
                    <mxGeometry x="1162.5" y="1120" width="50" height="20" as="geometry"/>
                </mxCell>
                <mxCell id="38" value="FALSE" style="text;html=1;align=center;verticalAlign=middle;resizable=0;points=[];autosize=1;strokeColor=none;fillColor=none;fontColor=#F0F0F0;" parent="1" vertex="1">
                    <mxGeometry x="1100" y="1040" width="50" height="20" as="geometry"/>
                </mxCell>
                <mxCell id="39" value="RETURN" style="ellipse;whiteSpace=wrap;html=1;labelBackgroundColor=none;fontColor=#F0F0F0;" parent="1" vertex="1">
                    <mxGeometry x="1330" y="1165" width="120" height="50" as="geometry"/>
                </mxCell>
                <mxCell id="45" style="edgeStyle=none;html=1;entryX=0.5;entryY=0;entryDx=0;entryDy=0;fontColor=#F0F0F0;" parent="1" source="41" target="42" edge="1">
                    <mxGeometry relative="1" as="geometry"/>
                </mxCell>
                <mxCell id="55" style="edgeStyle=none;html=1;fontColor=#F0F0F0;" parent="1" source="41" target="51" edge="1">
                    <mxGeometry relative="1" as="geometry"/>
                </mxCell>
                <mxCell id="41" value="ELIF answer == 3 ?" style="rhombus;whiteSpace=wrap;html=1;labelBackgroundColor=none;fontColor=#F0F0F0;" parent="1" vertex="1">
                    <mxGeometry x="900" y="1150" width="170" height="80" as="geometry"/>
                </mxCell>
                <mxCell id="383D4JDCLkwi9Y8iznMF-63" style="edgeStyle=none;html=1;entryX=0.5;entryY=0;entryDx=0;entryDy=0;fontSize=13;" parent="1" source="383D4JDCLkwi9Y8iznMF-41" target="383D4JDCLkwi9Y8iznMF-61" edge="1">
                    <mxGeometry relative="1" as="geometry"/>
                </mxCell>
                <mxCell id="383D4JDCLkwi9Y8iznMF-41" value="&lt;div&gt;OPEN account_info.txt in READ MODE with buffering set to 1&lt;/div&gt;&lt;div&gt;&amp;nbsp; &amp;nbsp; &amp;nbsp; &amp;nbsp; READ line of files as info_file&lt;/div&gt;" style="rounded=0;whiteSpace=wrap;html=1;fontSize=13;align=center;" parent="1" vertex="1">
                    <mxGeometry x="3670" y="400" width="285" height="60" as="geometry"/>
                </mxCell>
                <mxCell id="46" style="edgeStyle=none;html=1;entryX=0;entryY=0.5;entryDx=0;entryDy=0;fontColor=#F0F0F0;" parent="1" source="42" target="43" edge="1">
                    <mxGeometry relative="1" as="geometry"/>
                </mxCell>
                <mxCell id="42" value="CALL FUNCTION&lt;br&gt;list_event_menu" style="shape=process;whiteSpace=wrap;html=1;backgroundOutline=1;labelBackgroundColor=none;fontColor=#F0F0F0;" parent="1" vertex="1">
                    <mxGeometry x="1047.5" y="1250" width="140" height="60" as="geometry"/>
                </mxCell>
                <mxCell id="43" value="RETURN" style="ellipse;whiteSpace=wrap;html=1;labelBackgroundColor=none;fontColor=#F0F0F0;" parent="1" vertex="1">
                    <mxGeometry x="1230" y="1255" width="120" height="50" as="geometry"/>
                </mxCell>
                <mxCell id="47" value="TRUE" style="text;html=1;align=center;verticalAlign=middle;resizable=0;points=[];autosize=1;strokeColor=none;fillColor=none;fontColor=#F0F0F0;" parent="1" vertex="1">
                    <mxGeometry x="1070" y="1210" width="50" height="20" as="geometry"/>
                </mxCell>
                <mxCell id="48" value="FALSE" style="text;html=1;align=center;verticalAlign=middle;resizable=0;points=[];autosize=1;strokeColor=none;fillColor=none;fontColor=#F0F0F0;" parent="1" vertex="1">
                    <mxGeometry x="992.5" y="1130" width="50" height="20" as="geometry"/>
                </mxCell>
                <mxCell id="383D4JDCLkwi9Y8iznMF-49" value="" style="endArrow=classic;html=1;fontSize=13;exitX=1;exitY=0.5;exitDx=0;exitDy=0;entryX=0.5;entryY=0;entryDx=0;entryDy=0;" parent="1" source="383D4JDCLkwi9Y8iznMF-35" target="383D4JDCLkwi9Y8iznMF-41" edge="1">
                    <mxGeometry width="50" height="50" relative="1" as="geometry">
                        <mxPoint x="3740" y="360" as="sourcePoint"/>
                        <mxPoint x="3790" y="310" as="targetPoint"/>
                        <Array as="points">
                            <mxPoint x="3813" y="365"/>
                        </Array>
                    </mxGeometry>
                </mxCell>
                <mxCell id="49" value="TRUE" style="text;html=1;align=center;verticalAlign=middle;resizable=0;points=[];autosize=1;strokeColor=none;fillColor=none;fontColor=#F0F0F0;" parent="1" vertex="1">
                    <mxGeometry x="1435" y="930" width="50" height="20" as="geometry"/>
                </mxCell>
                <mxCell id="50" value="FALSE" style="text;html=1;align=center;verticalAlign=middle;resizable=0;points=[];autosize=1;strokeColor=none;fillColor=none;fontColor=#F0F0F0;" parent="1" vertex="1">
                    <mxGeometry x="1250" y="940" width="50" height="20" as="geometry"/>
                </mxCell>
                <mxCell id="56" style="edgeStyle=none;html=1;entryX=0.5;entryY=0;entryDx=0;entryDy=0;fontColor=#F0F0F0;" parent="1" source="51" target="53" edge="1">
                    <mxGeometry relative="1" as="geometry"/>
                </mxCell>
                <mxCell id="62" style="edgeStyle=none;html=1;entryX=0.5;entryY=0;entryDx=0;entryDy=0;fontColor=#F0F0F0;" parent="1" source="51" target="61" edge="1">
                    <mxGeometry relative="1" as="geometry"/>
                </mxCell>
                <mxCell id="51" value="ELIF answer == 4 ?" style="rhombus;whiteSpace=wrap;html=1;labelBackgroundColor=none;fontColor=#F0F0F0;" parent="1" vertex="1">
                    <mxGeometry x="800" y="1240" width="170" height="80" as="geometry"/>
                </mxCell>
                <mxCell id="57" style="edgeStyle=none;html=1;entryX=0;entryY=0.5;entryDx=0;entryDy=0;fontColor=#F0F0F0;" parent="1" source="53" target="54" edge="1">
                    <mxGeometry relative="1" as="geometry"/>
                </mxCell>
                <mxCell id="53" value="CALL FUNCTION clear&lt;br&gt;&lt;br&gt;CALL FUNCTION quit" style="shape=process;whiteSpace=wrap;html=1;backgroundOutline=1;labelBackgroundColor=none;fontColor=#F0F0F0;" parent="1" vertex="1">
                    <mxGeometry x="950" y="1340" width="170" height="70" as="geometry"/>
                </mxCell>
                <mxCell id="383D4JDCLkwi9Y8iznMF-54" style="edgeStyle=none;html=1;entryX=1.007;entryY=0.359;entryDx=0;entryDy=0;entryPerimeter=0;fontSize=13;" parent="1" source="383D4JDCLkwi9Y8iznMF-53" target="383D4JDCLkwi9Y8iznMF-41" edge="1">
                    <mxGeometry relative="1" as="geometry"/>
                </mxCell>
                <mxCell id="383D4JDCLkwi9Y8iznMF-53" value="" style="shape=cylinder3;whiteSpace=wrap;html=1;boundedLbl=1;backgroundOutline=1;size=15;fontSize=13;" parent="1" vertex="1">
                    <mxGeometry x="4000" y="390" width="60" height="60" as="geometry"/>
                </mxCell>
                <mxCell id="54" value="END" style="ellipse;whiteSpace=wrap;html=1;labelBackgroundColor=none;fontColor=#F0F0F0;" parent="1" vertex="1">
                    <mxGeometry x="1170" y="1350" width="120" height="50" as="geometry"/>
                </mxCell>
                <mxCell id="58" value="FALSE" style="text;html=1;align=center;verticalAlign=middle;resizable=0;points=[];autosize=1;strokeColor=none;fillColor=none;fontColor=#F0F0F0;" parent="1" vertex="1">
                    <mxGeometry x="880" y="1215" width="50" height="20" as="geometry"/>
                </mxCell>
                <mxCell id="59" value="TRUE" style="text;html=1;align=center;verticalAlign=middle;resizable=0;points=[];autosize=1;strokeColor=none;fillColor=none;fontColor=#F0F0F0;" parent="1" vertex="1">
                    <mxGeometry x="980" y="1300" width="50" height="20" as="geometry"/>
                </mxCell>
                <mxCell id="67" style="edgeStyle=none;html=1;fontColor=#F0F0F0;" parent="1" source="61" target="64" edge="1">
                    <mxGeometry relative="1" as="geometry"/>
                </mxCell>
                <mxCell id="61" value="PRINT ('Invalid option,please try again.')" style="shape=parallelogram;perimeter=parallelogramPerimeter;whiteSpace=wrap;html=1;fixedSize=1;labelBackgroundColor=none;fontColor=#F0F0F0;" parent="1" vertex="1">
                    <mxGeometry x="655" y="1340" width="200" height="70" as="geometry"/>
                </mxCell>
                <mxCell id="383D4JDCLkwi9Y8iznMF-68" style="edgeStyle=none;html=1;fontSize=13;entryX=0.5;entryY=0;entryDx=0;entryDy=0;" parent="1" source="383D4JDCLkwi9Y8iznMF-61" target="383D4JDCLkwi9Y8iznMF-65" edge="1">
                    <mxGeometry relative="1" as="geometry">
                        <mxPoint x="3812.5" y="570" as="targetPoint"/>
                    </mxGeometry>
                </mxCell>
                <mxCell id="383D4JDCLkwi9Y8iznMF-61" value="&lt;div&gt;PRINT('OEMS Login')&lt;/div&gt;&lt;div&gt;&lt;br&gt;&lt;/div&gt;&lt;div&gt;&amp;nbsp; &amp;nbsp; &amp;nbsp; &amp;nbsp; PRINT('Please enter your username: ')&lt;/div&gt;&lt;div&gt;&amp;nbsp; &amp;nbsp; &amp;nbsp; &amp;nbsp; Get acc_name&lt;/div&gt;" style="shape=parallelogram;perimeter=parallelogramPerimeter;whiteSpace=wrap;html=1;fixedSize=1;fontSize=13;" parent="1" vertex="1">
                    <mxGeometry x="3652.5" y="480" width="320" height="70" as="geometry"/>
                </mxCell>
                <mxCell id="63" value="FALSE" style="text;html=1;align=center;verticalAlign=middle;resizable=0;points=[];autosize=1;strokeColor=none;fillColor=none;fontColor=#F0F0F0;" parent="1" vertex="1">
                    <mxGeometry x="740.63" y="1300" width="50" height="20" as="geometry"/>
                </mxCell>
                <mxCell id="68" style="edgeStyle=none;html=1;fontColor=#F0F0F0;" parent="1" source="64" target="65" edge="1">
                    <mxGeometry relative="1" as="geometry"/>
                </mxCell>
                <mxCell id="64" value="sleeps for 0.75 seconds" style="rounded=0;whiteSpace=wrap;html=1;labelBackgroundColor=none;fontColor=#F0F0F0;" parent="1" vertex="1">
                    <mxGeometry x="690" y="1440" width="120" height="60" as="geometry"/>
                </mxCell>
                <mxCell id="69" style="edgeStyle=none;html=1;fontColor=#F0F0F0;" parent="1" source="65" target="66" edge="1">
                    <mxGeometry relative="1" as="geometry"/>
                </mxCell>
                <mxCell id="65" value="CALL FUNCTION&lt;br&gt;clear" style="shape=process;whiteSpace=wrap;html=1;backgroundOutline=1;labelBackgroundColor=none;fontColor=#F0F0F0;" parent="1" vertex="1">
                    <mxGeometry x="685" y="1530" width="140" height="60" as="geometry"/>
                </mxCell>
                <mxCell id="383D4JDCLkwi9Y8iznMF-79" style="edgeStyle=none;html=1;fontSize=13;exitX=1;exitY=0.5;exitDx=0;exitDy=0;entryX=0.35;entryY=0.148;entryDx=0;entryDy=0;entryPerimeter=0;" parent="1" source="383D4JDCLkwi9Y8iznMF-65" target="383D4JDCLkwi9Y8iznMF-78" edge="1">
                    <mxGeometry relative="1" as="geometry"/>
                </mxCell>
                <mxCell id="383D4JDCLkwi9Y8iznMF-65" value="IF acc_name == &quot;&quot; ?" style="rhombus;whiteSpace=wrap;html=1;fontSize=13;" parent="1" vertex="1">
                    <mxGeometry x="3728.75" y="570" width="167.5" height="70" as="geometry"/>
                </mxCell>
                <mxCell id="383D4JDCLkwi9Y8iznMF-66" value="True" style="text;html=1;align=center;verticalAlign=middle;resizable=0;points=[];autosize=1;strokeColor=none;fillColor=none;fontSize=13;" parent="1" vertex="1">
                    <mxGeometry x="3730" y="340" width="40" height="20" as="geometry"/>
                </mxCell>
                <mxCell id="70" style="edgeStyle=none;html=1;fontColor=#F0F0F0;entryX=0.042;entryY=0.525;entryDx=0;entryDy=0;entryPerimeter=0;" parent="1" source="66" target="4" edge="1">
                    <mxGeometry relative="1" as="geometry">
                        <mxPoint x="1280" y="640" as="targetPoint"/>
                        <Array as="points">
                            <mxPoint x="620" y="1650"/>
                            <mxPoint x="620" y="1320"/>
                            <mxPoint x="1040" y="1040"/>
                            <mxPoint x="1040" y="730"/>
                            <mxPoint x="1040" y="662"/>
                        </Array>
                    </mxGeometry>
                </mxCell>
                <mxCell id="66" value="CONTINUE" style="rounded=0;whiteSpace=wrap;html=1;labelBackgroundColor=none;fontColor=#F0F0F0;" parent="1" vertex="1">
                    <mxGeometry x="690" y="1620" width="120" height="60" as="geometry"/>
                </mxCell>
                <mxCell id="383D4JDCLkwi9Y8iznMF-74" style="edgeStyle=none;html=1;entryX=0.626;entryY=-0.008;entryDx=0;entryDy=0;fontSize=13;entryPerimeter=0;" parent="1" source="383D4JDCLkwi9Y8iznMF-69" target="383D4JDCLkwi9Y8iznMF-73" edge="1">
                    <mxGeometry relative="1" as="geometry"/>
                </mxCell>
                <mxCell id="383D4JDCLkwi9Y8iznMF-69" value="PRINT('No username entered, please try again.')&lt;br&gt;sleeps for 0.75 seconds" style="shape=parallelogram;perimeter=parallelogramPerimeter;whiteSpace=wrap;html=1;fixedSize=1;fontSize=13;" parent="1" vertex="1">
                    <mxGeometry x="3525" y="660" width="320" height="50" as="geometry"/>
                </mxCell>
                <mxCell id="383D4JDCLkwi9Y8iznMF-71" value="" style="endArrow=classic;html=1;fontSize=13;entryX=0.476;entryY=-0.049;entryDx=0;entryDy=0;entryPerimeter=0;exitX=0;exitY=0.5;exitDx=0;exitDy=0;" parent="1" source="383D4JDCLkwi9Y8iznMF-65" target="383D4JDCLkwi9Y8iznMF-69" edge="1">
                    <mxGeometry width="50" height="50" relative="1" as="geometry">
                        <mxPoint x="3700" y="650" as="sourcePoint"/>
                        <mxPoint x="3750" y="600" as="targetPoint"/>
                        <Array as="points">
                            <mxPoint x="3677" y="605"/>
                        </Array>
                    </mxGeometry>
                </mxCell>
                <mxCell id="383D4JDCLkwi9Y8iznMF-72" value="True" style="text;html=1;align=center;verticalAlign=middle;resizable=0;points=[];autosize=1;strokeColor=none;fillColor=none;fontSize=13;" parent="1" vertex="1">
                    <mxGeometry x="3680" y="580" width="40" height="20" as="geometry"/>
                </mxCell>
                <mxCell id="383D4JDCLkwi9Y8iznMF-76" style="edgeStyle=none;html=1;entryX=0.5;entryY=0;entryDx=0;entryDy=0;fontSize=13;" parent="1" source="383D4JDCLkwi9Y8iznMF-73" target="383D4JDCLkwi9Y8iznMF-75" edge="1">
                    <mxGeometry relative="1" as="geometry"/>
                </mxCell>
                <mxCell id="383D4JDCLkwi9Y8iznMF-73" value="CALL FUNCTION clear" style="shape=process;whiteSpace=wrap;html=1;backgroundOutline=1;fontSize=13;" parent="1" vertex="1">
                    <mxGeometry x="3610" y="730" width="120" height="60" as="geometry"/>
                </mxCell>
                <mxCell id="383D4JDCLkwi9Y8iznMF-75" value="CONTINUE" style="rounded=0;whiteSpace=wrap;html=1;fontSize=13;" parent="1" vertex="1">
                    <mxGeometry x="3622.5" y="810" width="95" height="20" as="geometry"/>
                </mxCell>
                <mxCell id="383D4JDCLkwi9Y8iznMF-77" value="" style="endArrow=classic;html=1;fontSize=13;entryX=0.463;entryY=0.995;entryDx=0;entryDy=0;entryPerimeter=0;exitX=0;exitY=0.5;exitDx=0;exitDy=0;" parent="1" source="383D4JDCLkwi9Y8iznMF-75" target="383D4JDCLkwi9Y8iznMF-35" edge="1">
                    <mxGeometry width="50" height="50" relative="1" as="geometry">
                        <mxPoint x="3700" y="730" as="sourcePoint"/>
                        <mxPoint x="3750" y="680" as="targetPoint"/>
                        <Array as="points">
                            <mxPoint x="3470" y="820"/>
                        </Array>
                    </mxGeometry>
                </mxCell>
                <mxCell id="383D4JDCLkwi9Y8iznMF-237" style="edgeStyle=none;html=1;entryX=0.5;entryY=0;entryDx=0;entryDy=0;fontSize=13;" parent="1" source="383D4JDCLkwi9Y8iznMF-78" target="383D4JDCLkwi9Y8iznMF-236" edge="1">
                    <mxGeometry relative="1" as="geometry"/>
                </mxCell>
                <mxCell id="383D4JDCLkwi9Y8iznMF-78" value="FOR line In info_file&amp;nbsp; STEP 1" style="rhombus;whiteSpace=wrap;html=1;fontSize=13;" parent="1" vertex="1">
                    <mxGeometry x="4050" y="630" width="220" height="60" as="geometry"/>
                </mxCell>
                <mxCell id="LKw_4Z-7U7-yW4VzZGcP-174" style="edgeStyle=none;html=1;entryX=0;entryY=0.5;entryDx=0;entryDy=0;fontColor=#F0F0F0;" parent="1" source="72" target="LKw_4Z-7U7-yW4VzZGcP-173" edge="1">
                    <mxGeometry relative="1" as="geometry"/>
                </mxCell>
                <mxCell id="LKw_4Z-7U7-yW4VzZGcP-178" style="edgeStyle=none;html=1;fontColor=#F0F0F0;" parent="1" source="72" target="LKw_4Z-7U7-yW4VzZGcP-177" edge="1">
                    <mxGeometry relative="1" as="geometry"/>
                </mxCell>
                <mxCell id="72" value="ELIF session status == 'admin' ?" style="rhombus;whiteSpace=wrap;html=1;labelBackgroundColor=none;fontSize=12;" parent="1" vertex="1">
                    <mxGeometry x="2330" y="280" width="240" height="80" as="geometry"/>
                </mxCell>
                <mxCell id="74" value="FALSE" style="text;html=1;align=center;verticalAlign=middle;resizable=0;points=[];autosize=1;strokeColor=none;fillColor=none;fontColor=#F0F0F0;" parent="1" vertex="1">
                    <mxGeometry x="2213.71" y="290" width="50" height="20" as="geometry"/>
                </mxCell>
                <mxCell id="111" style="edgeStyle=none;html=1;fontColor=#F0F0F0;" parent="1" source="75" target="94" edge="1">
                    <mxGeometry relative="1" as="geometry"/>
                </mxCell>
                <mxCell id="75" value="menu = '''What would you like to do?&lt;br&gt;&lt;br&gt;1. Add New Event&lt;br&gt;2. Modify Event&lt;br&gt;3. Event Information&lt;br&gt;4. Customer Records&lt;br&gt;5.Log Out&lt;br&gt;6.Exit&lt;br&gt;&lt;br&gt;Choice: '''" style="rounded=0;whiteSpace=wrap;html=1;labelBackgroundColor=none;fontSize=12;align=left;" parent="1" vertex="1">
                    <mxGeometry x="2030" y="490" width="410" height="170" as="geometry"/>
                </mxCell>
                <mxCell id="383D4JDCLkwi9Y8iznMF-110" style="edgeStyle=none;html=1;entryX=0.5;entryY=0;entryDx=0;entryDy=0;fontSize=13;" parent="1" source="383D4JDCLkwi9Y8iznMF-80" target="383D4JDCLkwi9Y8iznMF-82" edge="1">
                    <mxGeometry relative="1" as="geometry"/>
                </mxCell>
                <mxCell id="383D4JDCLkwi9Y8iznMF-80" value="&lt;div&gt;SPLIT line as acc_info with ',' as delimiter&lt;/div&gt;&lt;div&gt;&amp;nbsp; &amp;nbsp; &amp;nbsp; &amp;nbsp; &amp;nbsp; &amp;nbsp; STRIP acc_info with index of 0 as acc_info_name&lt;/div&gt;&lt;div&gt;&amp;nbsp; &amp;nbsp; &amp;nbsp; &amp;nbsp; &amp;nbsp; &amp;nbsp; STRIP acc_info with index of 1 as acc_info_password&lt;/div&gt;" style="rounded=0;whiteSpace=wrap;html=1;fontSize=13;" parent="1" vertex="1">
                    <mxGeometry x="4230" y="700" width="410" height="60" as="geometry"/>
                </mxCell>
                <mxCell id="383D4JDCLkwi9Y8iznMF-81" value="" style="endArrow=classic;html=1;fontSize=13;exitX=1;exitY=0.5;exitDx=0;exitDy=0;entryX=0.515;entryY=-0.041;entryDx=0;entryDy=0;entryPerimeter=0;" parent="1" source="383D4JDCLkwi9Y8iznMF-78" target="383D4JDCLkwi9Y8iznMF-80" edge="1">
                    <mxGeometry width="50" height="50" relative="1" as="geometry">
                        <mxPoint x="4340" y="810" as="sourcePoint"/>
                        <mxPoint x="4390" y="760" as="targetPoint"/>
                        <Array as="points">
                            <mxPoint x="4441" y="660"/>
                        </Array>
                    </mxGeometry>
                </mxCell>
                <mxCell id="383D4JDCLkwi9Y8iznMF-114" style="edgeStyle=none;html=1;entryX=0.5;entryY=0;entryDx=0;entryDy=0;fontSize=13;" parent="1" source="383D4JDCLkwi9Y8iznMF-82" target="383D4JDCLkwi9Y8iznMF-113" edge="1">
                    <mxGeometry relative="1" as="geometry"/>
                </mxCell>
                <mxCell id="383D4JDCLkwi9Y8iznMF-118" style="edgeStyle=none;html=1;entryX=0.412;entryY=0.069;entryDx=0;entryDy=0;fontSize=13;entryPerimeter=0;exitX=0.792;exitY=0.77;exitDx=0;exitDy=0;exitPerimeter=0;" parent="1" source="383D4JDCLkwi9Y8iznMF-82" target="383D4JDCLkwi9Y8iznMF-117" edge="1">
                    <mxGeometry relative="1" as="geometry"/>
                </mxCell>
                <mxCell id="383D4JDCLkwi9Y8iznMF-82" value="IF acc_name == acc_info_name?" style="rhombus;whiteSpace=wrap;html=1;fontSize=13;" parent="1" vertex="1">
                    <mxGeometry x="4303.75" y="780" width="262.5" height="60" as="geometry"/>
                </mxCell>
                <mxCell id="93" style="edgeStyle=none;html=1;entryX=0.5;entryY=0;entryDx=0;entryDy=0;fontColor=#F0F0F0;" parent="1" source="94" target="96" edge="1">
                    <mxGeometry relative="1" as="geometry"/>
                </mxCell>
                <mxCell id="94" value="DOWHILE TF == True" style="rhombus;whiteSpace=wrap;html=1;labelBackgroundColor=none;" parent="1" vertex="1">
                    <mxGeometry x="2133.71" y="710" width="190" height="80" as="geometry"/>
                </mxCell>
                <mxCell id="95" style="edgeStyle=none;html=1;fontColor=#F0F0F0;" parent="1" source="96" target="98" edge="1">
                    <mxGeometry relative="1" as="geometry"/>
                </mxCell>
                <mxCell id="96" value="Execute try clause" style="rounded=0;whiteSpace=wrap;html=1;labelBackgroundColor=none;fontColor=#F0F0F0;" parent="1" vertex="1">
                    <mxGeometry x="1978.71" y="790" width="120" height="60" as="geometry"/>
                </mxCell>
                <mxCell id="97" style="edgeStyle=none;html=1;fontColor=#F0F0F0;" parent="1" source="98" target="101" edge="1">
                    <mxGeometry relative="1" as="geometry"/>
                </mxCell>
                <mxCell id="98" value="PRINT (menu)&lt;br&gt;&lt;br&gt;Get answer" style="shape=parallelogram;perimeter=parallelogramPerimeter;whiteSpace=wrap;html=1;fixedSize=1;labelBackgroundColor=none;fontColor=#F0F0F0;" parent="1" vertex="1">
                    <mxGeometry x="1958.71" y="880" width="160" height="60" as="geometry"/>
                </mxCell>
                <mxCell id="99" style="edgeStyle=none;html=1;fontColor=#F0F0F0;" parent="1" source="101" target="103" edge="1">
                    <mxGeometry relative="1" as="geometry"/>
                </mxCell>
                <mxCell id="LKw_4Z-7U7-yW4VzZGcP-121" style="edgeStyle=none;html=1;fontColor=#F0F0F0;" parent="1" source="101" target="LKw_4Z-7U7-yW4VzZGcP-113" edge="1">
                    <mxGeometry relative="1" as="geometry"/>
                </mxCell>
                <mxCell id="101" value="exception occurs" style="rhombus;whiteSpace=wrap;html=1;labelBackgroundColor=none;fontColor=#F0F0F0;" parent="1" vertex="1">
                    <mxGeometry x="1963.71" y="970" width="150" height="80" as="geometry"/>
                </mxCell>
                <mxCell id="102" style="edgeStyle=none;html=1;entryX=0.5;entryY=1;entryDx=0;entryDy=0;fontColor=#F0F0F0;" parent="1" source="103" target="107" edge="1">
                    <mxGeometry relative="1" as="geometry"/>
                </mxCell>
                <mxCell id="103" value="PRINT ('Invalid option, please try again.')" style="shape=parallelogram;perimeter=parallelogramPerimeter;whiteSpace=wrap;html=1;fixedSize=1;labelBackgroundColor=none;fontColor=#F0F0F0;" parent="1" vertex="1">
                    <mxGeometry x="2086.21" y="1070" width="252.5" height="60" as="geometry"/>
                </mxCell>
                <mxCell id="104" style="edgeStyle=none;html=1;entryX=0.5;entryY=1;entryDx=0;entryDy=0;fontColor=#F0F0F0;" parent="1" source="105" target="158" edge="1">
                    <mxGeometry relative="1" as="geometry"/>
                </mxCell>
                <mxCell id="105" value="CALL FUNCTION&lt;br&gt;clear" style="shape=process;whiteSpace=wrap;html=1;backgroundOutline=1;labelBackgroundColor=none;fontColor=#F0F0F0;" parent="1" vertex="1">
                    <mxGeometry x="2153.71" y="870" width="150" height="60" as="geometry"/>
                </mxCell>
                <mxCell id="106" style="edgeStyle=none;html=1;entryX=0.553;entryY=1.05;entryDx=0;entryDy=0;entryPerimeter=0;fontColor=#F0F0F0;" parent="1" source="107" target="105" edge="1">
                    <mxGeometry relative="1" as="geometry"/>
                </mxCell>
                <mxCell id="107" value="sleeps for 0.75 seconds" style="rounded=0;whiteSpace=wrap;html=1;labelBackgroundColor=none;fontColor=#F0F0F0;" parent="1" vertex="1">
                    <mxGeometry x="2178.71" y="950" width="120" height="60" as="geometry"/>
                </mxCell>
                <mxCell id="110" value="TRUE" style="text;html=1;align=center;verticalAlign=middle;resizable=0;points=[];autosize=1;strokeColor=none;fillColor=none;fontColor=#F0F0F0;" parent="1" vertex="1">
                    <mxGeometry x="2103.71" y="1020" width="50" height="20" as="geometry"/>
                </mxCell>
                <mxCell id="113" value="TRUE" style="text;html=1;align=center;verticalAlign=middle;resizable=0;points=[];autosize=1;strokeColor=none;fillColor=none;" parent="1" vertex="1">
                    <mxGeometry x="2310" y="350" width="50" height="20" as="geometry"/>
                </mxCell>
                <mxCell id="383D4JDCLkwi9Y8iznMF-113" value="CONTINUE" style="rounded=0;whiteSpace=wrap;html=1;fontSize=13;" parent="1" vertex="1">
                    <mxGeometry x="4240" y="840" width="100" height="30" as="geometry"/>
                </mxCell>
                <mxCell id="LKw_4Z-7U7-yW4VzZGcP-122" style="edgeStyle=none;html=1;entryX=0.25;entryY=0;entryDx=0;entryDy=0;fontColor=#F0F0F0;" parent="1" source="LKw_4Z-7U7-yW4VzZGcP-113" target="LKw_4Z-7U7-yW4VzZGcP-117" edge="1">
                    <mxGeometry relative="1" as="geometry"/>
                </mxCell>
                <mxCell id="LKw_4Z-7U7-yW4VzZGcP-123" style="edgeStyle=none;html=1;fontColor=#F0F0F0;" parent="1" source="LKw_4Z-7U7-yW4VzZGcP-113" target="LKw_4Z-7U7-yW4VzZGcP-114" edge="1">
                    <mxGeometry relative="1" as="geometry"/>
                </mxCell>
                <mxCell id="LKw_4Z-7U7-yW4VzZGcP-113" value="IF answer == 1 ?" style="rhombus;whiteSpace=wrap;html=1;labelBackgroundColor=none;fontColor=#F0F0F0;" parent="1" vertex="1">
                    <mxGeometry x="1810" y="1070" width="170" height="80" as="geometry"/>
                </mxCell>
                <mxCell id="LKw_4Z-7U7-yW4VzZGcP-124" style="edgeStyle=none;html=1;fontColor=#F0F0F0;" parent="1" source="LKw_4Z-7U7-yW4VzZGcP-114" target="LKw_4Z-7U7-yW4VzZGcP-118" edge="1">
                    <mxGeometry relative="1" as="geometry"/>
                </mxCell>
                <mxCell id="LKw_4Z-7U7-yW4VzZGcP-125" style="edgeStyle=none;html=1;entryX=1;entryY=0;entryDx=0;entryDy=0;fontColor=#F0F0F0;" parent="1" source="LKw_4Z-7U7-yW4VzZGcP-114" target="LKw_4Z-7U7-yW4VzZGcP-115" edge="1">
                    <mxGeometry relative="1" as="geometry"/>
                </mxCell>
                <mxCell id="LKw_4Z-7U7-yW4VzZGcP-114" value="ELIF answer == 2 ?" style="rhombus;whiteSpace=wrap;html=1;labelBackgroundColor=none;fontColor=#F0F0F0;" parent="1" vertex="1">
                    <mxGeometry x="1680" y="1160" width="170" height="80" as="geometry"/>
                </mxCell>
                <mxCell id="LKw_4Z-7U7-yW4VzZGcP-126" style="edgeStyle=none;html=1;fontColor=#F0F0F0;" parent="1" source="LKw_4Z-7U7-yW4VzZGcP-115" target="LKw_4Z-7U7-yW4VzZGcP-119" edge="1">
                    <mxGeometry relative="1" as="geometry"/>
                </mxCell>
                <mxCell id="LKw_4Z-7U7-yW4VzZGcP-127" style="edgeStyle=none;html=1;fontColor=#F0F0F0;" parent="1" source="LKw_4Z-7U7-yW4VzZGcP-115" target="LKw_4Z-7U7-yW4VzZGcP-116" edge="1">
                    <mxGeometry relative="1" as="geometry"/>
                </mxCell>
                <mxCell id="LKw_4Z-7U7-yW4VzZGcP-115" value="ELIF answer == 3 ?" style="rhombus;whiteSpace=wrap;html=1;labelBackgroundColor=none;fontColor=#F0F0F0;" parent="1" vertex="1">
                    <mxGeometry x="1570" y="1250" width="170" height="80" as="geometry"/>
                </mxCell>
                <mxCell id="LKw_4Z-7U7-yW4VzZGcP-128" style="edgeStyle=none;html=1;fontColor=#F0F0F0;" parent="1" source="LKw_4Z-7U7-yW4VzZGcP-116" target="LKw_4Z-7U7-yW4VzZGcP-120" edge="1">
                    <mxGeometry relative="1" as="geometry"/>
                </mxCell>
                <mxCell id="LKw_4Z-7U7-yW4VzZGcP-150" style="edgeStyle=none;html=1;entryX=1;entryY=0;entryDx=0;entryDy=0;fontColor=#F0F0F0;" parent="1" source="LKw_4Z-7U7-yW4VzZGcP-116" target="LKw_4Z-7U7-yW4VzZGcP-138" edge="1">
                    <mxGeometry relative="1" as="geometry"/>
                </mxCell>
                <mxCell id="LKw_4Z-7U7-yW4VzZGcP-116" value="ELIF answer == 4 ?" style="rhombus;whiteSpace=wrap;html=1;labelBackgroundColor=none;fontColor=#F0F0F0;" parent="1" vertex="1">
                    <mxGeometry x="1470" y="1340" width="170" height="80" as="geometry"/>
                </mxCell>
                <mxCell id="383D4JDCLkwi9Y8iznMF-115" value="False" style="text;html=1;align=center;verticalAlign=middle;resizable=0;points=[];autosize=1;strokeColor=none;fillColor=none;fontSize=13;" parent="1" vertex="1">
                    <mxGeometry x="4270" y="810" width="50" height="20" as="geometry"/>
                </mxCell>
                <mxCell id="LKw_4Z-7U7-yW4VzZGcP-145" style="edgeStyle=none;html=1;entryX=0;entryY=0.5;entryDx=0;entryDy=0;fontColor=#F0F0F0;" parent="1" source="LKw_4Z-7U7-yW4VzZGcP-117" target="LKw_4Z-7U7-yW4VzZGcP-140" edge="1">
                    <mxGeometry relative="1" as="geometry"/>
                </mxCell>
                <mxCell id="LKw_4Z-7U7-yW4VzZGcP-117" value="CALL FUNCTION&lt;br&gt;add_event" style="shape=process;whiteSpace=wrap;html=1;backgroundOutline=1;labelBackgroundColor=none;fontColor=#F0F0F0;" parent="1" vertex="1">
                    <mxGeometry x="1980" y="1150" width="140" height="60" as="geometry"/>
                </mxCell>
                <mxCell id="LKw_4Z-7U7-yW4VzZGcP-146" style="edgeStyle=none;html=1;fontColor=#F0F0F0;" parent="1" source="LKw_4Z-7U7-yW4VzZGcP-118" target="LKw_4Z-7U7-yW4VzZGcP-141" edge="1">
                    <mxGeometry relative="1" as="geometry"/>
                </mxCell>
                <mxCell id="LKw_4Z-7U7-yW4VzZGcP-118" value="CALL FUNCTION&lt;br&gt;modify_event" style="shape=process;whiteSpace=wrap;html=1;backgroundOutline=1;labelBackgroundColor=none;fontColor=#F0F0F0;" parent="1" vertex="1">
                    <mxGeometry x="1880" y="1240" width="140" height="60" as="geometry"/>
                </mxCell>
                <mxCell id="LKw_4Z-7U7-yW4VzZGcP-147" style="edgeStyle=none;html=1;fontColor=#F0F0F0;" parent="1" source="LKw_4Z-7U7-yW4VzZGcP-119" target="LKw_4Z-7U7-yW4VzZGcP-142" edge="1">
                    <mxGeometry relative="1" as="geometry"/>
                </mxCell>
                <mxCell id="LKw_4Z-7U7-yW4VzZGcP-119" value="CALL FUNCTION&lt;br&gt;list_event_menu" style="shape=process;whiteSpace=wrap;html=1;backgroundOutline=1;labelBackgroundColor=none;fontColor=#F0F0F0;" parent="1" vertex="1">
                    <mxGeometry x="1777.5" y="1330" width="140" height="60" as="geometry"/>
                </mxCell>
                <mxCell id="LKw_4Z-7U7-yW4VzZGcP-148" style="edgeStyle=none;html=1;fontColor=#F0F0F0;" parent="1" source="LKw_4Z-7U7-yW4VzZGcP-120" target="LKw_4Z-7U7-yW4VzZGcP-143" edge="1">
                    <mxGeometry relative="1" as="geometry"/>
                </mxCell>
                <mxCell id="LKw_4Z-7U7-yW4VzZGcP-120" value="CALL FUNCTION customer_record" style="shape=process;whiteSpace=wrap;html=1;backgroundOutline=1;labelBackgroundColor=none;fontColor=#F0F0F0;" parent="1" vertex="1">
                    <mxGeometry x="1680" y="1420" width="150" height="70" as="geometry"/>
                </mxCell>
                <mxCell id="383D4JDCLkwi9Y8iznMF-116" value="" style="endArrow=classic;html=1;fontSize=13;entryX=0.5;entryY=1;entryDx=0;entryDy=0;exitX=0;exitY=0.5;exitDx=0;exitDy=0;" parent="1" source="383D4JDCLkwi9Y8iznMF-113" target="383D4JDCLkwi9Y8iznMF-78" edge="1">
                    <mxGeometry width="50" height="50" relative="1" as="geometry">
                        <mxPoint x="4370" y="940" as="sourcePoint"/>
                        <mxPoint x="4420" y="890" as="targetPoint"/>
                        <Array as="points">
                            <mxPoint x="4160" y="855"/>
                        </Array>
                    </mxGeometry>
                </mxCell>
                <mxCell id="383D4JDCLkwi9Y8iznMF-117" value="DOWHILE TF == True" style="rhombus;whiteSpace=wrap;html=1;fontSize=13;" parent="1" vertex="1">
                    <mxGeometry x="4520" y="850" width="150" height="80" as="geometry"/>
                </mxCell>
                <mxCell id="383D4JDCLkwi9Y8iznMF-119" value="True" style="text;html=1;align=center;verticalAlign=middle;resizable=0;points=[];autosize=1;strokeColor=none;fillColor=none;fontSize=13;" parent="1" vertex="1">
                    <mxGeometry x="4550" y="820" width="40" height="20" as="geometry"/>
                </mxCell>
                <mxCell id="383D4JDCLkwi9Y8iznMF-120" value="True" style="text;html=1;align=center;verticalAlign=middle;resizable=0;points=[];autosize=1;strokeColor=none;fillColor=none;fontSize=13;" parent="1" vertex="1">
                    <mxGeometry x="4310" y="640" width="40" height="20" as="geometry"/>
                </mxCell>
                <mxCell id="383D4JDCLkwi9Y8iznMF-126" style="edgeStyle=none;html=1;entryX=0.5;entryY=0;entryDx=0;entryDy=0;fontSize=13;" parent="1" source="383D4JDCLkwi9Y8iznMF-121" target="383D4JDCLkwi9Y8iznMF-125" edge="1">
                    <mxGeometry relative="1" as="geometry"/>
                </mxCell>
                <mxCell id="383D4JDCLkwi9Y8iznMF-121" value="&lt;div&gt;PRINT('Please enter your password')&lt;/div&gt;&lt;div&gt;Get acc_password&lt;/div&gt;" style="shape=parallelogram;perimeter=parallelogramPerimeter;whiteSpace=wrap;html=1;fixedSize=1;fontSize=13;" parent="1" vertex="1">
                    <mxGeometry x="4620" y="930" width="280" height="50" as="geometry"/>
                </mxCell>
                <mxCell id="LKw_4Z-7U7-yW4VzZGcP-129" value="TRUE" style="text;html=1;align=center;verticalAlign=middle;resizable=0;points=[];autosize=1;strokeColor=none;fillColor=none;fontColor=#F0F0F0;" parent="1" vertex="1">
                    <mxGeometry x="1977.5" y="1120" width="50" height="20" as="geometry"/>
                </mxCell>
                <mxCell id="383D4JDCLkwi9Y8iznMF-123" value="" style="endArrow=classic;html=1;fontSize=13;entryX=0.5;entryY=0;entryDx=0;entryDy=0;exitX=1;exitY=0.5;exitDx=0;exitDy=0;" parent="1" source="383D4JDCLkwi9Y8iznMF-117" target="383D4JDCLkwi9Y8iznMF-121" edge="1">
                    <mxGeometry width="50" height="50" relative="1" as="geometry">
                        <mxPoint x="4700" y="980" as="sourcePoint"/>
                        <mxPoint x="4750" y="930" as="targetPoint"/>
                        <Array as="points">
                            <mxPoint x="4760" y="890"/>
                        </Array>
                    </mxGeometry>
                </mxCell>
                <mxCell id="LKw_4Z-7U7-yW4VzZGcP-130" value="TRUE" style="text;html=1;align=center;verticalAlign=middle;resizable=0;points=[];autosize=1;strokeColor=none;fillColor=none;fontColor=#F0F0F0;" parent="1" vertex="1">
                    <mxGeometry x="1840" y="1210" width="50" height="20" as="geometry"/>
                </mxCell>
                <mxCell id="LKw_4Z-7U7-yW4VzZGcP-131" value="TRUE" style="text;html=1;align=center;verticalAlign=middle;resizable=0;points=[];autosize=1;strokeColor=none;fillColor=none;fontColor=#F0F0F0;" parent="1" vertex="1">
                    <mxGeometry x="1730" y="1300" width="50" height="20" as="geometry"/>
                </mxCell>
                <mxCell id="LKw_4Z-7U7-yW4VzZGcP-132" value="TRUE" style="text;html=1;align=center;verticalAlign=middle;resizable=0;points=[];autosize=1;strokeColor=none;fillColor=none;fontColor=#F0F0F0;" parent="1" vertex="1">
                    <mxGeometry x="1635" y="1390" width="50" height="20" as="geometry"/>
                </mxCell>
                <mxCell id="383D4JDCLkwi9Y8iznMF-124" value="True" style="text;html=1;align=center;verticalAlign=middle;resizable=0;points=[];autosize=1;strokeColor=none;fillColor=none;fontSize=13;" parent="1" vertex="1">
                    <mxGeometry x="4700" y="870" width="40" height="20" as="geometry"/>
                </mxCell>
                <mxCell id="LKw_4Z-7U7-yW4VzZGcP-134" value="FALSE" style="text;html=1;align=center;verticalAlign=middle;resizable=0;points=[];autosize=1;strokeColor=none;fillColor=none;fontColor=#F0F0F0;" parent="1" vertex="1">
                    <mxGeometry x="1908.71" y="1040" width="50" height="20" as="geometry"/>
                </mxCell>
                <mxCell id="LKw_4Z-7U7-yW4VzZGcP-135" value="FALSE" style="text;html=1;align=center;verticalAlign=middle;resizable=0;points=[];autosize=1;strokeColor=none;fillColor=none;fontColor=#F0F0F0;" parent="1" vertex="1">
                    <mxGeometry x="1777.5" y="1130" width="50" height="20" as="geometry"/>
                </mxCell>
                <mxCell id="LKw_4Z-7U7-yW4VzZGcP-136" value="FALSE" style="text;html=1;align=center;verticalAlign=middle;resizable=0;points=[];autosize=1;strokeColor=none;fillColor=none;fontColor=#F0F0F0;" parent="1" vertex="1">
                    <mxGeometry x="1660" y="1230" width="50" height="20" as="geometry"/>
                </mxCell>
                <mxCell id="LKw_4Z-7U7-yW4VzZGcP-137" value="FALSE" style="text;html=1;align=center;verticalAlign=middle;resizable=0;points=[];autosize=1;strokeColor=none;fillColor=none;fontColor=#F0F0F0;" parent="1" vertex="1">
                    <mxGeometry x="1545" y="1310" width="50" height="20" as="geometry"/>
                </mxCell>
                <mxCell id="LKw_4Z-7U7-yW4VzZGcP-151" style="edgeStyle=none;html=1;entryX=0.25;entryY=0;entryDx=0;entryDy=0;fontColor=#F0F0F0;" parent="1" source="LKw_4Z-7U7-yW4VzZGcP-138" target="LKw_4Z-7U7-yW4VzZGcP-139" edge="1">
                    <mxGeometry relative="1" as="geometry"/>
                </mxCell>
                <mxCell id="LKw_4Z-7U7-yW4VzZGcP-158" style="edgeStyle=none;html=1;entryX=1;entryY=0;entryDx=0;entryDy=0;fontColor=#F0F0F0;" parent="1" source="LKw_4Z-7U7-yW4VzZGcP-138" target="LKw_4Z-7U7-yW4VzZGcP-154" edge="1">
                    <mxGeometry relative="1" as="geometry"/>
                </mxCell>
                <mxCell id="LKw_4Z-7U7-yW4VzZGcP-138" value="ELIF answer == 5 ?" style="rhombus;whiteSpace=wrap;html=1;labelBackgroundColor=none;fontColor=#F0F0F0;" parent="1" vertex="1">
                    <mxGeometry x="1380" y="1460" width="170" height="80" as="geometry"/>
                </mxCell>
                <mxCell id="383D4JDCLkwi9Y8iznMF-128" style="edgeStyle=none;html=1;entryX=0.518;entryY=-0.036;entryDx=0;entryDy=0;entryPerimeter=0;fontSize=13;" parent="1" source="383D4JDCLkwi9Y8iznMF-125" target="383D4JDCLkwi9Y8iznMF-127" edge="1">
                    <mxGeometry relative="1" as="geometry"/>
                </mxCell>
                <mxCell id="383D4JDCLkwi9Y8iznMF-134" style="edgeStyle=none;html=1;entryX=0.338;entryY=0.151;entryDx=0;entryDy=0;entryPerimeter=0;fontSize=13;" parent="1" source="383D4JDCLkwi9Y8iznMF-125" target="383D4JDCLkwi9Y8iznMF-133" edge="1">
                    <mxGeometry relative="1" as="geometry"/>
                </mxCell>
                <mxCell id="383D4JDCLkwi9Y8iznMF-125" value="IF acc_password == &quot;&quot; ?" style="rhombus;whiteSpace=wrap;html=1;fontSize=13;" parent="1" vertex="1">
                    <mxGeometry x="4675" y="1010" width="170" height="80" as="geometry"/>
                </mxCell>
                <mxCell id="LKw_4Z-7U7-yW4VzZGcP-149" style="edgeStyle=none;html=1;fontColor=#F0F0F0;" parent="1" source="LKw_4Z-7U7-yW4VzZGcP-139" target="LKw_4Z-7U7-yW4VzZGcP-144" edge="1">
                    <mxGeometry relative="1" as="geometry"/>
                </mxCell>
                <mxCell id="LKw_4Z-7U7-yW4VzZGcP-139" value="CALL FUNCTION log_out" style="shape=process;whiteSpace=wrap;html=1;backgroundOutline=1;labelBackgroundColor=none;fontColor=#F0F0F0;" parent="1" vertex="1">
                    <mxGeometry x="1585" y="1540" width="150" height="70" as="geometry"/>
                </mxCell>
                <mxCell id="LKw_4Z-7U7-yW4VzZGcP-140" value="RETURN" style="ellipse;whiteSpace=wrap;html=1;labelBackgroundColor=none;fontColor=#F0F0F0;" parent="1" vertex="1">
                    <mxGeometry x="2190" y="1160" width="120" height="50" as="geometry"/>
                </mxCell>
                <mxCell id="LKw_4Z-7U7-yW4VzZGcP-141" value="RETURN" style="ellipse;whiteSpace=wrap;html=1;labelBackgroundColor=none;fontColor=#F0F0F0;" parent="1" vertex="1">
                    <mxGeometry x="2098.71" y="1245" width="120" height="50" as="geometry"/>
                </mxCell>
                <mxCell id="LKw_4Z-7U7-yW4VzZGcP-142" value="RETURN" style="ellipse;whiteSpace=wrap;html=1;labelBackgroundColor=none;fontColor=#F0F0F0;" parent="1" vertex="1">
                    <mxGeometry x="1998.71" y="1330" width="120" height="50" as="geometry"/>
                </mxCell>
                <mxCell id="LKw_4Z-7U7-yW4VzZGcP-143" value="RETURN" style="ellipse;whiteSpace=wrap;html=1;labelBackgroundColor=none;fontColor=#F0F0F0;" parent="1" vertex="1">
                    <mxGeometry x="1917.5" y="1430" width="120" height="50" as="geometry"/>
                </mxCell>
                <mxCell id="383D4JDCLkwi9Y8iznMF-130" style="edgeStyle=none;html=1;entryX=0.575;entryY=0.062;entryDx=0;entryDy=0;entryPerimeter=0;fontSize=13;" parent="1" source="383D4JDCLkwi9Y8iznMF-127" target="383D4JDCLkwi9Y8iznMF-129" edge="1">
                    <mxGeometry relative="1" as="geometry"/>
                </mxCell>
                <mxCell id="383D4JDCLkwi9Y8iznMF-127" value="&lt;div&gt;PRINT('No password entered, please try again.')&lt;/div&gt;&lt;div&gt;sleeps for 0.75 seconds&lt;/div&gt;" style="shape=parallelogram;perimeter=parallelogramPerimeter;whiteSpace=wrap;html=1;fixedSize=1;fontSize=13;" parent="1" vertex="1">
                    <mxGeometry x="4408.13" y="1110" width="323.75" height="50" as="geometry"/>
                </mxCell>
                <mxCell id="LKw_4Z-7U7-yW4VzZGcP-144" value="RETURN" style="ellipse;whiteSpace=wrap;html=1;labelBackgroundColor=none;fontColor=#F0F0F0;" parent="1" vertex="1">
                    <mxGeometry x="1800" y="1550" width="120" height="50" as="geometry"/>
                </mxCell>
                <mxCell id="LKw_4Z-7U7-yW4VzZGcP-152" value="FALSE" style="text;html=1;align=center;verticalAlign=middle;resizable=0;points=[];autosize=1;strokeColor=none;fillColor=none;fontColor=#F0F0F0;" parent="1" vertex="1">
                    <mxGeometry x="1470" y="1430" width="50" height="20" as="geometry"/>
                </mxCell>
                <mxCell id="LKw_4Z-7U7-yW4VzZGcP-153" value="TRUE" style="text;html=1;align=center;verticalAlign=middle;resizable=0;points=[];autosize=1;strokeColor=none;fillColor=none;fontColor=#F0F0F0;" parent="1" vertex="1">
                    <mxGeometry x="1560" y="1500" width="50" height="20" as="geometry"/>
                </mxCell>
                <mxCell id="LKw_4Z-7U7-yW4VzZGcP-159" style="edgeStyle=none;html=1;fontColor=#F0F0F0;" parent="1" source="LKw_4Z-7U7-yW4VzZGcP-154" target="LKw_4Z-7U7-yW4VzZGcP-155" edge="1">
                    <mxGeometry relative="1" as="geometry"/>
                </mxCell>
                <mxCell id="LKw_4Z-7U7-yW4VzZGcP-170" style="edgeStyle=none;html=1;fontColor=#F0F0F0;" parent="1" source="LKw_4Z-7U7-yW4VzZGcP-154" target="LKw_4Z-7U7-yW4VzZGcP-164" edge="1">
                    <mxGeometry relative="1" as="geometry"/>
                </mxCell>
                <mxCell id="LKw_4Z-7U7-yW4VzZGcP-154" value="ELIF answer == 6 ?" style="rhombus;whiteSpace=wrap;html=1;labelBackgroundColor=none;fontColor=#F0F0F0;" parent="1" vertex="1">
                    <mxGeometry x="1270" y="1580" width="170" height="80" as="geometry"/>
                </mxCell>
                <mxCell id="LKw_4Z-7U7-yW4VzZGcP-160" style="edgeStyle=none;html=1;entryX=0;entryY=0.5;entryDx=0;entryDy=0;fontColor=#F0F0F0;" parent="1" source="LKw_4Z-7U7-yW4VzZGcP-155" target="LKw_4Z-7U7-yW4VzZGcP-156" edge="1">
                    <mxGeometry relative="1" as="geometry"/>
                </mxCell>
                <mxCell id="LKw_4Z-7U7-yW4VzZGcP-155" value="CALL FUNCTION clear&lt;br&gt;&lt;br&gt;CALL FUNCTION quit" style="shape=process;whiteSpace=wrap;html=1;backgroundOutline=1;labelBackgroundColor=none;fontColor=#F0F0F0;" parent="1" vertex="1">
                    <mxGeometry x="1420" y="1680" width="170" height="70" as="geometry"/>
                </mxCell>
                <mxCell id="LKw_4Z-7U7-yW4VzZGcP-156" value="END" style="ellipse;whiteSpace=wrap;html=1;labelBackgroundColor=none;fontColor=#F0F0F0;" parent="1" vertex="1">
                    <mxGeometry x="1640" y="1690" width="120" height="50" as="geometry"/>
                </mxCell>
                <mxCell id="383D4JDCLkwi9Y8iznMF-129" value="CONTINUE" style="rounded=0;whiteSpace=wrap;html=1;fontSize=13;" parent="1" vertex="1">
                    <mxGeometry x="4510" y="1185" width="90" height="30" as="geometry"/>
                </mxCell>
                <mxCell id="LKw_4Z-7U7-yW4VzZGcP-161" value="TRUE" style="text;html=1;align=center;verticalAlign=middle;resizable=0;points=[];autosize=1;strokeColor=none;fillColor=none;fontColor=#F0F0F0;" parent="1" vertex="1">
                    <mxGeometry x="1435" y="1640" width="50" height="20" as="geometry"/>
                </mxCell>
                <mxCell id="LKw_4Z-7U7-yW4VzZGcP-162" value="FALSE" style="text;html=1;align=center;verticalAlign=middle;resizable=0;points=[];autosize=1;strokeColor=none;fillColor=none;fontColor=#F0F0F0;" parent="1" vertex="1">
                    <mxGeometry x="1367.5" y="1550" width="50" height="20" as="geometry"/>
                </mxCell>
                <mxCell id="383D4JDCLkwi9Y8iznMF-131" value="" style="endArrow=classic;html=1;fontSize=13;entryX=0;entryY=1;entryDx=0;entryDy=0;exitX=0;exitY=0.5;exitDx=0;exitDy=0;" parent="1" source="383D4JDCLkwi9Y8iznMF-129" target="383D4JDCLkwi9Y8iznMF-117" edge="1">
                    <mxGeometry width="50" height="50" relative="1" as="geometry">
                        <mxPoint x="4590" y="1080" as="sourcePoint"/>
                        <mxPoint x="4640" y="1030" as="targetPoint"/>
                        <Array as="points">
                            <mxPoint x="4340" y="1200"/>
                            <mxPoint x="4340" y="1000"/>
                        </Array>
                    </mxGeometry>
                </mxCell>
                <mxCell id="LKw_4Z-7U7-yW4VzZGcP-163" style="edgeStyle=none;html=1;fontColor=#F0F0F0;" parent="1" source="LKw_4Z-7U7-yW4VzZGcP-164" target="LKw_4Z-7U7-yW4VzZGcP-166" edge="1">
                    <mxGeometry relative="1" as="geometry"/>
                </mxCell>
                <mxCell id="LKw_4Z-7U7-yW4VzZGcP-164" value="PRINT ('Invalid option,please try again.')" style="shape=parallelogram;perimeter=parallelogramPerimeter;whiteSpace=wrap;html=1;fixedSize=1;labelBackgroundColor=none;fontColor=#F0F0F0;" parent="1" vertex="1">
                    <mxGeometry x="1145" y="1720" width="200" height="70" as="geometry"/>
                </mxCell>
                <mxCell id="LKw_4Z-7U7-yW4VzZGcP-165" style="edgeStyle=none;html=1;fontColor=#F0F0F0;" parent="1" source="LKw_4Z-7U7-yW4VzZGcP-166" target="LKw_4Z-7U7-yW4VzZGcP-168" edge="1">
                    <mxGeometry relative="1" as="geometry"/>
                </mxCell>
                <mxCell id="LKw_4Z-7U7-yW4VzZGcP-166" value="sleeps for 0.75 seconds" style="rounded=0;whiteSpace=wrap;html=1;labelBackgroundColor=none;fontColor=#F0F0F0;" parent="1" vertex="1">
                    <mxGeometry x="1180" y="1820" width="120" height="60" as="geometry"/>
                </mxCell>
                <mxCell id="LKw_4Z-7U7-yW4VzZGcP-167" style="edgeStyle=none;html=1;fontColor=#F0F0F0;" parent="1" source="LKw_4Z-7U7-yW4VzZGcP-168" target="LKw_4Z-7U7-yW4VzZGcP-169" edge="1">
                    <mxGeometry relative="1" as="geometry"/>
                </mxCell>
                <mxCell id="LKw_4Z-7U7-yW4VzZGcP-168" value="CALL FUNCTION&lt;br&gt;clear" style="shape=process;whiteSpace=wrap;html=1;backgroundOutline=1;labelBackgroundColor=none;fontColor=#F0F0F0;" parent="1" vertex="1">
                    <mxGeometry x="1175" y="1910" width="140" height="60" as="geometry"/>
                </mxCell>
                <mxCell id="LKw_4Z-7U7-yW4VzZGcP-169" value="CONTINUE" style="rounded=0;whiteSpace=wrap;html=1;labelBackgroundColor=none;fontColor=#F0F0F0;" parent="1" vertex="1">
                    <mxGeometry x="1180" y="2000" width="120" height="60" as="geometry"/>
                </mxCell>
                <mxCell id="LKw_4Z-7U7-yW4VzZGcP-171" value="FALSE" style="text;html=1;align=center;verticalAlign=middle;resizable=0;points=[];autosize=1;strokeColor=none;fillColor=none;fontColor=#F0F0F0;" parent="1" vertex="1">
                    <mxGeometry x="1240" y="1680" width="50" height="20" as="geometry"/>
                </mxCell>
                <mxCell id="383D4JDCLkwi9Y8iznMF-132" value="True" style="text;html=1;align=center;verticalAlign=middle;resizable=0;points=[];autosize=1;strokeColor=none;fillColor=none;fontSize=13;" parent="1" vertex="1">
                    <mxGeometry x="4620" y="1060" width="40" height="20" as="geometry"/>
                </mxCell>
                <mxCell id="LKw_4Z-7U7-yW4VzZGcP-172" style="edgeStyle=none;html=1;fontColor=#F0F0F0;entryX=0;entryY=0.5;entryDx=0;entryDy=0;" parent="1" target="94" edge="1">
                    <mxGeometry relative="1" as="geometry">
                        <mxPoint x="1990" y="740" as="targetPoint"/>
                        <Array as="points">
                            <mxPoint x="1110.73" y="2038"/>
                            <mxPoint x="1111" y="1720"/>
                            <mxPoint x="1700" y="1090"/>
                            <mxPoint x="1990" y="760"/>
                        </Array>
                        <mxPoint x="1180.73" y="2038" as="sourcePoint"/>
                    </mxGeometry>
                </mxCell>
                <mxCell id="383D4JDCLkwi9Y8iznMF-138" style="edgeStyle=none;html=1;entryX=0;entryY=0.5;entryDx=0;entryDy=0;fontSize=13;" parent="1" source="383D4JDCLkwi9Y8iznMF-133" target="383D4JDCLkwi9Y8iznMF-137" edge="1">
                    <mxGeometry relative="1" as="geometry"/>
                </mxCell>
                <mxCell id="383D4JDCLkwi9Y8iznMF-148" style="edgeStyle=none;html=1;entryX=0.5;entryY=0;entryDx=0;entryDy=0;fontSize=13;" parent="1" source="383D4JDCLkwi9Y8iznMF-133" target="383D4JDCLkwi9Y8iznMF-147" edge="1">
                    <mxGeometry relative="1" as="geometry"/>
                </mxCell>
                <mxCell id="383D4JDCLkwi9Y8iznMF-133" value="ELIF&amp;nbsp;acc_password == acc_info_password?" style="rhombus;whiteSpace=wrap;html=1;fontSize=13;" parent="1" vertex="1">
                    <mxGeometry x="4845" y="1075" width="190" height="85" as="geometry"/>
                </mxCell>
                <mxCell id="383D4JDCLkwi9Y8iznMF-135" value="False" style="text;html=1;align=center;verticalAlign=middle;resizable=0;points=[];autosize=1;strokeColor=none;fillColor=none;fontSize=13;" parent="1" vertex="1">
                    <mxGeometry x="4845" y="1055" width="50" height="20" as="geometry"/>
                </mxCell>
                <mxCell id="LKw_4Z-7U7-yW4VzZGcP-181" style="edgeStyle=none;html=1;fontColor=#F0F0F0;" parent="1" source="LKw_4Z-7U7-yW4VzZGcP-173" target="LKw_4Z-7U7-yW4VzZGcP-180" edge="1">
                    <mxGeometry relative="1" as="geometry"/>
                </mxCell>
                <mxCell id="LKw_4Z-7U7-yW4VzZGcP-173" value="ELIF session status == 'registered' ?" style="rhombus;whiteSpace=wrap;html=1;labelBackgroundColor=none;fontSize=12;" parent="1" vertex="1">
                    <mxGeometry x="2920" y="280" width="240" height="80" as="geometry"/>
                </mxCell>
                <mxCell id="LKw_4Z-7U7-yW4VzZGcP-175" value="FALSE" style="text;html=1;align=center;verticalAlign=middle;resizable=0;points=[];autosize=1;strokeColor=none;fillColor=none;fontColor=#F0F0F0;" parent="1" vertex="1">
                    <mxGeometry x="2680" y="290" width="50" height="20" as="geometry"/>
                </mxCell>
                <mxCell id="LKw_4Z-7U7-yW4VzZGcP-179" style="edgeStyle=none;html=1;entryX=0.548;entryY=0.006;entryDx=0;entryDy=0;entryPerimeter=0;fontColor=#F0F0F0;" parent="1" source="LKw_4Z-7U7-yW4VzZGcP-177" target="75" edge="1">
                    <mxGeometry relative="1" as="geometry"/>
                </mxCell>
                <mxCell id="LKw_4Z-7U7-yW4VzZGcP-177" value="&lt;span style=&quot;text-align: left&quot;&gt;PRINT (f'Welcome to the OEMS admin menu, {acc_name}')&lt;/span&gt;" style="shape=parallelogram;perimeter=parallelogramPerimeter;whiteSpace=wrap;html=1;fixedSize=1;labelBackgroundColor=none;fontColor=#F0F0F0;" parent="1" vertex="1">
                    <mxGeometry x="2153.71" y="390" width="286.29" height="60" as="geometry"/>
                </mxCell>
                <mxCell id="383D4JDCLkwi9Y8iznMF-141" style="edgeStyle=none;html=1;entryX=0;entryY=0.5;entryDx=0;entryDy=0;fontSize=13;" parent="1" source="383D4JDCLkwi9Y8iznMF-137" target="383D4JDCLkwi9Y8iznMF-140" edge="1">
                    <mxGeometry relative="1" as="geometry"/>
                </mxCell>
                <mxCell id="383D4JDCLkwi9Y8iznMF-137" value="CALL FUNCTION clear" style="shape=process;whiteSpace=wrap;html=1;backgroundOutline=1;fontSize=13;" parent="1" vertex="1">
                    <mxGeometry x="5090" y="1087.5" width="120" height="60" as="geometry"/>
                </mxCell>
                <mxCell id="383D4JDCLkwi9Y8iznMF-139" value="False" style="text;html=1;align=center;verticalAlign=middle;resizable=0;points=[];autosize=1;strokeColor=none;fillColor=none;fontSize=13;" parent="1" vertex="1">
                    <mxGeometry x="5035" y="1090" width="50" height="20" as="geometry"/>
                </mxCell>
                <mxCell id="383D4JDCLkwi9Y8iznMF-143" style="edgeStyle=none;html=1;entryX=0.5;entryY=1;entryDx=0;entryDy=0;fontSize=13;" parent="1" source="383D4JDCLkwi9Y8iznMF-140" target="383D4JDCLkwi9Y8iznMF-142" edge="1">
                    <mxGeometry relative="1" as="geometry"/>
                </mxCell>
                <mxCell id="383D4JDCLkwi9Y8iznMF-140" value="sleeps for 0.75 seconds&lt;br&gt;PRINT('OEMS Login')&lt;br&gt;PRINT('Your password is incorrect, please try again.')" style="shape=parallelogram;perimeter=parallelogramPerimeter;whiteSpace=wrap;html=1;fixedSize=1;fontSize=13;" parent="1" vertex="1">
                    <mxGeometry x="5240" y="1082.5" width="300" height="70" as="geometry"/>
                </mxCell>
                <mxCell id="383D4JDCLkwi9Y8iznMF-142" value="CONTINUE" style="rounded=0;whiteSpace=wrap;html=1;fontSize=13;" parent="1" vertex="1">
                    <mxGeometry x="5345" y="1002.5" width="90" height="37.5" as="geometry"/>
                </mxCell>
                <mxCell id="114" style="edgeStyle=none;html=1;" parent="1" source="LKw_4Z-7U7-yW4VzZGcP-180" target="LKw_4Z-7U7-yW4VzZGcP-182" edge="1">
                    <mxGeometry relative="1" as="geometry"/>
                </mxCell>
                <mxCell id="LKw_4Z-7U7-yW4VzZGcP-180" value="&lt;span style=&quot;text-align: left&quot;&gt;PRINT (f'Welcome to the OEMS admin menu, {acc_name}')&lt;/span&gt;" style="shape=parallelogram;perimeter=parallelogramPerimeter;whiteSpace=wrap;html=1;fixedSize=1;labelBackgroundColor=none;fontColor=#F0F0F0;" parent="1" vertex="1">
                    <mxGeometry x="2720" y="390" width="286.29" height="60" as="geometry"/>
                </mxCell>
                <mxCell id="383D4JDCLkwi9Y8iznMF-144" value="" style="endArrow=classic;html=1;fontSize=13;exitX=0.5;exitY=0;exitDx=0;exitDy=0;entryX=0.673;entryY=0.118;entryDx=0;entryDy=0;entryPerimeter=0;" parent="1" source="383D4JDCLkwi9Y8iznMF-142" target="383D4JDCLkwi9Y8iznMF-117" edge="1">
                    <mxGeometry width="50" height="50" relative="1" as="geometry">
                        <mxPoint x="5400" y="950" as="sourcePoint"/>
                        <mxPoint x="5020" y="860" as="targetPoint"/>
                        <Array as="points">
                            <mxPoint x="5390" y="859"/>
                        </Array>
                    </mxGeometry>
                </mxCell>
                <mxCell id="LKw_4Z-7U7-yW4VzZGcP-198" style="edgeStyle=none;html=1;entryX=0.5;entryY=0;entryDx=0;entryDy=0;fontColor=#F0F0F0;" parent="1" source="LKw_4Z-7U7-yW4VzZGcP-182" target="LKw_4Z-7U7-yW4VzZGcP-191" edge="1">
                    <mxGeometry relative="1" as="geometry"/>
                </mxCell>
                <mxCell id="LKw_4Z-7U7-yW4VzZGcP-182" value="menu = '''What would you like to do?&lt;br&gt;&lt;br&gt;1. View Event Information&lt;br&gt;2. Add Events to cart&lt;br&gt;3. View Cart&lt;br&gt;4. Log Out&lt;br&gt;5.Exit&lt;br&gt;&lt;br&gt;Choice: '''" style="rounded=0;whiteSpace=wrap;html=1;labelBackgroundColor=none;fontSize=12;align=left;" parent="1" vertex="1">
                    <mxGeometry x="2640" y="490" width="410" height="170" as="geometry"/>
                </mxCell>
                <mxCell id="383D4JDCLkwi9Y8iznMF-151" style="edgeStyle=none;html=1;entryX=0.5;entryY=0;entryDx=0;entryDy=0;fontSize=13;" parent="1" source="383D4JDCLkwi9Y8iznMF-147" target="383D4JDCLkwi9Y8iznMF-150" edge="1">
                    <mxGeometry relative="1" as="geometry"/>
                </mxCell>
                <mxCell id="383D4JDCLkwi9Y8iznMF-147" value="CALL FUNCTION clear" style="shape=process;whiteSpace=wrap;html=1;backgroundOutline=1;fontSize=13;" parent="1" vertex="1">
                    <mxGeometry x="4880" y="1190" width="120" height="50" as="geometry"/>
                </mxCell>
                <mxCell id="383D4JDCLkwi9Y8iznMF-149" value="True" style="text;html=1;align=center;verticalAlign=middle;resizable=0;points=[];autosize=1;strokeColor=none;fillColor=none;fontSize=13;" parent="1" vertex="1">
                    <mxGeometry x="4895" y="1160" width="40" height="20" as="geometry"/>
                </mxCell>
                <mxCell id="383D4JDCLkwi9Y8iznMF-153" style="edgeStyle=none;html=1;entryX=0.5;entryY=0;entryDx=0;entryDy=0;fontSize=13;" parent="1" source="383D4JDCLkwi9Y8iznMF-150" target="383D4JDCLkwi9Y8iznMF-152" edge="1">
                    <mxGeometry relative="1" as="geometry"/>
                </mxCell>
                <mxCell id="383D4JDCLkwi9Y8iznMF-150" value="sleeps for 0.75 seconds&lt;br&gt;PRINT(f'Logged in successfully. Welcome back {acc_name}.')&lt;br&gt;sleeps for 0.75 seconds" style="shape=parallelogram;perimeter=parallelogramPerimeter;whiteSpace=wrap;html=1;fixedSize=1;fontSize=13;" parent="1" vertex="1">
                    <mxGeometry x="4780" y="1265" width="320" height="65" as="geometry"/>
                </mxCell>
                <mxCell id="383D4JDCLkwi9Y8iznMF-155" style="edgeStyle=none;html=1;entryX=0.412;entryY=0.001;entryDx=0;entryDy=0;entryPerimeter=0;fontSize=13;exitX=0.937;exitY=0.611;exitDx=0;exitDy=0;exitPerimeter=0;" parent="1" source="383D4JDCLkwi9Y8iznMF-152" target="383D4JDCLkwi9Y8iznMF-154" edge="1">
                    <mxGeometry relative="1" as="geometry"/>
                </mxCell>
                <mxCell id="383D4JDCLkwi9Y8iznMF-231" style="edgeStyle=none;html=1;entryX=0.5;entryY=0;entryDx=0;entryDy=0;fontSize=13;" parent="1" source="383D4JDCLkwi9Y8iznMF-152" target="383D4JDCLkwi9Y8iznMF-228" edge="1">
                    <mxGeometry relative="1" as="geometry"/>
                </mxCell>
                <mxCell id="383D4JDCLkwi9Y8iznMF-152" value="DOWHILE TF == True" style="rhombus;whiteSpace=wrap;html=1;fontSize=13;" parent="1" vertex="1">
                    <mxGeometry x="4860" y="1355" width="160" height="90" as="geometry"/>
                </mxCell>
                <mxCell id="LKw_4Z-7U7-yW4VzZGcP-199" style="edgeStyle=none;html=1;entryX=0.5;entryY=0;entryDx=0;entryDy=0;fontColor=#F0F0F0;" parent="1" source="LKw_4Z-7U7-yW4VzZGcP-191" target="LKw_4Z-7U7-yW4VzZGcP-192" edge="1">
                    <mxGeometry relative="1" as="geometry"/>
                </mxCell>
                <mxCell id="LKw_4Z-7U7-yW4VzZGcP-191" value="DOWHILE TF == True" style="rhombus;whiteSpace=wrap;html=1;labelBackgroundColor=none;" parent="1" vertex="1">
                    <mxGeometry x="2855" y="700" width="190" height="80" as="geometry"/>
                </mxCell>
                <mxCell id="LKw_4Z-7U7-yW4VzZGcP-200" style="edgeStyle=none;html=1;fontColor=#F0F0F0;" parent="1" source="LKw_4Z-7U7-yW4VzZGcP-192" target="LKw_4Z-7U7-yW4VzZGcP-193" edge="1">
                    <mxGeometry relative="1" as="geometry"/>
                </mxCell>
                <mxCell id="LKw_4Z-7U7-yW4VzZGcP-192" value="Execute try clause" style="rounded=0;whiteSpace=wrap;html=1;labelBackgroundColor=none;fontColor=#F0F0F0;" parent="1" vertex="1">
                    <mxGeometry x="2700" y="780" width="120" height="60" as="geometry"/>
                </mxCell>
                <mxCell id="LKw_4Z-7U7-yW4VzZGcP-201" style="edgeStyle=none;html=1;entryX=0.5;entryY=0;entryDx=0;entryDy=0;fontColor=#F0F0F0;" parent="1" source="LKw_4Z-7U7-yW4VzZGcP-193" target="LKw_4Z-7U7-yW4VzZGcP-194" edge="1">
                    <mxGeometry relative="1" as="geometry"/>
                </mxCell>
                <mxCell id="LKw_4Z-7U7-yW4VzZGcP-193" value="PRINT (menu)&lt;br&gt;&lt;br&gt;Get answer" style="shape=parallelogram;perimeter=parallelogramPerimeter;whiteSpace=wrap;html=1;fixedSize=1;labelBackgroundColor=none;fontColor=#F0F0F0;" parent="1" vertex="1">
                    <mxGeometry x="2680" y="870" width="160" height="60" as="geometry"/>
                </mxCell>
                <mxCell id="LKw_4Z-7U7-yW4VzZGcP-202" style="edgeStyle=none;html=1;entryX=0.25;entryY=0;entryDx=0;entryDy=0;fontColor=#F0F0F0;" parent="1" source="LKw_4Z-7U7-yW4VzZGcP-194" target="LKw_4Z-7U7-yW4VzZGcP-195" edge="1">
                    <mxGeometry relative="1" as="geometry"/>
                </mxCell>
                <mxCell id="LKw_4Z-7U7-yW4VzZGcP-223" style="edgeStyle=none;html=1;fontColor=#F0F0F0;" parent="1" source="LKw_4Z-7U7-yW4VzZGcP-194" target="LKw_4Z-7U7-yW4VzZGcP-207" edge="1">
                    <mxGeometry relative="1" as="geometry"/>
                </mxCell>
                <mxCell id="LKw_4Z-7U7-yW4VzZGcP-194" value="exception occurs" style="rhombus;whiteSpace=wrap;html=1;labelBackgroundColor=none;fontColor=#F0F0F0;" parent="1" vertex="1">
                    <mxGeometry x="2685" y="960" width="150" height="80" as="geometry"/>
                </mxCell>
                <mxCell id="LKw_4Z-7U7-yW4VzZGcP-203" style="edgeStyle=none;html=1;entryX=0.5;entryY=1;entryDx=0;entryDy=0;fontColor=#F0F0F0;" parent="1" source="LKw_4Z-7U7-yW4VzZGcP-195" target="LKw_4Z-7U7-yW4VzZGcP-197" edge="1">
                    <mxGeometry relative="1" as="geometry"/>
                </mxCell>
                <mxCell id="LKw_4Z-7U7-yW4VzZGcP-195" value="PRINT ('Invalid option, please try again.')" style="shape=parallelogram;perimeter=parallelogramPerimeter;whiteSpace=wrap;html=1;fixedSize=1;labelBackgroundColor=none;fontColor=#F0F0F0;" parent="1" vertex="1">
                    <mxGeometry x="2807.5" y="1060" width="252.5" height="60" as="geometry"/>
                </mxCell>
                <mxCell id="LKw_4Z-7U7-yW4VzZGcP-205" style="edgeStyle=none;html=1;entryX=0.5;entryY=1;entryDx=0;entryDy=0;fontColor=#F0F0F0;exitX=1;exitY=0.5;exitDx=0;exitDy=0;" parent="1" source="LKw_4Z-7U7-yW4VzZGcP-196" target="160" edge="1">
                    <mxGeometry relative="1" as="geometry"/>
                </mxCell>
                <mxCell id="LKw_4Z-7U7-yW4VzZGcP-196" value="CALL FUNCTION&lt;br&gt;clear" style="shape=process;whiteSpace=wrap;html=1;backgroundOutline=1;labelBackgroundColor=none;fontColor=#F0F0F0;" parent="1" vertex="1">
                    <mxGeometry x="2875" y="830" width="150" height="60" as="geometry"/>
                </mxCell>
                <mxCell id="LKw_4Z-7U7-yW4VzZGcP-204" style="edgeStyle=none;html=1;entryX=0.552;entryY=0.987;entryDx=0;entryDy=0;entryPerimeter=0;fontColor=#F0F0F0;" parent="1" source="LKw_4Z-7U7-yW4VzZGcP-197" target="LKw_4Z-7U7-yW4VzZGcP-196" edge="1">
                    <mxGeometry relative="1" as="geometry"/>
                </mxCell>
                <mxCell id="LKw_4Z-7U7-yW4VzZGcP-197" value="sleeps for 0.75 seconds" style="rounded=0;whiteSpace=wrap;html=1;labelBackgroundColor=none;fontColor=#F0F0F0;" parent="1" vertex="1">
                    <mxGeometry x="2900" y="940" width="120" height="60" as="geometry"/>
                </mxCell>
                <mxCell id="383D4JDCLkwi9Y8iznMF-158" style="edgeStyle=none;html=1;entryX=0.5;entryY=0;entryDx=0;entryDy=0;fontSize=13;" parent="1" source="383D4JDCLkwi9Y8iznMF-154" target="383D4JDCLkwi9Y8iznMF-157" edge="1">
                    <mxGeometry relative="1" as="geometry"/>
                </mxCell>
                <mxCell id="383D4JDCLkwi9Y8iznMF-154" value="PRINT('Are you an admin? [y/n] ')&amp;nbsp;&lt;br&gt;Get admin_confirmation" style="shape=parallelogram;perimeter=parallelogramPerimeter;whiteSpace=wrap;html=1;fixedSize=1;fontSize=13;" parent="1" vertex="1">
                    <mxGeometry x="5000" y="1460" width="265" height="60" as="geometry"/>
                </mxCell>
                <mxCell id="383D4JDCLkwi9Y8iznMF-156" value="True" style="text;html=1;align=center;verticalAlign=middle;resizable=0;points=[];autosize=1;strokeColor=none;fillColor=none;fontSize=13;" parent="1" vertex="1">
                    <mxGeometry x="5035" y="1400" width="40" height="20" as="geometry"/>
                </mxCell>
                <mxCell id="LKw_4Z-7U7-yW4VzZGcP-206" value="TRUE" style="text;html=1;align=center;verticalAlign=middle;resizable=0;points=[];autosize=1;strokeColor=none;fillColor=none;fontColor=#F0F0F0;" parent="1" vertex="1">
                    <mxGeometry x="2825" y="1020" width="50" height="20" as="geometry"/>
                </mxCell>
                <mxCell id="LKw_4Z-7U7-yW4VzZGcP-224" style="edgeStyle=none;html=1;fontColor=#F0F0F0;" parent="1" source="LKw_4Z-7U7-yW4VzZGcP-207" target="LKw_4Z-7U7-yW4VzZGcP-212" edge="1">
                    <mxGeometry relative="1" as="geometry"/>
                </mxCell>
                <mxCell id="LKw_4Z-7U7-yW4VzZGcP-225" style="edgeStyle=none;html=1;entryX=1;entryY=0;entryDx=0;entryDy=0;fontColor=#F0F0F0;" parent="1" source="LKw_4Z-7U7-yW4VzZGcP-207" target="LKw_4Z-7U7-yW4VzZGcP-208" edge="1">
                    <mxGeometry relative="1" as="geometry"/>
                </mxCell>
                <mxCell id="LKw_4Z-7U7-yW4VzZGcP-207" value="IF answer == 1 ?" style="rhombus;whiteSpace=wrap;html=1;labelBackgroundColor=none;fontColor=#F0F0F0;" parent="1" vertex="1">
                    <mxGeometry x="2563.71" y="1060" width="170" height="80" as="geometry"/>
                </mxCell>
                <mxCell id="LKw_4Z-7U7-yW4VzZGcP-226" style="edgeStyle=none;html=1;fontColor=#F0F0F0;" parent="1" source="LKw_4Z-7U7-yW4VzZGcP-208" target="LKw_4Z-7U7-yW4VzZGcP-213" edge="1">
                    <mxGeometry relative="1" as="geometry"/>
                </mxCell>
                <mxCell id="LKw_4Z-7U7-yW4VzZGcP-227" style="edgeStyle=none;html=1;fontColor=#F0F0F0;" parent="1" source="LKw_4Z-7U7-yW4VzZGcP-208" target="LKw_4Z-7U7-yW4VzZGcP-209" edge="1">
                    <mxGeometry relative="1" as="geometry"/>
                </mxCell>
                <mxCell id="LKw_4Z-7U7-yW4VzZGcP-208" value="ELIF answer == 2 ?" style="rhombus;whiteSpace=wrap;html=1;labelBackgroundColor=none;fontColor=#F0F0F0;" parent="1" vertex="1">
                    <mxGeometry x="2460" y="1150" width="170" height="80" as="geometry"/>
                </mxCell>
                <mxCell id="LKw_4Z-7U7-yW4VzZGcP-228" style="edgeStyle=none;html=1;fontColor=#F0F0F0;" parent="1" source="LKw_4Z-7U7-yW4VzZGcP-209" target="LKw_4Z-7U7-yW4VzZGcP-214" edge="1">
                    <mxGeometry relative="1" as="geometry"/>
                </mxCell>
                <mxCell id="LKw_4Z-7U7-yW4VzZGcP-229" style="edgeStyle=none;html=1;entryX=1;entryY=0;entryDx=0;entryDy=0;fontColor=#F0F0F0;" parent="1" source="LKw_4Z-7U7-yW4VzZGcP-209" target="LKw_4Z-7U7-yW4VzZGcP-210" edge="1">
                    <mxGeometry relative="1" as="geometry"/>
                </mxCell>
                <mxCell id="LKw_4Z-7U7-yW4VzZGcP-209" value="ELIF answer == 3 ?" style="rhombus;whiteSpace=wrap;html=1;labelBackgroundColor=none;fontColor=#F0F0F0;" parent="1" vertex="1">
                    <mxGeometry x="2350" y="1240" width="170" height="80" as="geometry"/>
                </mxCell>
                <mxCell id="LKw_4Z-7U7-yW4VzZGcP-230" style="edgeStyle=none;html=1;entryX=0.5;entryY=0;entryDx=0;entryDy=0;fontColor=#F0F0F0;" parent="1" source="LKw_4Z-7U7-yW4VzZGcP-210" target="LKw_4Z-7U7-yW4VzZGcP-215" edge="1">
                    <mxGeometry relative="1" as="geometry"/>
                </mxCell>
                <mxCell id="LKw_4Z-7U7-yW4VzZGcP-231" style="edgeStyle=none;html=1;fontColor=#F0F0F0;" parent="1" source="LKw_4Z-7U7-yW4VzZGcP-210" target="LKw_4Z-7U7-yW4VzZGcP-211" edge="1">
                    <mxGeometry relative="1" as="geometry"/>
                </mxCell>
                <mxCell id="LKw_4Z-7U7-yW4VzZGcP-210" value="ELIF answer == 4 ?" style="rhombus;whiteSpace=wrap;html=1;labelBackgroundColor=none;fontColor=#F0F0F0;" parent="1" vertex="1">
                    <mxGeometry x="2250" y="1335" width="170" height="80" as="geometry"/>
                </mxCell>
                <mxCell id="LKw_4Z-7U7-yW4VzZGcP-232" style="edgeStyle=none;html=1;fontColor=#F0F0F0;" parent="1" source="LKw_4Z-7U7-yW4VzZGcP-211" target="LKw_4Z-7U7-yW4VzZGcP-222" edge="1">
                    <mxGeometry relative="1" as="geometry"/>
                </mxCell>
                <mxCell id="LKw_4Z-7U7-yW4VzZGcP-245" style="edgeStyle=none;html=1;fontColor=#F0F0F0;" parent="1" source="LKw_4Z-7U7-yW4VzZGcP-211" target="LKw_4Z-7U7-yW4VzZGcP-239" edge="1">
                    <mxGeometry relative="1" as="geometry"/>
                </mxCell>
                <mxCell id="LKw_4Z-7U7-yW4VzZGcP-211" value="ELIF answer == 5 ?" style="rhombus;whiteSpace=wrap;html=1;labelBackgroundColor=none;fontColor=#F0F0F0;" parent="1" vertex="1">
                    <mxGeometry x="2168.71" y="1445" width="170" height="80" as="geometry"/>
                </mxCell>
                <mxCell id="383D4JDCLkwi9Y8iznMF-161" style="edgeStyle=none;html=1;entryX=0.5;entryY=0;entryDx=0;entryDy=0;fontSize=13;" parent="1" source="383D4JDCLkwi9Y8iznMF-157" target="383D4JDCLkwi9Y8iznMF-159" edge="1">
                    <mxGeometry relative="1" as="geometry"/>
                </mxCell>
                <mxCell id="383D4JDCLkwi9Y8iznMF-207" style="edgeStyle=none;html=1;entryX=0.22;entryY=0.275;entryDx=0;entryDy=0;fontSize=13;entryPerimeter=0;" parent="1" source="383D4JDCLkwi9Y8iznMF-157" target="383D4JDCLkwi9Y8iznMF-210" edge="1">
                    <mxGeometry relative="1" as="geometry">
                        <mxPoint x="5365" y="1625" as="targetPoint"/>
                    </mxGeometry>
                </mxCell>
                <mxCell id="383D4JDCLkwi9Y8iznMF-157" value="IF admin_confirmation == 'y' or admin_confirmation == 'Y'?" style="rhombus;whiteSpace=wrap;html=1;fontSize=13;" parent="1" vertex="1">
                    <mxGeometry x="5005" y="1550" width="255" height="90" as="geometry"/>
                </mxCell>
                <mxCell id="LKw_4Z-7U7-yW4VzZGcP-233" style="edgeStyle=none;html=1;entryX=0;entryY=0.5;entryDx=0;entryDy=0;fontColor=#F0F0F0;" parent="1" source="LKw_4Z-7U7-yW4VzZGcP-212" target="LKw_4Z-7U7-yW4VzZGcP-217" edge="1">
                    <mxGeometry relative="1" as="geometry"/>
                </mxCell>
                <mxCell id="LKw_4Z-7U7-yW4VzZGcP-212" value="CALL FUNCTION&lt;br&gt;list_event_menu" style="shape=process;whiteSpace=wrap;html=1;backgroundOutline=1;labelBackgroundColor=none;fontColor=#F0F0F0;" parent="1" vertex="1">
                    <mxGeometry x="2745" y="1160" width="140" height="60" as="geometry"/>
                </mxCell>
                <mxCell id="LKw_4Z-7U7-yW4VzZGcP-234" style="edgeStyle=none;html=1;entryX=0;entryY=0.5;entryDx=0;entryDy=0;fontColor=#F0F0F0;" parent="1" source="LKw_4Z-7U7-yW4VzZGcP-213" target="LKw_4Z-7U7-yW4VzZGcP-218" edge="1">
                    <mxGeometry relative="1" as="geometry"/>
                </mxCell>
                <mxCell id="LKw_4Z-7U7-yW4VzZGcP-213" value="CALL FUNCTION&lt;br&gt;cart" style="shape=process;whiteSpace=wrap;html=1;backgroundOutline=1;labelBackgroundColor=none;fontColor=#F0F0F0;" parent="1" vertex="1">
                    <mxGeometry x="2645" y="1250" width="140" height="60" as="geometry"/>
                </mxCell>
                <mxCell id="LKw_4Z-7U7-yW4VzZGcP-235" style="edgeStyle=none;html=1;entryX=0;entryY=0.5;entryDx=0;entryDy=0;fontColor=#F0F0F0;" parent="1" source="LKw_4Z-7U7-yW4VzZGcP-214" target="LKw_4Z-7U7-yW4VzZGcP-219" edge="1">
                    <mxGeometry relative="1" as="geometry"/>
                </mxCell>
                <mxCell id="LKw_4Z-7U7-yW4VzZGcP-214" value="CALL FUNCTION&lt;br&gt;view_cart" style="shape=process;whiteSpace=wrap;html=1;backgroundOutline=1;labelBackgroundColor=none;fontColor=#F0F0F0;" parent="1" vertex="1">
                    <mxGeometry x="2542.5" y="1340" width="140" height="60" as="geometry"/>
                </mxCell>
                <mxCell id="LKw_4Z-7U7-yW4VzZGcP-236" style="edgeStyle=none;html=1;fontColor=#F0F0F0;" parent="1" source="LKw_4Z-7U7-yW4VzZGcP-215" target="LKw_4Z-7U7-yW4VzZGcP-220" edge="1">
                    <mxGeometry relative="1" as="geometry"/>
                </mxCell>
                <mxCell id="LKw_4Z-7U7-yW4VzZGcP-215" value="CALL FUNCTION log_out" style="shape=process;whiteSpace=wrap;html=1;backgroundOutline=1;labelBackgroundColor=none;fontColor=#F0F0F0;" parent="1" vertex="1">
                    <mxGeometry x="2445" y="1430" width="150" height="70" as="geometry"/>
                </mxCell>
                <mxCell id="383D4JDCLkwi9Y8iznMF-163" style="edgeStyle=none;html=1;entryX=0.569;entryY=0.011;entryDx=0;entryDy=0;entryPerimeter=0;fontSize=13;" parent="1" source="383D4JDCLkwi9Y8iznMF-159" target="383D4JDCLkwi9Y8iznMF-160" edge="1">
                    <mxGeometry relative="1" as="geometry"/>
                </mxCell>
                <mxCell id="383D4JDCLkwi9Y8iznMF-159" value="CALL FUNCTION clear" style="shape=process;whiteSpace=wrap;html=1;backgroundOutline=1;fontSize=13;" parent="1" vertex="1">
                    <mxGeometry x="4905" y="1660" width="115" height="50" as="geometry"/>
                </mxCell>
                <mxCell id="383D4JDCLkwi9Y8iznMF-165" style="edgeStyle=none;html=1;fontSize=13;" parent="1" source="383D4JDCLkwi9Y8iznMF-160" target="383D4JDCLkwi9Y8iznMF-164" edge="1">
                    <mxGeometry relative="1" as="geometry"/>
                </mxCell>
                <mxCell id="383D4JDCLkwi9Y8iznMF-160" value="sleeps for 0.75 seconds" style="shape=parallelogram;perimeter=parallelogramPerimeter;whiteSpace=wrap;html=1;fixedSize=1;fontSize=13;" parent="1" vertex="1">
                    <mxGeometry x="4860" y="1730" width="180" height="30" as="geometry"/>
                </mxCell>
                <mxCell id="383D4JDCLkwi9Y8iznMF-162" value="True" style="text;html=1;align=center;verticalAlign=middle;resizable=0;points=[];autosize=1;strokeColor=none;fillColor=none;fontSize=13;" parent="1" vertex="1">
                    <mxGeometry x="4980" y="1610" width="40" height="20" as="geometry"/>
                </mxCell>
                <mxCell id="LKw_4Z-7U7-yW4VzZGcP-217" value="RETURN" style="ellipse;whiteSpace=wrap;html=1;labelBackgroundColor=none;fontColor=#F0F0F0;" parent="1" vertex="1">
                    <mxGeometry x="2972.5" y="1165" width="120" height="50" as="geometry"/>
                </mxCell>
                <mxCell id="LKw_4Z-7U7-yW4VzZGcP-218" value="RETURN" style="ellipse;whiteSpace=wrap;html=1;labelBackgroundColor=none;fontColor=#F0F0F0;" parent="1" vertex="1">
                    <mxGeometry x="2881.21" y="1250" width="120" height="50" as="geometry"/>
                </mxCell>
                <mxCell id="LKw_4Z-7U7-yW4VzZGcP-219" value="RETURN" style="ellipse;whiteSpace=wrap;html=1;labelBackgroundColor=none;fontColor=#F0F0F0;" parent="1" vertex="1">
                    <mxGeometry x="2781.21" y="1335" width="120" height="50" as="geometry"/>
                </mxCell>
                <mxCell id="LKw_4Z-7U7-yW4VzZGcP-220" value="RETURN" style="ellipse;whiteSpace=wrap;html=1;labelBackgroundColor=none;fontColor=#F0F0F0;" parent="1" vertex="1">
                    <mxGeometry x="2700" y="1435" width="120" height="50" as="geometry"/>
                </mxCell>
                <mxCell id="LKw_4Z-7U7-yW4VzZGcP-221" value="END" style="ellipse;whiteSpace=wrap;html=1;labelBackgroundColor=none;fontColor=#F0F0F0;" parent="1" vertex="1">
                    <mxGeometry x="2655" y="1570" width="120" height="50" as="geometry"/>
                </mxCell>
                <mxCell id="383D4JDCLkwi9Y8iznMF-167" style="edgeStyle=none;html=1;entryX=0.5;entryY=0;entryDx=0;entryDy=0;fontSize=13;" parent="1" source="383D4JDCLkwi9Y8iznMF-164" target="383D4JDCLkwi9Y8iznMF-166" edge="1">
                    <mxGeometry relative="1" as="geometry"/>
                </mxCell>
                <mxCell id="383D4JDCLkwi9Y8iznMF-164" value="DOWHILE TF == True" style="rhombus;whiteSpace=wrap;html=1;fontSize=13;" parent="1" vertex="1">
                    <mxGeometry x="4872.5" y="1790" width="155" height="70" as="geometry"/>
                </mxCell>
                <mxCell id="LKw_4Z-7U7-yW4VzZGcP-237" style="edgeStyle=none;html=1;entryX=0;entryY=0.5;entryDx=0;entryDy=0;fontColor=#F0F0F0;" parent="1" source="LKw_4Z-7U7-yW4VzZGcP-222" target="LKw_4Z-7U7-yW4VzZGcP-221" edge="1">
                    <mxGeometry relative="1" as="geometry"/>
                </mxCell>
                <mxCell id="LKw_4Z-7U7-yW4VzZGcP-222" value="CALL FUNCTION clear&lt;br&gt;&lt;br&gt;CALL FUNCTION quit" style="shape=process;whiteSpace=wrap;html=1;backgroundOutline=1;labelBackgroundColor=none;fontColor=#F0F0F0;" parent="1" vertex="1">
                    <mxGeometry x="2380" y="1560" width="170" height="70" as="geometry"/>
                </mxCell>
                <mxCell id="383D4JDCLkwi9Y8iznMF-170" style="edgeStyle=none;html=1;entryX=0.5;entryY=0;entryDx=0;entryDy=0;fontSize=13;" parent="1" source="383D4JDCLkwi9Y8iznMF-166" target="383D4JDCLkwi9Y8iznMF-169" edge="1">
                    <mxGeometry relative="1" as="geometry"/>
                </mxCell>
                <mxCell id="383D4JDCLkwi9Y8iznMF-166" value="CALL FUNCTION clear" style="shape=process;whiteSpace=wrap;html=1;backgroundOutline=1;fontSize=13;" parent="1" vertex="1">
                    <mxGeometry x="4897.5" y="1910" width="105" height="60" as="geometry"/>
                </mxCell>
                <mxCell id="LKw_4Z-7U7-yW4VzZGcP-238" style="edgeStyle=none;html=1;fontColor=#F0F0F0;" parent="1" source="LKw_4Z-7U7-yW4VzZGcP-239" target="LKw_4Z-7U7-yW4VzZGcP-241" edge="1">
                    <mxGeometry relative="1" as="geometry"/>
                </mxCell>
                <mxCell id="LKw_4Z-7U7-yW4VzZGcP-239" value="PRINT ('Invalid option,please try again.')" style="shape=parallelogram;perimeter=parallelogramPerimeter;whiteSpace=wrap;html=1;fixedSize=1;labelBackgroundColor=none;fontColor=#F0F0F0;" parent="1" vertex="1">
                    <mxGeometry x="2037.5" y="1570" width="200" height="70" as="geometry"/>
                </mxCell>
                <mxCell id="LKw_4Z-7U7-yW4VzZGcP-240" style="edgeStyle=none;html=1;fontColor=#F0F0F0;" parent="1" source="LKw_4Z-7U7-yW4VzZGcP-241" target="LKw_4Z-7U7-yW4VzZGcP-243" edge="1">
                    <mxGeometry relative="1" as="geometry"/>
                </mxCell>
                <mxCell id="LKw_4Z-7U7-yW4VzZGcP-241" value="sleeps for 0.75 seconds" style="rounded=0;whiteSpace=wrap;html=1;labelBackgroundColor=none;fontColor=#F0F0F0;" parent="1" vertex="1">
                    <mxGeometry x="2072.5" y="1670" width="120" height="60" as="geometry"/>
                </mxCell>
                <mxCell id="LKw_4Z-7U7-yW4VzZGcP-242" style="edgeStyle=none;html=1;fontColor=#F0F0F0;" parent="1" source="LKw_4Z-7U7-yW4VzZGcP-243" target="LKw_4Z-7U7-yW4VzZGcP-244" edge="1">
                    <mxGeometry relative="1" as="geometry"/>
                </mxCell>
                <mxCell id="LKw_4Z-7U7-yW4VzZGcP-243" value="CALL FUNCTION&lt;br&gt;clear" style="shape=process;whiteSpace=wrap;html=1;backgroundOutline=1;labelBackgroundColor=none;fontColor=#F0F0F0;" parent="1" vertex="1">
                    <mxGeometry x="2067.5" y="1760" width="140" height="60" as="geometry"/>
                </mxCell>
                <mxCell id="115" style="edgeStyle=none;html=1;entryX=0;entryY=0.5;entryDx=0;entryDy=0;" parent="1" source="LKw_4Z-7U7-yW4VzZGcP-244" target="LKw_4Z-7U7-yW4VzZGcP-191" edge="1">
                    <mxGeometry relative="1" as="geometry">
                        <mxPoint x="2730" y="740" as="targetPoint"/>
                        <Array as="points">
                            <mxPoint x="1990" y="1880"/>
                            <mxPoint x="1990" y="1620"/>
                            <mxPoint x="2710" y="740"/>
                        </Array>
                    </mxGeometry>
                </mxCell>
                <mxCell id="LKw_4Z-7U7-yW4VzZGcP-244" value="CONTINUE" style="rounded=0;whiteSpace=wrap;html=1;labelBackgroundColor=none;fontColor=#F0F0F0;" parent="1" vertex="1">
                    <mxGeometry x="2072.5" y="1850" width="120" height="60" as="geometry"/>
                </mxCell>
                <mxCell id="383D4JDCLkwi9Y8iznMF-168" value="True" style="text;html=1;align=center;verticalAlign=middle;resizable=0;points=[];autosize=1;strokeColor=none;fillColor=none;fontSize=13;" parent="1" vertex="1">
                    <mxGeometry x="4905" y="1880" width="40" height="20" as="geometry"/>
                </mxCell>
                <mxCell id="LKw_4Z-7U7-yW4VzZGcP-246" value="TRUE" style="text;html=1;align=center;verticalAlign=middle;resizable=0;points=[];autosize=1;strokeColor=none;fillColor=none;fontColor=#F0F0F0;" parent="1" vertex="1">
                    <mxGeometry x="2735" y="1120" width="50" height="20" as="geometry"/>
                </mxCell>
                <mxCell id="LKw_4Z-7U7-yW4VzZGcP-247" value="TRUE" style="text;html=1;align=center;verticalAlign=middle;resizable=0;points=[];autosize=1;strokeColor=none;fillColor=none;fontColor=#F0F0F0;" parent="1" vertex="1">
                    <mxGeometry x="2620" y="1205" width="50" height="20" as="geometry"/>
                </mxCell>
                <mxCell id="LKw_4Z-7U7-yW4VzZGcP-248" value="TRUE" style="text;html=1;align=center;verticalAlign=middle;resizable=0;points=[];autosize=1;strokeColor=none;fillColor=none;fontColor=#F0F0F0;" parent="1" vertex="1">
                    <mxGeometry x="2513.71" y="1300" width="50" height="20" as="geometry"/>
                </mxCell>
                <mxCell id="LKw_4Z-7U7-yW4VzZGcP-249" value="TRUE" style="text;html=1;align=center;verticalAlign=middle;resizable=0;points=[];autosize=1;strokeColor=none;fillColor=none;fontColor=#F0F0F0;" parent="1" vertex="1">
                    <mxGeometry x="2440" y="1385" width="50" height="20" as="geometry"/>
                </mxCell>
                <mxCell id="LKw_4Z-7U7-yW4VzZGcP-250" value="TRUE" style="text;html=1;align=center;verticalAlign=middle;resizable=0;points=[];autosize=1;strokeColor=none;fillColor=none;fontColor=#F0F0F0;" parent="1" vertex="1">
                    <mxGeometry x="2338.71" y="1510" width="50" height="20" as="geometry"/>
                </mxCell>
                <mxCell id="LKw_4Z-7U7-yW4VzZGcP-251" value="FALSE" style="text;html=1;align=center;verticalAlign=middle;resizable=0;points=[];autosize=1;strokeColor=none;fillColor=none;fontColor=#F0F0F0;" parent="1" vertex="1">
                    <mxGeometry x="2640" y="1020" width="50" height="20" as="geometry"/>
                </mxCell>
                <mxCell id="LKw_4Z-7U7-yW4VzZGcP-252" value="FALSE" style="text;html=1;align=center;verticalAlign=middle;resizable=0;points=[];autosize=1;strokeColor=none;fillColor=none;fontColor=#F0F0F0;" parent="1" vertex="1">
                    <mxGeometry x="2550" y="1127.5" width="50" height="20" as="geometry"/>
                </mxCell>
                <mxCell id="LKw_4Z-7U7-yW4VzZGcP-253" value="FALSE" style="text;html=1;align=center;verticalAlign=middle;resizable=0;points=[];autosize=1;strokeColor=none;fillColor=none;fontColor=#F0F0F0;" parent="1" vertex="1">
                    <mxGeometry x="2430" y="1215" width="50" height="20" as="geometry"/>
                </mxCell>
                <mxCell id="LKw_4Z-7U7-yW4VzZGcP-254" value="FALSE" style="text;html=1;align=center;verticalAlign=middle;resizable=0;points=[];autosize=1;strokeColor=none;fillColor=none;fontColor=#F0F0F0;" parent="1" vertex="1">
                    <mxGeometry x="2338.71" y="1310" width="50" height="20" as="geometry"/>
                </mxCell>
                <mxCell id="383D4JDCLkwi9Y8iznMF-172" style="edgeStyle=none;html=1;entryX=0.474;entryY=0.01;entryDx=0;entryDy=0;entryPerimeter=0;fontSize=13;" parent="1" source="383D4JDCLkwi9Y8iznMF-169" target="383D4JDCLkwi9Y8iznMF-171" edge="1">
                    <mxGeometry relative="1" as="geometry"/>
                </mxCell>
                <mxCell id="383D4JDCLkwi9Y8iznMF-169" value="Execute try clause" style="rounded=0;whiteSpace=wrap;html=1;fontSize=13;" parent="1" vertex="1">
                    <mxGeometry x="4890" y="1990" width="120" height="60" as="geometry"/>
                </mxCell>
                <mxCell id="383D4JDCLkwi9Y8iznMF-175" style="edgeStyle=none;html=1;entryX=0.5;entryY=0;entryDx=0;entryDy=0;fontSize=13;" parent="1" source="383D4JDCLkwi9Y8iznMF-171" target="383D4JDCLkwi9Y8iznMF-173" edge="1">
                    <mxGeometry relative="1" as="geometry"/>
                </mxCell>
                <mxCell id="383D4JDCLkwi9Y8iznMF-171" value="PRINT('Please enter admin code (use this code for testing purposes:000) \nCode: ')&lt;br&gt;Get admin_code" style="shape=parallelogram;perimeter=parallelogramPerimeter;whiteSpace=wrap;html=1;fixedSize=1;fontSize=13;" parent="1" vertex="1">
                    <mxGeometry x="4705" y="2080" width="515" height="60" as="geometry"/>
                </mxCell>
                <mxCell id="383D4JDCLkwi9Y8iznMF-177" style="edgeStyle=none;html=1;entryX=0.383;entryY=-0.085;entryDx=0;entryDy=0;entryPerimeter=0;fontSize=13;" parent="1" source="383D4JDCLkwi9Y8iznMF-173" target="383D4JDCLkwi9Y8iznMF-176" edge="1">
                    <mxGeometry relative="1" as="geometry"/>
                </mxCell>
                <mxCell id="383D4JDCLkwi9Y8iznMF-184" style="edgeStyle=none;html=1;fontSize=13;entryX=1;entryY=0;entryDx=0;entryDy=0;" parent="1" source="383D4JDCLkwi9Y8iznMF-173" target="383D4JDCLkwi9Y8iznMF-183" edge="1">
                    <mxGeometry relative="1" as="geometry"/>
                </mxCell>
                <mxCell id="383D4JDCLkwi9Y8iznMF-173" value="except occurs" style="rhombus;whiteSpace=wrap;html=1;fontSize=13;" parent="1" vertex="1">
                    <mxGeometry x="4892.5" y="2180" width="142.5" height="70" as="geometry"/>
                </mxCell>
                <mxCell id="116" value="TRUE" style="text;html=1;align=center;verticalAlign=middle;resizable=0;points=[];autosize=1;strokeColor=none;fillColor=none;" parent="1" vertex="1">
                    <mxGeometry x="2900" y="350" width="50" height="20" as="geometry"/>
                </mxCell>
                <mxCell id="383D4JDCLkwi9Y8iznMF-176" value="PRINT('No admin code entered, please try again.')&lt;br&gt;sleeps for 0.75 seconds" style="shape=parallelogram;perimeter=parallelogramPerimeter;whiteSpace=wrap;html=1;fixedSize=1;fontSize=13;" parent="1" vertex="1">
                    <mxGeometry x="4990" y="2250" width="350" height="40" as="geometry"/>
                </mxCell>
                <mxCell id="383D4JDCLkwi9Y8iznMF-178" value="CONTINUE" style="rounded=0;whiteSpace=wrap;html=1;fontSize=13;" parent="1" vertex="1">
                    <mxGeometry x="5230" y="2170" width="110" height="40" as="geometry"/>
                </mxCell>
                <mxCell id="383D4JDCLkwi9Y8iznMF-179" value="" style="endArrow=classic;html=1;fontSize=13;exitX=0.841;exitY=0.014;exitDx=0;exitDy=0;exitPerimeter=0;entryX=0.5;entryY=1;entryDx=0;entryDy=0;" parent="1" source="383D4JDCLkwi9Y8iznMF-176" target="383D4JDCLkwi9Y8iznMF-178" edge="1">
                    <mxGeometry width="50" height="50" relative="1" as="geometry">
                        <mxPoint x="5050" y="2160" as="sourcePoint"/>
                        <mxPoint x="5100" y="2110" as="targetPoint"/>
                    </mxGeometry>
                </mxCell>
                <mxCell id="383D4JDCLkwi9Y8iznMF-180" value="" style="endArrow=classic;html=1;fontSize=13;entryX=1;entryY=0.5;entryDx=0;entryDy=0;exitX=0.5;exitY=0;exitDx=0;exitDy=0;" parent="1" source="383D4JDCLkwi9Y8iznMF-178" target="383D4JDCLkwi9Y8iznMF-164" edge="1">
                    <mxGeometry width="50" height="50" relative="1" as="geometry">
                        <mxPoint x="5050" y="2160" as="sourcePoint"/>
                        <mxPoint x="5100" y="2110" as="targetPoint"/>
                        <Array as="points">
                            <mxPoint x="5285" y="1825"/>
                        </Array>
                    </mxGeometry>
                </mxCell>
                <mxCell id="383D4JDCLkwi9Y8iznMF-181" value="True" style="text;html=1;align=center;verticalAlign=middle;resizable=0;points=[];autosize=1;strokeColor=none;fillColor=none;fontSize=13;" parent="1" vertex="1">
                    <mxGeometry x="5050" y="2210" width="40" height="20" as="geometry"/>
                </mxCell>
                <mxCell id="383D4JDCLkwi9Y8iznMF-182" value="False" style="text;html=1;align=center;verticalAlign=middle;resizable=0;points=[];autosize=1;strokeColor=none;fillColor=none;fontSize=13;" parent="1" vertex="1">
                    <mxGeometry x="4822.5" y="2215" width="50" height="20" as="geometry"/>
                </mxCell>
                <mxCell id="383D4JDCLkwi9Y8iznMF-186" style="edgeStyle=none;html=1;entryX=0.5;entryY=0;entryDx=0;entryDy=0;fontSize=13;" parent="1" source="383D4JDCLkwi9Y8iznMF-183" target="383D4JDCLkwi9Y8iznMF-185" edge="1">
                    <mxGeometry relative="1" as="geometry"/>
                </mxCell>
                <mxCell id="383D4JDCLkwi9Y8iznMF-200" style="edgeStyle=none;html=1;entryX=0.5;entryY=0;entryDx=0;entryDy=0;fontSize=13;" parent="1" source="383D4JDCLkwi9Y8iznMF-183" target="383D4JDCLkwi9Y8iznMF-198" edge="1">
                    <mxGeometry relative="1" as="geometry"/>
                </mxCell>
                <mxCell id="383D4JDCLkwi9Y8iznMF-183" value="IF admin_code == 000?" style="rhombus;whiteSpace=wrap;html=1;fontSize=13;" parent="1" vertex="1">
                    <mxGeometry x="4707.5" y="2235" width="185" height="70" as="geometry"/>
                </mxCell>
                <mxCell id="383D4JDCLkwi9Y8iznMF-189" style="edgeStyle=none;html=1;entryX=0.25;entryY=0;entryDx=0;entryDy=0;fontSize=13;" parent="1" source="383D4JDCLkwi9Y8iznMF-185" target="383D4JDCLkwi9Y8iznMF-188" edge="1">
                    <mxGeometry relative="1" as="geometry"/>
                </mxCell>
                <mxCell id="383D4JDCLkwi9Y8iznMF-185" value="CALL FUNCTION clear" style="shape=process;whiteSpace=wrap;html=1;backgroundOutline=1;fontSize=13;" parent="1" vertex="1">
                    <mxGeometry x="4860" y="2330" width="110" height="50" as="geometry"/>
                </mxCell>
                <mxCell id="383D4JDCLkwi9Y8iznMF-187" value="True" style="text;html=1;align=center;verticalAlign=middle;resizable=0;points=[];autosize=1;strokeColor=none;fillColor=none;fontSize=13;" parent="1" vertex="1">
                    <mxGeometry x="4890" y="2290" width="40" height="20" as="geometry"/>
                </mxCell>
                <mxCell id="383D4JDCLkwi9Y8iznMF-191" style="edgeStyle=none;html=1;entryX=0.5;entryY=0;entryDx=0;entryDy=0;fontSize=13;" parent="1" source="383D4JDCLkwi9Y8iznMF-188" target="383D4JDCLkwi9Y8iznMF-190" edge="1">
                    <mxGeometry relative="1" as="geometry"/>
                </mxCell>
                <mxCell id="383D4JDCLkwi9Y8iznMF-188" value="sleeps for 0.75 seconds&lt;br&gt;PRINT('Thank you, redirecting you to the admin menu.....')" style="shape=parallelogram;perimeter=parallelogramPerimeter;whiteSpace=wrap;html=1;fixedSize=1;fontSize=13;" parent="1" vertex="1">
                    <mxGeometry x="4810" y="2410" width="410" height="50" as="geometry"/>
                </mxCell>
                <mxCell id="383D4JDCLkwi9Y8iznMF-193" style="edgeStyle=none;html=1;entryX=0.5;entryY=0;entryDx=0;entryDy=0;fontSize=13;" parent="1" source="383D4JDCLkwi9Y8iznMF-190" target="383D4JDCLkwi9Y8iznMF-192" edge="1">
                    <mxGeometry relative="1" as="geometry"/>
                </mxCell>
                <mxCell id="383D4JDCLkwi9Y8iznMF-190" value="CLOSE info_file&lt;br&gt;session_status = 'admin'&lt;br&gt;TF = False" style="rounded=0;whiteSpace=wrap;html=1;fontSize=13;" parent="1" vertex="1">
                    <mxGeometry x="4938.44" y="2490" width="151.56" height="60" as="geometry"/>
                </mxCell>
                <mxCell id="383D4JDCLkwi9Y8iznMF-195" style="edgeStyle=none;html=1;entryX=0.5;entryY=0;entryDx=0;entryDy=0;fontSize=13;" parent="1" source="383D4JDCLkwi9Y8iznMF-192" target="383D4JDCLkwi9Y8iznMF-194" edge="1">
                    <mxGeometry relative="1" as="geometry"/>
                </mxCell>
                <mxCell id="383D4JDCLkwi9Y8iznMF-192" value="sleeps for 3 seconds" style="shape=parallelogram;perimeter=parallelogramPerimeter;whiteSpace=wrap;html=1;fixedSize=1;fontSize=13;" parent="1" vertex="1">
                    <mxGeometry x="4914.22" y="2580" width="200" height="40" as="geometry"/>
                </mxCell>
                <mxCell id="383D4JDCLkwi9Y8iznMF-197" style="edgeStyle=none;html=1;entryX=0.5;entryY=0;entryDx=0;entryDy=0;fontSize=13;" parent="1" source="383D4JDCLkwi9Y8iznMF-194" target="383D4JDCLkwi9Y8iznMF-196" edge="1">
                    <mxGeometry relative="1" as="geometry"/>
                </mxCell>
                <mxCell id="383D4JDCLkwi9Y8iznMF-194" value="CALL FUNCTION main_menu" style="shape=process;whiteSpace=wrap;html=1;backgroundOutline=1;fontSize=13;" parent="1" vertex="1">
                    <mxGeometry x="4945" y="2640" width="135" height="50" as="geometry"/>
                </mxCell>
                <mxCell id="383D4JDCLkwi9Y8iznMF-196" value="RETURN" style="ellipse;whiteSpace=wrap;html=1;fontSize=13;" parent="1" vertex="1">
                    <mxGeometry x="4937.5" y="2710" width="150" height="40" as="geometry"/>
                </mxCell>
                <mxCell id="383D4JDCLkwi9Y8iznMF-202" style="edgeStyle=none;html=1;entryX=0.55;entryY=0;entryDx=0;entryDy=0;entryPerimeter=0;fontSize=13;" parent="1" source="383D4JDCLkwi9Y8iznMF-198" target="383D4JDCLkwi9Y8iznMF-199" edge="1">
                    <mxGeometry relative="1" as="geometry"/>
                </mxCell>
                <mxCell id="383D4JDCLkwi9Y8iznMF-198" value="CALL FUNCTION clear" style="shape=process;whiteSpace=wrap;html=1;backgroundOutline=1;fontSize=13;" parent="1" vertex="1">
                    <mxGeometry x="4550" y="2332.5" width="120" height="47.5" as="geometry"/>
                </mxCell>
                <mxCell id="383D4JDCLkwi9Y8iznMF-199" value="sleeps for 0.75 seconds&lt;br&gt;PRINT('Admin code does not exist, please try again.')&lt;br&gt;sleeps for 0.75 seconds" style="shape=parallelogram;perimeter=parallelogramPerimeter;whiteSpace=wrap;html=1;fixedSize=1;fontSize=13;" parent="1" vertex="1">
                    <mxGeometry x="4405" y="2410" width="375" height="60" as="geometry"/>
                </mxCell>
                <mxCell id="383D4JDCLkwi9Y8iznMF-201" value="False" style="text;html=1;align=center;verticalAlign=middle;resizable=0;points=[];autosize=1;strokeColor=none;fillColor=none;fontSize=13;" parent="1" vertex="1">
                    <mxGeometry x="4640" y="2285" width="50" height="20" as="geometry"/>
                </mxCell>
                <mxCell id="383D4JDCLkwi9Y8iznMF-203" value="CONTINUE" style="rounded=0;whiteSpace=wrap;html=1;fontSize=13;" parent="1" vertex="1">
                    <mxGeometry x="4405" y="2500" width="105" height="40" as="geometry"/>
                </mxCell>
                <mxCell id="117" value="&lt;u style=&quot;font-size: 12px&quot;&gt;FUNCTION log_out&lt;/u&gt;" style="text;html=1;align=center;verticalAlign=middle;resizable=0;points=[];autosize=1;strokeColor=none;fillColor=none;fontSize=8;" parent="1" vertex="1">
                    <mxGeometry x="205" y="760" width="120" height="20" as="geometry"/>
                </mxCell>
                <mxCell id="118" style="edgeStyle=none;html=1;fontColor=#F0F0F0;" parent="1" source="119" target="121" edge="1">
                    <mxGeometry relative="1" as="geometry"/>
                </mxCell>
                <mxCell id="119" value="&lt;font style=&quot;font-size: 12px&quot;&gt;BEGIN&lt;/font&gt;" style="ellipse;whiteSpace=wrap;html=1;" parent="1" vertex="1">
                    <mxGeometry x="192.5" y="790" width="145" height="20" as="geometry"/>
                </mxCell>
                <mxCell id="120" style="edgeStyle=none;html=1;fontColor=#F0F0F0;" parent="1" source="121" target="122" edge="1">
                    <mxGeometry relative="1" as="geometry"/>
                </mxCell>
                <mxCell id="121" value="CALL FUNCTION&lt;br&gt;clear" style="shape=process;whiteSpace=wrap;html=1;backgroundOutline=1;labelBackgroundColor=none;fontSize=12;" parent="1" vertex="1">
                    <mxGeometry x="192.5" y="830" width="145" height="60" as="geometry"/>
                </mxCell>
                <mxCell id="127" style="edgeStyle=none;html=1;" parent="1" source="122" target="123" edge="1">
                    <mxGeometry relative="1" as="geometry"/>
                </mxCell>
                <mxCell id="122" value="sleeps for 0.75 seconds&lt;br&gt;&lt;br&gt;DECLARE session_status, acc_name as GLOBAL VARIABLE&lt;br&gt;&lt;br&gt;session_status = 'guest'&lt;br&gt;acc_name = None" style="rounded=0;whiteSpace=wrap;html=1;labelBackgroundColor=none;fontSize=12;" parent="1" vertex="1">
                    <mxGeometry x="110" y="930" width="310" height="110" as="geometry"/>
                </mxCell>
                <mxCell id="383D4JDCLkwi9Y8iznMF-204" value="" style="endArrow=classic;html=1;fontSize=13;exitX=0.136;exitY=1.062;exitDx=0;exitDy=0;exitPerimeter=0;entryX=0.5;entryY=0;entryDx=0;entryDy=0;" parent="1" source="383D4JDCLkwi9Y8iznMF-199" target="383D4JDCLkwi9Y8iznMF-203" edge="1">
                    <mxGeometry width="50" height="50" relative="1" as="geometry">
                        <mxPoint x="4820" y="2390" as="sourcePoint"/>
                        <mxPoint x="4870" y="2340" as="targetPoint"/>
                    </mxGeometry>
                </mxCell>
                <mxCell id="383D4JDCLkwi9Y8iznMF-205" value="" style="endArrow=classic;html=1;fontSize=13;entryX=0;entryY=1;entryDx=0;entryDy=0;exitX=0;exitY=0.5;exitDx=0;exitDy=0;" parent="1" source="383D4JDCLkwi9Y8iznMF-203" target="383D4JDCLkwi9Y8iznMF-164" edge="1">
                    <mxGeometry width="50" height="50" relative="1" as="geometry">
                        <mxPoint x="4480" y="2180" as="sourcePoint"/>
                        <mxPoint x="4530" y="2130" as="targetPoint"/>
                        <Array as="points">
                            <mxPoint x="4330" y="2520"/>
                            <mxPoint x="4330" y="1850"/>
                        </Array>
                    </mxGeometry>
                </mxCell>
                <mxCell id="128" style="edgeStyle=none;html=1;" parent="1" source="123" target="124" edge="1">
                    <mxGeometry relative="1" as="geometry"/>
                </mxCell>
                <mxCell id="123" value="PRINT('Logging out...')" style="shape=parallelogram;perimeter=parallelogramPerimeter;whiteSpace=wrap;html=1;fixedSize=1;" parent="1" vertex="1">
                    <mxGeometry x="155" y="1070" width="220" height="60" as="geometry"/>
                </mxCell>
                <mxCell id="383D4JDCLkwi9Y8iznMF-208" value="False" style="text;html=1;align=center;verticalAlign=middle;resizable=0;points=[];autosize=1;strokeColor=none;fillColor=none;fontSize=13;" parent="1" vertex="1">
                    <mxGeometry x="5345" y="1595" width="50" height="20" as="geometry"/>
                </mxCell>
                <mxCell id="129" style="edgeStyle=none;html=1;entryX=0.5;entryY=0;entryDx=0;entryDy=0;" parent="1" source="124" target="125" edge="1">
                    <mxGeometry relative="1" as="geometry"/>
                </mxCell>
                <mxCell id="124" value="sleeps for 3 seconds" style="rounded=0;whiteSpace=wrap;html=1;" parent="1" vertex="1">
                    <mxGeometry x="205" y="1160" width="120" height="60" as="geometry"/>
                </mxCell>
                <mxCell id="383D4JDCLkwi9Y8iznMF-212" style="edgeStyle=none;html=1;entryX=0.039;entryY=0.388;entryDx=0;entryDy=0;entryPerimeter=0;fontSize=13;" parent="1" source="383D4JDCLkwi9Y8iznMF-210" target="383D4JDCLkwi9Y8iznMF-211" edge="1">
                    <mxGeometry relative="1" as="geometry"/>
                </mxCell>
                <mxCell id="383D4JDCLkwi9Y8iznMF-217" style="edgeStyle=none;html=1;entryX=0.5;entryY=0;entryDx=0;entryDy=0;fontSize=13;" parent="1" source="383D4JDCLkwi9Y8iznMF-210" target="383D4JDCLkwi9Y8iznMF-216" edge="1">
                    <mxGeometry relative="1" as="geometry"/>
                </mxCell>
                <mxCell id="383D4JDCLkwi9Y8iznMF-210" value="ELIF admin_confirmation == 'n' or admin_confirmation == 'N'?" style="rhombus;whiteSpace=wrap;html=1;fontSize=13;" parent="1" vertex="1">
                    <mxGeometry x="5390" y="1610" width="400" height="90" as="geometry"/>
                </mxCell>
                <mxCell id="130" style="edgeStyle=none;html=1;entryX=0.5;entryY=0;entryDx=0;entryDy=0;" parent="1" source="125" target="126" edge="1">
                    <mxGeometry relative="1" as="geometry"/>
                </mxCell>
                <mxCell id="125" value="CALL&amp;nbsp; FUNCTION&lt;br&gt;main_menu" style="shape=process;whiteSpace=wrap;html=1;backgroundOutline=1;" parent="1" vertex="1">
                    <mxGeometry x="172.5" y="1260" width="187.5" height="60" as="geometry"/>
                </mxCell>
                <mxCell id="126" value="RETURN" style="ellipse;whiteSpace=wrap;html=1;" parent="1" vertex="1">
                    <mxGeometry x="171.8800000000001" y="1360" width="186.25" height="50" as="geometry"/>
                </mxCell>
                <mxCell id="383D4JDCLkwi9Y8iznMF-214" style="edgeStyle=none;html=1;entryX=0.654;entryY=1.048;entryDx=0;entryDy=0;entryPerimeter=0;fontSize=13;" parent="1" source="383D4JDCLkwi9Y8iznMF-211" target="383D4JDCLkwi9Y8iznMF-213" edge="1">
                    <mxGeometry relative="1" as="geometry"/>
                </mxCell>
                <mxCell id="383D4JDCLkwi9Y8iznMF-211" value="PRINT(&quot;Answer not recognized, please try again.')" style="shape=parallelogram;perimeter=parallelogramPerimeter;whiteSpace=wrap;html=1;fixedSize=1;fontSize=13;" parent="1" vertex="1">
                    <mxGeometry x="5860" y="1635" width="320" height="55" as="geometry"/>
                </mxCell>
                <mxCell id="383D4JDCLkwi9Y8iznMF-213" value="CONTINUE" style="rounded=0;whiteSpace=wrap;html=1;fontSize=13;" parent="1" vertex="1">
                    <mxGeometry x="5950" y="1565" width="110" height="45" as="geometry"/>
                </mxCell>
                <mxCell id="383D4JDCLkwi9Y8iznMF-215" value="" style="endArrow=classic;html=1;fontSize=13;entryX=0.672;entryY=0.176;entryDx=0;entryDy=0;entryPerimeter=0;exitX=0.5;exitY=0;exitDx=0;exitDy=0;" parent="1" source="383D4JDCLkwi9Y8iznMF-213" target="383D4JDCLkwi9Y8iznMF-152" edge="1">
                    <mxGeometry width="50" height="50" relative="1" as="geometry">
                        <mxPoint x="5490" y="1560" as="sourcePoint"/>
                        <mxPoint x="5540" y="1510" as="targetPoint"/>
                        <Array as="points">
                            <mxPoint x="6005" y="1380"/>
                        </Array>
                    </mxGeometry>
                </mxCell>
                <mxCell id="383D4JDCLkwi9Y8iznMF-221" style="edgeStyle=none;html=1;fontSize=13;entryX=0.5;entryY=0;entryDx=0;entryDy=0;" parent="1" source="383D4JDCLkwi9Y8iznMF-216" target="383D4JDCLkwi9Y8iznMF-220" edge="1">
                    <mxGeometry relative="1" as="geometry">
                        <mxPoint x="5590" y="1840" as="targetPoint"/>
                    </mxGeometry>
                </mxCell>
                <mxCell id="383D4JDCLkwi9Y8iznMF-216" value="CALL FUNCTION clear" style="shape=process;whiteSpace=wrap;html=1;backgroundOutline=1;fontSize=13;" parent="1" vertex="1">
                    <mxGeometry x="5530" y="1750" width="120" height="60" as="geometry"/>
                </mxCell>
                <mxCell id="383D4JDCLkwi9Y8iznMF-218" value="True" style="text;html=1;align=center;verticalAlign=middle;resizable=0;points=[];autosize=1;strokeColor=none;fillColor=none;fontSize=13;" parent="1" vertex="1">
                    <mxGeometry x="5540" y="1710" width="40" height="20" as="geometry"/>
                </mxCell>
                <mxCell id="383D4JDCLkwi9Y8iznMF-219" value="False" style="text;html=1;align=center;verticalAlign=middle;resizable=0;points=[];autosize=1;strokeColor=none;fillColor=none;fontSize=13;" parent="1" vertex="1">
                    <mxGeometry x="5800" y="1630" width="50" height="20" as="geometry"/>
                </mxCell>
                <mxCell id="383D4JDCLkwi9Y8iznMF-223" style="edgeStyle=none;html=1;entryX=0.5;entryY=0;entryDx=0;entryDy=0;fontSize=13;" parent="1" source="383D4JDCLkwi9Y8iznMF-220" target="383D4JDCLkwi9Y8iznMF-222" edge="1">
                    <mxGeometry relative="1" as="geometry"/>
                </mxCell>
                <mxCell id="383D4JDCLkwi9Y8iznMF-220" value="sleeps for 0.75 seconds&lt;br&gt;PRINT('Redirecting you to the menu...')" style="shape=parallelogram;perimeter=parallelogramPerimeter;whiteSpace=wrap;html=1;fixedSize=1;fontSize=13;" parent="1" vertex="1">
                    <mxGeometry x="5450" y="1840" width="280" height="60" as="geometry"/>
                </mxCell>
                <mxCell id="383D4JDCLkwi9Y8iznMF-226" style="edgeStyle=none;html=1;entryX=0.5;entryY=0;entryDx=0;entryDy=0;fontSize=13;" parent="1" source="383D4JDCLkwi9Y8iznMF-222" target="383D4JDCLkwi9Y8iznMF-224" edge="1">
                    <mxGeometry relative="1" as="geometry"/>
                </mxCell>
                <mxCell id="383D4JDCLkwi9Y8iznMF-222" value="CLOSE info_file&lt;br&gt;session_status = 'registered'&lt;br&gt;TF = False" style="rounded=0;whiteSpace=wrap;html=1;fontSize=13;" parent="1" vertex="1">
                    <mxGeometry x="5490" y="1930" width="200" height="70" as="geometry"/>
                </mxCell>
                <mxCell id="383D4JDCLkwi9Y8iznMF-227" style="edgeStyle=none;html=1;entryX=0.5;entryY=0;entryDx=0;entryDy=0;fontSize=13;" parent="1" source="383D4JDCLkwi9Y8iznMF-224" target="383D4JDCLkwi9Y8iznMF-225" edge="1">
                    <mxGeometry relative="1" as="geometry"/>
                </mxCell>
                <mxCell id="383D4JDCLkwi9Y8iznMF-224" value="CALL FUNCTION main_menu" style="shape=process;whiteSpace=wrap;html=1;backgroundOutline=1;fontSize=13;" parent="1" vertex="1">
                    <mxGeometry x="5522.5" y="2030" width="135" height="50" as="geometry"/>
                </mxCell>
                <mxCell id="383D4JDCLkwi9Y8iznMF-225" value="RETURN" style="ellipse;whiteSpace=wrap;html=1;fontSize=13;" parent="1" vertex="1">
                    <mxGeometry x="5515" y="2110" width="150" height="40" as="geometry"/>
                </mxCell>
                <mxCell id="383D4JDCLkwi9Y8iznMF-233" style="edgeStyle=none;html=1;entryX=0.527;entryY=-0.014;entryDx=0;entryDy=0;entryPerimeter=0;fontSize=13;" parent="1" source="383D4JDCLkwi9Y8iznMF-228" target="383D4JDCLkwi9Y8iznMF-229" edge="1">
                    <mxGeometry relative="1" as="geometry"/>
                </mxCell>
                <mxCell id="383D4JDCLkwi9Y8iznMF-228" value="CALL FUNCTION clear" style="shape=process;whiteSpace=wrap;html=1;backgroundOutline=1;fontSize=13;" parent="1" vertex="1">
                    <mxGeometry x="4700" y="1435" width="120" height="60" as="geometry"/>
                </mxCell>
                <mxCell id="383D4JDCLkwi9Y8iznMF-234" style="edgeStyle=none;html=1;entryX=0.601;entryY=0.028;entryDx=0;entryDy=0;entryPerimeter=0;fontSize=13;" parent="1" source="383D4JDCLkwi9Y8iznMF-229" target="383D4JDCLkwi9Y8iznMF-230" edge="1">
                    <mxGeometry relative="1" as="geometry"/>
                </mxCell>
                <mxCell id="383D4JDCLkwi9Y8iznMF-229" value="sleeps for 0.75 seconds&lt;br&gt;PRINT('OEMS Login')&lt;br&gt;PRINT('Your password is incorrect, please try again.')" style="shape=parallelogram;perimeter=parallelogramPerimeter;whiteSpace=wrap;html=1;fixedSize=1;fontSize=13;" parent="1" vertex="1">
                    <mxGeometry x="4570" y="1530" width="360" height="60" as="geometry"/>
                </mxCell>
                <mxCell id="383D4JDCLkwi9Y8iznMF-230" value="CONTINUE" style="rounded=0;whiteSpace=wrap;html=1;fontSize=13;" parent="1" vertex="1">
                    <mxGeometry x="4675" y="1625" width="120" height="60" as="geometry"/>
                </mxCell>
                <mxCell id="383D4JDCLkwi9Y8iznMF-232" value="False" style="text;html=1;align=center;verticalAlign=middle;resizable=0;points=[];autosize=1;strokeColor=none;fillColor=none;fontSize=13;" parent="1" vertex="1">
                    <mxGeometry x="4785" y="1390" width="50" height="20" as="geometry"/>
                </mxCell>
                <mxCell id="383D4JDCLkwi9Y8iznMF-235" value="" style="endArrow=classic;html=1;fontSize=13;exitX=0;exitY=0.5;exitDx=0;exitDy=0;entryX=0;entryY=0.5;entryDx=0;entryDy=0;" parent="1" source="383D4JDCLkwi9Y8iznMF-230" target="383D4JDCLkwi9Y8iznMF-117" edge="1">
                    <mxGeometry width="50" height="50" relative="1" as="geometry">
                        <mxPoint x="4750" y="1400" as="sourcePoint"/>
                        <mxPoint x="4430" y="890" as="targetPoint"/>
                        <Array as="points">
                            <mxPoint x="4320" y="1660"/>
                            <mxPoint x="4320" y="890"/>
                        </Array>
                    </mxGeometry>
                </mxCell>
                <mxCell id="383D4JDCLkwi9Y8iznMF-240" style="edgeStyle=none;html=1;entryX=0.5;entryY=0;entryDx=0;entryDy=0;fontSize=13;" parent="1" source="383D4JDCLkwi9Y8iznMF-236" target="383D4JDCLkwi9Y8iznMF-239" edge="1">
                    <mxGeometry relative="1" as="geometry"/>
                </mxCell>
                <mxCell id="383D4JDCLkwi9Y8iznMF-236" value="CALL FUNCTION clear" style="shape=process;whiteSpace=wrap;html=1;backgroundOutline=1;fontSize=13;" parent="1" vertex="1">
                    <mxGeometry x="3965" y="710" width="95" height="60" as="geometry"/>
                </mxCell>
                <mxCell id="383D4JDCLkwi9Y8iznMF-238" value="False" style="text;html=1;align=center;verticalAlign=middle;resizable=0;points=[];autosize=1;strokeColor=none;fillColor=none;fontSize=13;" parent="1" vertex="1">
                    <mxGeometry x="4010" y="675" width="50" height="20" as="geometry"/>
                </mxCell>
                <mxCell id="383D4JDCLkwi9Y8iznMF-242" style="edgeStyle=none;html=1;entryX=0.609;entryY=0.011;entryDx=0;entryDy=0;entryPerimeter=0;fontSize=13;" parent="1" source="383D4JDCLkwi9Y8iznMF-239" target="383D4JDCLkwi9Y8iznMF-241" edge="1">
                    <mxGeometry relative="1" as="geometry"/>
                </mxCell>
                <mxCell id="383D4JDCLkwi9Y8iznMF-239" value="sleeps for 0.75 seconds" style="shape=parallelogram;perimeter=parallelogramPerimeter;whiteSpace=wrap;html=1;fixedSize=1;fontSize=13;" parent="1" vertex="1">
                    <mxGeometry x="3925" y="790" width="175" height="40" as="geometry"/>
                </mxCell>
                <mxCell id="383D4JDCLkwi9Y8iznMF-244" style="edgeStyle=none;html=1;entryX=0.5;entryY=0;entryDx=0;entryDy=0;fontSize=13;" parent="1" source="383D4JDCLkwi9Y8iznMF-241" target="383D4JDCLkwi9Y8iznMF-243" edge="1">
                    <mxGeometry relative="1" as="geometry"/>
                </mxCell>
                <mxCell id="383D4JDCLkwi9Y8iznMF-241" value="&lt;div&gt;log_in_retry = '''The entered username does not exist.&lt;/div&gt;&lt;div&gt;&amp;nbsp; &amp;nbsp; What would you like to do?&lt;/div&gt;&lt;div&gt;&lt;br&gt;&lt;/div&gt;&lt;div&gt;&amp;nbsp; &amp;nbsp; 1. Retry&lt;/div&gt;&lt;div&gt;&amp;nbsp; &amp;nbsp; 2. Register new account&lt;/div&gt;&lt;div&gt;&amp;nbsp; &amp;nbsp; 3. Main menu&lt;/div&gt;&lt;div&gt;&lt;br&gt;&lt;/div&gt;&lt;div&gt;&amp;nbsp; &amp;nbsp; Choice: '''&amp;nbsp;&lt;/div&gt;" style="rounded=0;whiteSpace=wrap;html=1;fontSize=13;" parent="1" vertex="1">
                    <mxGeometry x="3800" y="862.5" width="350" height="140" as="geometry"/>
                </mxCell>
                <mxCell id="131" value="FUNCTION category" style="text;html=1;align=center;verticalAlign=middle;resizable=0;points=[];autosize=1;strokeColor=none;fillColor=none;" parent="1" vertex="1">
                    <mxGeometry x="255" y="2060" width="130" height="20" as="geometry"/>
                </mxCell>
                <mxCell id="383D4JDCLkwi9Y8iznMF-246" style="edgeStyle=none;html=1;entryX=0.5;entryY=0;entryDx=0;entryDy=0;fontSize=13;" parent="1" source="383D4JDCLkwi9Y8iznMF-243" target="383D4JDCLkwi9Y8iznMF-245" edge="1">
                    <mxGeometry relative="1" as="geometry"/>
                </mxCell>
                <mxCell id="383D4JDCLkwi9Y8iznMF-243" value="DOWHILE TF == True" style="rhombus;whiteSpace=wrap;html=1;fontSize=13;" parent="1" vertex="1">
                    <mxGeometry x="3900" y="1020" width="152.5" height="80" as="geometry"/>
                </mxCell>
                <mxCell id="135" style="edgeStyle=none;html=1;" parent="1" source="132" target="133" edge="1">
                    <mxGeometry relative="1" as="geometry"/>
                </mxCell>
                <mxCell id="132" value="BEGIN" style="ellipse;whiteSpace=wrap;html=1;" parent="1" vertex="1">
                    <mxGeometry x="220" y="2090" width="200" height="50" as="geometry"/>
                </mxCell>
                <mxCell id="136" style="edgeStyle=none;html=1;entryX=0.5;entryY=0;entryDx=0;entryDy=0;" parent="1" source="133" target="134" edge="1">
                    <mxGeometry relative="1" as="geometry"/>
                </mxCell>
                <mxCell id="133" value="CALL FUNCTION clear()" style="shape=process;whiteSpace=wrap;html=1;backgroundOutline=1;" parent="1" vertex="1">
                    <mxGeometry x="255" y="2170" width="130" height="60" as="geometry"/>
                </mxCell>
                <mxCell id="383D4JDCLkwi9Y8iznMF-249" style="edgeStyle=none;html=1;entryX=0.5;entryY=0;entryDx=0;entryDy=0;fontSize=13;" parent="1" source="383D4JDCLkwi9Y8iznMF-245" target="383D4JDCLkwi9Y8iznMF-247" edge="1">
                    <mxGeometry relative="1" as="geometry"/>
                </mxCell>
                <mxCell id="383D4JDCLkwi9Y8iznMF-245" value="Execute try aclause" style="rounded=0;whiteSpace=wrap;html=1;fontSize=13;" parent="1" vertex="1">
                    <mxGeometry x="3915" y="1130" width="120" height="40" as="geometry"/>
                </mxCell>
                <mxCell id="162" style="edgeStyle=none;html=1;" edge="1" parent="1" source="134" target="137">
                    <mxGeometry relative="1" as="geometry"/>
                </mxCell>
                <mxCell id="134" value="sleeps for 0.75 seconds&lt;br&gt;&lt;br&gt;TF = True&lt;br&gt;&lt;br&gt;&lt;div style=&quot;text-align: left&quot;&gt;events = '''Events Categories Available:&lt;/div&gt;&lt;div style=&quot;text-align: left&quot;&gt;&lt;br&gt;&lt;/div&gt;&lt;div style=&quot;text-align: left&quot;&gt;1. Sports&lt;/div&gt;&lt;div style=&quot;text-align: left&quot;&gt;2. E-Sports&lt;/div&gt;&lt;div style=&quot;text-align: left&quot;&gt;3. Technology&lt;/div&gt;&lt;div style=&quot;text-align: left&quot;&gt;4. Art&lt;/div&gt;&lt;div style=&quot;text-align: left&quot;&gt;5. General Entertainment&lt;/div&gt;&lt;div style=&quot;text-align: left&quot;&gt;6. Back to Main Menu&lt;/div&gt;&lt;div style=&quot;text-align: left&quot;&gt;&lt;br&gt;&lt;/div&gt;&lt;div style=&quot;text-align: left&quot;&gt;Choice: '''&lt;/div&gt;" style="rounded=0;whiteSpace=wrap;html=1;" parent="1" vertex="1">
                    <mxGeometry x="185" y="2260" width="270" height="230" as="geometry"/>
                </mxCell>
                <mxCell id="383D4JDCLkwi9Y8iznMF-252" style="edgeStyle=none;html=1;fontSize=13;" parent="1" source="383D4JDCLkwi9Y8iznMF-247" target="383D4JDCLkwi9Y8iznMF-251" edge="1">
                    <mxGeometry relative="1" as="geometry"/>
                </mxCell>
                <mxCell id="383D4JDCLkwi9Y8iznMF-247" value="PRINT(log_in_retry)&lt;br&gt;Get log_in_retry" style="shape=parallelogram;perimeter=parallelogramPerimeter;whiteSpace=wrap;html=1;fixedSize=1;fontSize=13;" parent="1" vertex="1">
                    <mxGeometry x="3882.5" y="1195" width="185" height="50" as="geometry"/>
                </mxCell>
                <mxCell id="383D4JDCLkwi9Y8iznMF-250" value="True" style="text;html=1;align=center;verticalAlign=middle;resizable=0;points=[];autosize=1;strokeColor=none;fillColor=none;fontSize=13;" parent="1" vertex="1">
                    <mxGeometry x="3980" y="1100" width="40" height="20" as="geometry"/>
                </mxCell>
                <mxCell id="383D4JDCLkwi9Y8iznMF-254" style="edgeStyle=none;html=1;entryX=0.333;entryY=0.021;entryDx=0;entryDy=0;entryPerimeter=0;fontSize=13;" parent="1" source="383D4JDCLkwi9Y8iznMF-251" target="383D4JDCLkwi9Y8iznMF-253" edge="1">
                    <mxGeometry relative="1" as="geometry"/>
                </mxCell>
                <mxCell id="383D4JDCLkwi9Y8iznMF-251" value="except occurs" style="rhombus;whiteSpace=wrap;html=1;fontSize=13;" parent="1" vertex="1">
                    <mxGeometry x="3917.5" y="1267.5" width="115" height="72.5" as="geometry"/>
                </mxCell>
                <mxCell id="383D4JDCLkwi9Y8iznMF-253" value="PRINT('Invalid option, please try again.')&lt;br&gt;sleeps for 0.75 seconds" style="shape=parallelogram;perimeter=parallelogramPerimeter;whiteSpace=wrap;html=1;fixedSize=1;fontSize=13;" parent="1" vertex="1">
                    <mxGeometry x="3990" y="1352.5" width="270" height="45" as="geometry"/>
                </mxCell>
                <mxCell id="383D4JDCLkwi9Y8iznMF-255" value="True" style="text;html=1;align=center;verticalAlign=middle;resizable=0;points=[];autosize=1;strokeColor=none;fillColor=none;fontSize=13;" parent="1" vertex="1">
                    <mxGeometry x="4040" y="1310" width="40" height="20" as="geometry"/>
                </mxCell>
                <mxCell id="383D4JDCLkwi9Y8iznMF-261" style="edgeStyle=none;html=1;entryX=0.5;entryY=1;entryDx=0;entryDy=0;fontSize=13;" parent="1" source="383D4JDCLkwi9Y8iznMF-256" target="383D4JDCLkwi9Y8iznMF-260" edge="1">
                    <mxGeometry relative="1" as="geometry"/>
                </mxCell>
                <mxCell id="383D4JDCLkwi9Y8iznMF-256" value="CALL FUNCTION clear" style="shape=process;whiteSpace=wrap;html=1;backgroundOutline=1;fontSize=13;" parent="1" vertex="1">
                    <mxGeometry x="4140" y="1260" width="120" height="60" as="geometry"/>
                </mxCell>
                <mxCell id="383D4JDCLkwi9Y8iznMF-259" value="" style="endArrow=classic;html=1;fontSize=13;entryX=0.5;entryY=1;entryDx=0;entryDy=0;exitX=0.779;exitY=0.037;exitDx=0;exitDy=0;exitPerimeter=0;" parent="1" source="383D4JDCLkwi9Y8iznMF-253" target="383D4JDCLkwi9Y8iznMF-256" edge="1">
                    <mxGeometry width="50" height="50" relative="1" as="geometry">
                        <mxPoint x="4080" y="1290" as="sourcePoint"/>
                        <mxPoint x="4130" y="1240" as="targetPoint"/>
                    </mxGeometry>
                </mxCell>
                <mxCell id="383D4JDCLkwi9Y8iznMF-260" value="CONTINUE" style="rounded=0;whiteSpace=wrap;html=1;fontSize=13;" parent="1" vertex="1">
                    <mxGeometry x="4160" y="1185" width="80" height="30" as="geometry"/>
                </mxCell>
                <mxCell id="383D4JDCLkwi9Y8iznMF-262" value="" style="endArrow=classic;html=1;fontSize=13;entryX=1;entryY=0.5;entryDx=0;entryDy=0;exitX=0.5;exitY=0;exitDx=0;exitDy=0;" parent="1" source="383D4JDCLkwi9Y8iznMF-260" target="383D4JDCLkwi9Y8iznMF-243" edge="1">
                    <mxGeometry width="50" height="50" relative="1" as="geometry">
                        <mxPoint x="4080" y="1290" as="sourcePoint"/>
                        <mxPoint x="4130" y="1240" as="targetPoint"/>
                        <Array as="points">
                            <mxPoint x="4200" y="1060"/>
                        </Array>
                    </mxGeometry>
                </mxCell>
                <mxCell id="383D4JDCLkwi9Y8iznMF-274" style="edgeStyle=none;html=1;fontSize=13;" parent="1" source="383D4JDCLkwi9Y8iznMF-263" target="383D4JDCLkwi9Y8iznMF-272" edge="1">
                    <mxGeometry relative="1" as="geometry"/>
                </mxCell>
                <mxCell id="383D4JDCLkwi9Y8iznMF-263" value="IF log_in_retry == '1'?" style="rhombus;whiteSpace=wrap;html=1;fontSize=13;" parent="1" vertex="1">
                    <mxGeometry x="3760" y="1345" width="157.5" height="80" as="geometry"/>
                </mxCell>
                <mxCell id="383D4JDCLkwi9Y8iznMF-264" value="" style="endArrow=classic;html=1;fontSize=13;exitX=0.177;exitY=0.746;exitDx=0;exitDy=0;exitPerimeter=0;entryX=1;entryY=0;entryDx=0;entryDy=0;" parent="1" source="383D4JDCLkwi9Y8iznMF-251" target="383D4JDCLkwi9Y8iznMF-263" edge="1">
                    <mxGeometry width="50" height="50" relative="1" as="geometry">
                        <mxPoint x="3970" y="1270" as="sourcePoint"/>
                        <mxPoint x="4020" y="1220" as="targetPoint"/>
                    </mxGeometry>
                </mxCell>
                <mxCell id="383D4JDCLkwi9Y8iznMF-265" value="False" style="text;html=1;align=center;verticalAlign=middle;resizable=0;points=[];autosize=1;strokeColor=none;fillColor=none;fontSize=13;" parent="1" vertex="1">
                    <mxGeometry x="3865" y="1320" width="50" height="20" as="geometry"/>
                </mxCell>
                <mxCell id="383D4JDCLkwi9Y8iznMF-270" style="edgeStyle=none;html=1;entryX=0.5;entryY=0;entryDx=0;entryDy=0;fontSize=13;" parent="1" source="383D4JDCLkwi9Y8iznMF-266" target="383D4JDCLkwi9Y8iznMF-269" edge="1">
                    <mxGeometry relative="1" as="geometry"/>
                </mxCell>
                <mxCell id="383D4JDCLkwi9Y8iznMF-266" value="CALL FUNCTION log_in" style="shape=process;whiteSpace=wrap;html=1;backgroundOutline=1;fontSize=13;" parent="1" vertex="1">
                    <mxGeometry x="3900" y="1425" width="120" height="60" as="geometry"/>
                </mxCell>
                <mxCell id="383D4JDCLkwi9Y8iznMF-267" value="" style="endArrow=classic;html=1;fontSize=13;exitX=1;exitY=1;exitDx=0;exitDy=0;entryX=0.5;entryY=0;entryDx=0;entryDy=0;" parent="1" source="383D4JDCLkwi9Y8iznMF-263" target="383D4JDCLkwi9Y8iznMF-266" edge="1">
                    <mxGeometry width="50" height="50" relative="1" as="geometry">
                        <mxPoint x="3970" y="1260" as="sourcePoint"/>
                        <mxPoint x="4020" y="1210" as="targetPoint"/>
                    </mxGeometry>
                </mxCell>
                <mxCell id="144" style="edgeStyle=none;html=1;entryX=0;entryY=0.5;entryDx=0;entryDy=0;" parent="1" source="137" target="138" edge="1">
                    <mxGeometry relative="1" as="geometry"/>
                </mxCell>
                <mxCell id="137" value="DOWHILE TF == True" style="rhombus;whiteSpace=wrap;html=1;" parent="1" vertex="1">
                    <mxGeometry x="195" y="2520" width="250" height="80" as="geometry"/>
                </mxCell>
                <mxCell id="383D4JDCLkwi9Y8iznMF-269" value="RETURN" style="ellipse;whiteSpace=wrap;html=1;fontSize=13;" parent="1" vertex="1">
                    <mxGeometry x="3910" y="1520" width="101.25" height="30" as="geometry"/>
                </mxCell>
                <mxCell id="383D4JDCLkwi9Y8iznMF-271" value="True" style="text;html=1;align=center;verticalAlign=middle;resizable=0;points=[];autosize=1;strokeColor=none;fillColor=none;fontSize=13;" parent="1" vertex="1">
                    <mxGeometry x="3908.75" y="1395" width="40" height="20" as="geometry"/>
                </mxCell>
                <mxCell id="383D4JDCLkwi9Y8iznMF-275" style="edgeStyle=none;html=1;entryX=0.822;entryY=0.273;entryDx=0;entryDy=0;entryPerimeter=0;fontSize=13;" parent="1" source="383D4JDCLkwi9Y8iznMF-272" target="383D4JDCLkwi9Y8iznMF-273" edge="1">
                    <mxGeometry relative="1" as="geometry"/>
                </mxCell>
                <mxCell id="383D4JDCLkwi9Y8iznMF-279" style="edgeStyle=none;html=1;entryX=0.5;entryY=0;entryDx=0;entryDy=0;fontSize=13;" parent="1" source="383D4JDCLkwi9Y8iznMF-272" target="383D4JDCLkwi9Y8iznMF-278" edge="1">
                    <mxGeometry relative="1" as="geometry"/>
                </mxCell>
                <mxCell id="383D4JDCLkwi9Y8iznMF-272" value="IF log_in_retry == '2'?" style="rhombus;whiteSpace=wrap;html=1;fontSize=13;" parent="1" vertex="1">
                    <mxGeometry x="3610" y="1405" width="157.5" height="80" as="geometry"/>
                </mxCell>
                <mxCell id="383D4JDCLkwi9Y8iznMF-288" style="edgeStyle=none;html=1;entryX=0.5;entryY=0;entryDx=0;entryDy=0;fontSize=13;" parent="1" source="383D4JDCLkwi9Y8iznMF-273" target="383D4JDCLkwi9Y8iznMF-286" edge="1">
                    <mxGeometry relative="1" as="geometry"/>
                </mxCell>
                <mxCell id="383D4JDCLkwi9Y8iznMF-292" style="edgeStyle=none;html=1;entryX=0.614;entryY=-0.033;entryDx=0;entryDy=0;entryPerimeter=0;fontSize=13;" parent="1" source="383D4JDCLkwi9Y8iznMF-273" target="383D4JDCLkwi9Y8iznMF-290" edge="1">
                    <mxGeometry relative="1" as="geometry"/>
                </mxCell>
                <mxCell id="383D4JDCLkwi9Y8iznMF-273" value="IF log_in_retry == '3'?" style="rhombus;whiteSpace=wrap;html=1;fontSize=13;" parent="1" vertex="1">
                    <mxGeometry x="3465" y="1470" width="157.5" height="80" as="geometry"/>
                </mxCell>
                <mxCell id="383D4JDCLkwi9Y8iznMF-276" value="False" style="text;html=1;align=center;verticalAlign=middle;resizable=0;points=[];autosize=1;strokeColor=none;fillColor=none;fontSize=13;" parent="1" vertex="1">
                    <mxGeometry x="3715" y="1390" width="50" height="20" as="geometry"/>
                </mxCell>
                <mxCell id="383D4JDCLkwi9Y8iznMF-277" value="False" style="text;html=1;align=center;verticalAlign=middle;resizable=0;points=[];autosize=1;strokeColor=none;fillColor=none;fontSize=13;" parent="1" vertex="1">
                    <mxGeometry x="3565" y="1455" width="50" height="20" as="geometry"/>
                </mxCell>
                <mxCell id="383D4JDCLkwi9Y8iznMF-284" style="edgeStyle=none;html=1;fontSize=13;" parent="1" source="383D4JDCLkwi9Y8iznMF-278" target="383D4JDCLkwi9Y8iznMF-282" edge="1">
                    <mxGeometry relative="1" as="geometry"/>
                </mxCell>
                <mxCell id="383D4JDCLkwi9Y8iznMF-278" value="CLOSE info_file&lt;br&gt;acc_name = None" style="rounded=0;whiteSpace=wrap;html=1;fontSize=13;" parent="1" vertex="1">
                    <mxGeometry x="3740" y="1480" width="120" height="60" as="geometry"/>
                </mxCell>
                <mxCell id="383D4JDCLkwi9Y8iznMF-280" value="True" style="text;html=1;align=center;verticalAlign=middle;resizable=0;points=[];autosize=1;strokeColor=none;fillColor=none;fontSize=13;" parent="1" vertex="1">
                    <mxGeometry x="3765" y="1450" width="40" height="20" as="geometry"/>
                </mxCell>
                <mxCell id="145" style="edgeStyle=none;html=1;entryX=0.5;entryY=0;entryDx=0;entryDy=0;" parent="1" source="138" target="139" edge="1">
                    <mxGeometry relative="1" as="geometry"/>
                </mxCell>
                <mxCell id="138" value="Execute try clause" style="rounded=0;whiteSpace=wrap;html=1;labelBackgroundColor=none;fontColor=#F0F0F0;" parent="1" vertex="1">
                    <mxGeometry x="540" y="2620" width="120" height="60" as="geometry"/>
                </mxCell>
                <mxCell id="146" style="edgeStyle=none;html=1;entryX=0.5;entryY=0;entryDx=0;entryDy=0;" parent="1" source="139" target="140" edge="1">
                    <mxGeometry relative="1" as="geometry"/>
                </mxCell>
                <mxCell id="139" value="PRINT (menu)&lt;br&gt;&lt;br&gt;Get answer" style="shape=parallelogram;perimeter=parallelogramPerimeter;whiteSpace=wrap;html=1;fixedSize=1;labelBackgroundColor=none;fontColor=#F0F0F0;" parent="1" vertex="1">
                    <mxGeometry x="520" y="2710" width="160" height="60" as="geometry"/>
                </mxCell>
                <mxCell id="147" style="edgeStyle=none;html=1;entryX=0.5;entryY=0;entryDx=0;entryDy=0;" parent="1" source="140" target="141" edge="1">
                    <mxGeometry relative="1" as="geometry"/>
                </mxCell>
                <mxCell id="166" style="edgeStyle=none;html=1;" edge="1" parent="1" source="140" target="165">
                    <mxGeometry relative="1" as="geometry"/>
                </mxCell>
                <mxCell id="140" value="exception occurs" style="rhombus;whiteSpace=wrap;html=1;labelBackgroundColor=none;fontColor=#F0F0F0;" parent="1" vertex="1">
                    <mxGeometry x="525" y="2800" width="150" height="80" as="geometry"/>
                </mxCell>
                <mxCell id="148" style="edgeStyle=none;html=1;" parent="1" source="141" target="143" edge="1">
                    <mxGeometry relative="1" as="geometry"/>
                </mxCell>
                <mxCell id="141" value="PRINT ('Invalid option, please try again.')" style="shape=parallelogram;perimeter=parallelogramPerimeter;whiteSpace=wrap;html=1;fixedSize=1;labelBackgroundColor=none;fontColor=#F0F0F0;" parent="1" vertex="1">
                    <mxGeometry x="647.5" y="2900" width="252.5" height="60" as="geometry"/>
                </mxCell>
                <mxCell id="153" style="edgeStyle=none;html=1;entryX=0.5;entryY=1;entryDx=0;entryDy=0;" parent="1" source="142" target="152" edge="1">
                    <mxGeometry relative="1" as="geometry"/>
                </mxCell>
                <mxCell id="142" value="CALL FUNCTION&lt;br&gt;clear" style="shape=process;whiteSpace=wrap;html=1;backgroundOutline=1;labelBackgroundColor=none;fontColor=#F0F0F0;" parent="1" vertex="1">
                    <mxGeometry x="715" y="2670" width="150" height="60" as="geometry"/>
                </mxCell>
                <mxCell id="149" style="edgeStyle=none;html=1;entryX=0.5;entryY=1;entryDx=0;entryDy=0;" parent="1" source="143" target="142" edge="1">
                    <mxGeometry relative="1" as="geometry"/>
                </mxCell>
                <mxCell id="143" value="sleeps for 0.75 seconds" style="rounded=0;whiteSpace=wrap;html=1;labelBackgroundColor=none;fontColor=#F0F0F0;" parent="1" vertex="1">
                    <mxGeometry x="740" y="2780" width="120" height="60" as="geometry"/>
                </mxCell>
                <mxCell id="383D4JDCLkwi9Y8iznMF-281" style="edgeStyle=none;html=1;entryX=0.5;entryY=0;entryDx=0;entryDy=0;fontSize=13;" parent="1" source="383D4JDCLkwi9Y8iznMF-282" target="383D4JDCLkwi9Y8iznMF-283" edge="1">
                    <mxGeometry relative="1" as="geometry"/>
                </mxCell>
                <mxCell id="383D4JDCLkwi9Y8iznMF-282" value="CALL FUNCTION acc_register" style="shape=process;whiteSpace=wrap;html=1;backgroundOutline=1;fontSize=13;" parent="1" vertex="1">
                    <mxGeometry x="3740" y="1560" width="120" height="60" as="geometry"/>
                </mxCell>
                <mxCell id="383D4JDCLkwi9Y8iznMF-283" value="RETURN" style="ellipse;whiteSpace=wrap;html=1;fontSize=13;" parent="1" vertex="1">
                    <mxGeometry x="3749.38" y="1647.5" width="101.25" height="30" as="geometry"/>
                </mxCell>
                <mxCell id="383D4JDCLkwi9Y8iznMF-285" style="edgeStyle=none;html=1;entryX=0.5;entryY=0;entryDx=0;entryDy=0;fontSize=13;" parent="1" source="383D4JDCLkwi9Y8iznMF-286" target="383D4JDCLkwi9Y8iznMF-287" edge="1">
                    <mxGeometry relative="1" as="geometry"/>
                </mxCell>
                <mxCell id="383D4JDCLkwi9Y8iznMF-286" value="CALL FUNCTION main_menu" style="shape=process;whiteSpace=wrap;html=1;backgroundOutline=1;fontSize=13;" parent="1" vertex="1">
                    <mxGeometry x="3585.63" y="1550" width="120" height="60" as="geometry"/>
                </mxCell>
                <mxCell id="383D4JDCLkwi9Y8iznMF-287" value="RETURN" style="ellipse;whiteSpace=wrap;html=1;fontSize=13;" parent="1" vertex="1">
                    <mxGeometry x="3595.01" y="1647.5" width="101.25" height="30" as="geometry"/>
                </mxCell>
                <mxCell id="383D4JDCLkwi9Y8iznMF-289" value="True" style="text;html=1;align=center;verticalAlign=middle;resizable=0;points=[];autosize=1;strokeColor=none;fillColor=none;fontSize=13;" parent="1" vertex="1">
                    <mxGeometry x="3622.5" y="1520" width="40" height="20" as="geometry"/>
                </mxCell>
                <mxCell id="383D4JDCLkwi9Y8iznMF-290" value="PRINT('Invalid option, please try again.')&lt;br&gt;sleeps for 0.75 seconds" style="shape=parallelogram;perimeter=parallelogramPerimeter;whiteSpace=wrap;html=1;fixedSize=1;fontSize=13;" parent="1" vertex="1">
                    <mxGeometry x="3240" y="1570" width="295" height="40" as="geometry"/>
                </mxCell>
                <mxCell id="154" style="edgeStyle=none;html=1;entryX=0.976;entryY=0.5;entryDx=0;entryDy=0;entryPerimeter=0;" parent="1" source="152" target="137" edge="1">
                    <mxGeometry relative="1" as="geometry"/>
                </mxCell>
                <mxCell id="152" value="CONTINUE" style="rounded=0;whiteSpace=wrap;html=1;labelBackgroundColor=none;fontColor=#F0F0F0;" parent="1" vertex="1">
                    <mxGeometry x="730" y="2530" width="120" height="60" as="geometry"/>
                </mxCell>
                <mxCell id="383D4JDCLkwi9Y8iznMF-291" value="CONTINUE" style="rounded=0;whiteSpace=wrap;html=1;fontSize=13;" parent="1" vertex="1">
                    <mxGeometry x="3260" y="1475" width="90" height="40" as="geometry"/>
                </mxCell>
                <mxCell id="383D4JDCLkwi9Y8iznMF-293" value="" style="endArrow=classic;html=1;fontSize=13;exitX=0.194;exitY=-0.051;exitDx=0;exitDy=0;exitPerimeter=0;entryX=0.431;entryY=1.038;entryDx=0;entryDy=0;entryPerimeter=0;" parent="1" source="383D4JDCLkwi9Y8iznMF-290" target="383D4JDCLkwi9Y8iznMF-291" edge="1">
                    <mxGeometry width="50" height="50" relative="1" as="geometry">
                        <mxPoint x="3610" y="1430" as="sourcePoint"/>
                        <mxPoint x="3660" y="1380" as="targetPoint"/>
                    </mxGeometry>
                </mxCell>
                <mxCell id="383D4JDCLkwi9Y8iznMF-294" value="" style="endArrow=classic;html=1;fontSize=13;exitX=0.5;exitY=0;exitDx=0;exitDy=0;" parent="1" source="383D4JDCLkwi9Y8iznMF-291" target="383D4JDCLkwi9Y8iznMF-243" edge="1">
                    <mxGeometry width="50" height="50" relative="1" as="geometry">
                        <mxPoint x="3610" y="1430" as="sourcePoint"/>
                        <mxPoint x="3660" y="1380" as="targetPoint"/>
                        <Array as="points">
                            <mxPoint x="3305" y="1060"/>
                        </Array>
                    </mxGeometry>
                </mxCell>
                <mxCell id="383D4JDCLkwi9Y8iznMF-296" value="RETURN" style="ellipse;whiteSpace=wrap;html=1;fontSize=13;" parent="1" vertex="1">
                    <mxGeometry x="3714.68" y="1800" width="140.63" height="50" as="geometry"/>
                </mxCell>
                <mxCell id="383D4JDCLkwi9Y8iznMF-297" value="" style="endArrow=classic;html=1;fontSize=13;exitX=0;exitY=0.5;exitDx=0;exitDy=0;entryX=0;entryY=0.5;entryDx=0;entryDy=0;" parent="1" source="383D4JDCLkwi9Y8iznMF-35" target="383D4JDCLkwi9Y8iznMF-296" edge="1">
                    <mxGeometry width="50" height="50" relative="1" as="geometry">
                        <mxPoint x="3500" y="640" as="sourcePoint"/>
                        <mxPoint x="3790" y="1730" as="targetPoint"/>
                        <Array as="points">
                            <mxPoint x="3160" y="365"/>
                            <mxPoint x="3160" y="1825"/>
                        </Array>
                    </mxGeometry>
                </mxCell>
                <mxCell id="383D4JDCLkwi9Y8iznMF-298" value="" style="endArrow=classic;html=1;fontSize=13;" parent="1" source="383D4JDCLkwi9Y8iznMF-164" target="383D4JDCLkwi9Y8iznMF-296" edge="1">
                    <mxGeometry width="50" height="50" relative="1" as="geometry">
                        <mxPoint x="4380" y="1760" as="sourcePoint"/>
                        <mxPoint x="4430" y="1710" as="targetPoint"/>
                    </mxGeometry>
                </mxCell>
                <mxCell id="383D4JDCLkwi9Y8iznMF-299" value="False" style="text;html=1;align=center;verticalAlign=middle;resizable=0;points=[];autosize=1;strokeColor=none;fillColor=none;fontSize=13;" parent="1" vertex="1">
                    <mxGeometry x="4810" y="1800" width="50" height="20" as="geometry"/>
                </mxCell>
                <mxCell id="383D4JDCLkwi9Y8iznMF-300" value="False" style="text;html=1;align=center;verticalAlign=middle;resizable=0;points=[];autosize=1;strokeColor=none;fillColor=none;fontSize=13;" parent="1" vertex="1">
                    <mxGeometry x="3475" y="340" width="50" height="20" as="geometry"/>
                </mxCell>
                <mxCell id="383D4JDCLkwi9Y8iznMF-301" value="False" style="text;html=1;align=center;verticalAlign=middle;resizable=0;points=[];autosize=1;strokeColor=none;fillColor=none;fontSize=13;" parent="1" vertex="1">
                    <mxGeometry x="3955" y="595" width="50" height="20" as="geometry"/>
                </mxCell>
                <mxCell id="383D4JDCLkwi9Y8iznMF-302" value="" style="endArrow=classic;html=1;fontSize=13;exitX=0.153;exitY=0.333;exitDx=0;exitDy=0;exitPerimeter=0;entryX=0.613;entryY=0.032;entryDx=0;entryDy=0;entryPerimeter=0;" parent="1" edge="1" target="383D4JDCLkwi9Y8iznMF-296" source="383D4JDCLkwi9Y8iznMF-117">
                    <mxGeometry width="50" height="50" relative="1" as="geometry">
                        <mxPoint x="4370" y="1070" as="sourcePoint"/>
                        <mxPoint x="4230" y="880" as="targetPoint"/>
                        <Array as="points">
                            <mxPoint x="4300" y="878"/>
                            <mxPoint x="4300" y="1240"/>
                            <mxPoint x="4300" y="1800"/>
                        </Array>
                    </mxGeometry>
                </mxCell>
                <mxCell id="157" style="edgeStyle=none;html=1;entryX=0.982;entryY=0.579;entryDx=0;entryDy=0;entryPerimeter=0;" edge="1" parent="1" source="155" target="4">
                    <mxGeometry relative="1" as="geometry"/>
                </mxCell>
                <mxCell id="155" value="CONTINUE" style="rounded=0;whiteSpace=wrap;html=1;labelBackgroundColor=none;fontColor=#F0F0F0;" vertex="1" parent="1">
                    <mxGeometry x="1630" y="700" width="120" height="60" as="geometry"/>
                </mxCell>
                <mxCell id="383D4JDCLkwi9Y8iznMF-303" value="False" style="text;html=1;align=center;verticalAlign=middle;resizable=0;points=[];autosize=1;strokeColor=none;fillColor=none;fontSize=13;" vertex="1" parent="1">
                    <mxGeometry x="4490" y="850" width="50" height="20" as="geometry"/>
                </mxCell>
                <mxCell id="159" style="edgeStyle=none;html=1;entryX=1;entryY=0.5;entryDx=0;entryDy=0;" edge="1" parent="1" source="158" target="94">
                    <mxGeometry relative="1" as="geometry"/>
                </mxCell>
                <mxCell id="158" value="CONTINUE" style="rounded=0;whiteSpace=wrap;html=1;labelBackgroundColor=none;fontColor=#F0F0F0;" vertex="1" parent="1">
                    <mxGeometry x="2290" y="790" width="120" height="60" as="geometry"/>
                </mxCell>
                <mxCell id="161" style="edgeStyle=none;html=1;entryX=1;entryY=0.5;entryDx=0;entryDy=0;" edge="1" parent="1" source="160" target="LKw_4Z-7U7-yW4VzZGcP-191">
                    <mxGeometry relative="1" as="geometry"/>
                </mxCell>
                <mxCell id="160" value="CONTINUE" style="rounded=0;whiteSpace=wrap;html=1;labelBackgroundColor=none;fontColor=#F0F0F0;" vertex="1" parent="1">
                    <mxGeometry x="3025" y="760" width="120" height="60" as="geometry"/>
                </mxCell>
                <mxCell id="163" value="TRUE" style="text;html=1;align=center;verticalAlign=middle;resizable=0;points=[];autosize=1;strokeColor=none;fillColor=none;" vertex="1" parent="1">
                    <mxGeometry x="455" y="2600" width="50" height="20" as="geometry"/>
                </mxCell>
                <mxCell id="164" value="TRUE" style="text;html=1;align=center;verticalAlign=middle;resizable=0;points=[];autosize=1;strokeColor=none;fillColor=none;" vertex="1" parent="1">
                    <mxGeometry x="690.63" y="2860" width="50" height="20" as="geometry"/>
                </mxCell>
                <mxCell id="169" style="edgeStyle=none;html=1;" edge="1" parent="1" source="165" target="168">
                    <mxGeometry relative="1" as="geometry"/>
                </mxCell>
                <mxCell id="188" style="edgeStyle=none;html=1;entryX=0.5;entryY=0;entryDx=0;entryDy=0;" edge="1" parent="1" source="165" target="181">
                    <mxGeometry relative="1" as="geometry"/>
                </mxCell>
                <mxCell id="165" value="IF answer &amp;lt;= 6 ?" style="rhombus;whiteSpace=wrap;html=1;" vertex="1" parent="1">
                    <mxGeometry x="297.21" y="2940" width="248.74" height="90" as="geometry"/>
                </mxCell>
                <mxCell id="167" value="FALSE" style="text;html=1;align=center;verticalAlign=middle;resizable=0;points=[];autosize=1;strokeColor=none;fillColor=none;" vertex="1" parent="1">
                    <mxGeometry x="465" y="2880" width="50" height="20" as="geometry"/>
                </mxCell>
                <mxCell id="173" style="edgeStyle=none;html=1;entryX=0.5;entryY=0;entryDx=0;entryDy=0;" edge="1" parent="1" source="168" target="171">
                    <mxGeometry relative="1" as="geometry"/>
                </mxCell>
                <mxCell id="179" style="edgeStyle=none;html=1;" edge="1" parent="1" source="168" target="178">
                    <mxGeometry relative="1" as="geometry"/>
                </mxCell>
                <mxCell id="168" value="IF answer == 6 ?" style="rhombus;whiteSpace=wrap;html=1;" vertex="1" parent="1">
                    <mxGeometry x="505" y="3050" width="248.74" height="90" as="geometry"/>
                </mxCell>
                <mxCell id="170" value="TRUE" style="text;html=1;align=center;verticalAlign=middle;resizable=0;points=[];autosize=1;strokeColor=none;fillColor=none;" vertex="1" parent="1">
                    <mxGeometry x="530.63" y="3020" width="50" height="20" as="geometry"/>
                </mxCell>
                <mxCell id="174" style="edgeStyle=none;html=1;entryX=0.5;entryY=0;entryDx=0;entryDy=0;" edge="1" parent="1" source="171" target="172">
                    <mxGeometry relative="1" as="geometry"/>
                </mxCell>
                <mxCell id="171" value="TF == False" style="rounded=0;whiteSpace=wrap;html=1;" vertex="1" parent="1">
                    <mxGeometry x="753.74" y="3140" width="160" height="50" as="geometry"/>
                </mxCell>
                <mxCell id="176" style="edgeStyle=none;html=1;" edge="1" parent="1" source="172" target="175">
                    <mxGeometry relative="1" as="geometry"/>
                </mxCell>
                <mxCell id="172" value="CALL FUNCTION main_menu()" style="shape=process;whiteSpace=wrap;html=1;backgroundOutline=1;" vertex="1" parent="1">
                    <mxGeometry x="766.4000000000001" y="3230" width="134.68" height="60" as="geometry"/>
                </mxCell>
                <mxCell id="383D4JDCLkwi9Y8iznMF-304" value="False" style="text;html=1;align=center;verticalAlign=middle;resizable=0;points=[];autosize=1;strokeColor=none;fillColor=none;fontSize=13;" vertex="1" parent="1">
                    <mxGeometry x="3415" y="1520" width="50" height="20" as="geometry"/>
                </mxCell>
                <mxCell id="175" value="RETURN" style="ellipse;whiteSpace=wrap;html=1;" vertex="1" parent="1">
                    <mxGeometry x="756.94" y="3330" width="153.6" height="80" as="geometry"/>
                </mxCell>
                <mxCell id="177" value="TRUE" style="text;html=1;align=center;verticalAlign=middle;resizable=0;points=[];autosize=1;strokeColor=none;fillColor=none;" vertex="1" parent="1">
                    <mxGeometry x="775" y="3100" width="50" height="20" as="geometry"/>
                </mxCell>
                <mxCell id="178" value="RETURN answer" style="ellipse;whiteSpace=wrap;html=1;" vertex="1" parent="1">
                    <mxGeometry x="480.00000000000006" y="3170" width="153.6" height="80" as="geometry"/>
                </mxCell>
                <mxCell id="180" value="FALSE" style="text;html=1;align=center;verticalAlign=middle;resizable=0;points=[];autosize=1;strokeColor=none;fillColor=none;" vertex="1" parent="1">
                    <mxGeometry x="531.8" y="3140" width="50" height="20" as="geometry"/>
                </mxCell>
                <mxCell id="189" style="edgeStyle=none;html=1;" edge="1" parent="1" source="181" target="182">
                    <mxGeometry relative="1" as="geometry"/>
                </mxCell>
                <mxCell id="181" value="CALL FUNCTION clear" style="shape=process;whiteSpace=wrap;html=1;backgroundOutline=1;" vertex="1" parent="1">
                    <mxGeometry x="225" y="3060" width="135" height="60" as="geometry"/>
                </mxCell>
                <mxCell id="190" style="edgeStyle=none;html=1;" edge="1" parent="1" source="182" target="183">
                    <mxGeometry relative="1" as="geometry"/>
                </mxCell>
                <mxCell id="182" value="sleeps for 0.75 seconds" style="rounded=0;whiteSpace=wrap;html=1;" vertex="1" parent="1">
                    <mxGeometry x="232.5" y="3150" width="120" height="60" as="geometry"/>
                </mxCell>
                <mxCell id="191" style="edgeStyle=none;html=1;entryX=0.5;entryY=0;entryDx=0;entryDy=0;" edge="1" parent="1" source="183" target="184">
                    <mxGeometry relative="1" as="geometry"/>
                </mxCell>
                <mxCell id="183" value="PRINT('Invalid option please try again')" style="shape=parallelogram;perimeter=parallelogramPerimeter;whiteSpace=wrap;html=1;fixedSize=1;" vertex="1" parent="1">
                    <mxGeometry x="185" y="3240" width="207.5" height="60" as="geometry"/>
                </mxCell>
                <mxCell id="192" style="edgeStyle=none;html=1;entryX=0.5;entryY=0;entryDx=0;entryDy=0;" edge="1" parent="1" source="184" target="185">
                    <mxGeometry relative="1" as="geometry"/>
                </mxCell>
                <mxCell id="184" value="CALL FUNCTION clear" style="shape=process;whiteSpace=wrap;html=1;backgroundOutline=1;" vertex="1" parent="1">
                    <mxGeometry x="221.25" y="3330" width="135" height="60" as="geometry"/>
                </mxCell>
                <mxCell id="193" style="edgeStyle=none;html=1;entryX=0.5;entryY=0;entryDx=0;entryDy=0;" edge="1" parent="1" source="185" target="187">
                    <mxGeometry relative="1" as="geometry"/>
                </mxCell>
                <mxCell id="185" value="sleeps for 0.75 seconds" style="rounded=0;whiteSpace=wrap;html=1;" vertex="1" parent="1">
                    <mxGeometry x="232.5" y="3430" width="120" height="60" as="geometry"/>
                </mxCell>
                <mxCell id="194" style="edgeStyle=none;html=1;entryX=0;entryY=0.5;entryDx=0;entryDy=0;" edge="1" parent="1" source="187" target="137">
                    <mxGeometry relative="1" as="geometry">
                        <mxPoint x="130" y="3560" as="targetPoint"/>
                        <Array as="points">
                            <mxPoint x="90" y="3560"/>
                            <mxPoint x="90" y="2560"/>
                        </Array>
                    </mxGeometry>
                </mxCell>
                <mxCell id="187" value="CONTINUE" style="rounded=0;whiteSpace=wrap;html=1;labelBackgroundColor=none;fontColor=#F0F0F0;" vertex="1" parent="1">
                    <mxGeometry x="232.5" y="3530" width="120" height="60" as="geometry"/>
                </mxCell>
            </root>
        </mxGraphModel>
    </diagram>
</mxfile>